<svg width="25" height="16" viewBox="0 0 25 16" fill="none" xmlns="http://www.w3.org/2000/svg">
<path d="M25 13.9113C23.0369 13.9113 21.0738 13.9113 19.1108 13.9113C19.0225 13.9113 18.9122 13.9113 18.824 13.9113C18.8902 14.5289 18.9784 15.1244 19.0446 15.742C14.6552 15.742 10.332 15.742 5.96474 15.742C5.92062 15.1244 6.00885 14.5289 6.20736 13.9113C4.134 13.9333 2.08269 13.9333 0.00932359 13.9333C-0.0568477 12.8966 0.229894 11.9923 0.847493 11.1762C1.46509 10.3821 2.25915 9.85277 3.18554 9.52191C2.96497 9.12488 2.76646 8.72785 2.54589 8.33083C2.52383 8.28671 2.50177 8.26466 2.47972 8.2426C1.9724 7.86763 1.79595 7.29414 1.95035 6.76477C2.10475 6.19129 2.10475 5.66192 2.1268 5.08844C2.19298 4.11792 2.65617 3.61061 3.6708 3.4121C4.20017 3.30181 4.72954 3.23564 5.25891 3.12536C5.43537 3.08124 5.63388 2.97096 5.76622 2.83861C6.03091 2.61804 6.27354 2.37541 6.56028 2.08867C6.60439 2.52981 6.64851 2.90478 6.67056 3.30181C6.69262 3.52238 6.73673 3.67678 6.95731 3.83118C7.53079 4.20615 7.68519 4.82375 7.75136 5.46341C7.77342 5.61781 7.75136 5.75015 7.75136 5.90455C7.75136 6.12512 7.77342 6.30158 7.8837 6.50009C8.12633 6.94123 7.8837 7.86763 7.46462 8.2426C7.37639 8.30877 7.31022 8.41905 7.24405 8.52934C7.04553 8.8602 6.86908 9.19105 6.69262 9.52191C7.02348 9.69837 7.39845 9.85277 7.7293 10.0513C8.06016 10.2498 8.36896 10.5145 8.67776 10.7571C9.20713 10.5145 9.7365 10.2719 10.2879 10.0072C10.1556 9.83071 10.0232 9.65425 9.8909 9.45574C9.75856 9.25723 9.64827 9.05871 9.53798 8.83814C9.38358 8.52934 9.22919 8.26466 8.9645 8.02203C8.41307 7.51472 8.32484 6.36775 8.72187 5.72809C8.83216 5.63986 8.83216 5.55163 8.83216 5.46341C8.83216 4.95609 8.8101 4.44878 8.83216 3.91941C8.87627 3.08124 9.2733 2.46364 10.0453 2.1769C10.5747 1.97839 11.1482 1.89016 11.6996 1.77987C12.0304 1.7137 12.3613 1.66959 12.6921 1.60342C13.1112 1.53725 13.4862 1.36079 13.795 1.02993C14.0376 0.765247 14.3023 0.544677 14.6111 0.257935C14.6552 0.787305 14.7214 1.2505 14.7655 1.73576C14.7876 2.0225 14.8537 2.24307 15.1405 2.41953C15.7801 2.81656 16.0448 3.45621 16.1331 4.1841C16.1772 4.62524 16.1772 5.06638 16.1992 5.52958C16.1992 5.61781 16.2213 5.70603 16.2654 5.77221C16.4419 6.01483 16.508 6.27952 16.486 6.5442C16.4419 7.20592 16.3316 7.86763 15.714 8.28671C15.6919 8.30877 15.6478 8.35288 15.6257 8.37494C15.339 8.92637 15.0302 9.4778 14.7435 10.0292C15.2287 10.2498 15.7801 10.5145 16.3095 10.7571C16.6183 10.5365 16.9271 10.2719 17.258 10.0513C17.5888 9.85277 17.9638 9.69837 18.2946 9.52191C18.0961 9.14694 17.8976 8.77197 17.677 8.37494C17.655 8.33083 17.6109 8.28671 17.5668 8.2426C17.0153 7.7794 16.8609 6.96329 17.2138 6.32363C17.258 6.25746 17.258 6.16923 17.258 6.10306C17.258 5.75015 17.2359 5.39723 17.258 5.04432C17.28 4.3385 17.6329 3.83118 18.2946 3.61061C18.7358 3.45621 19.221 3.4121 19.6842 3.30181C19.7945 3.27976 19.8828 3.2577 19.993 3.2577C20.4121 3.19153 20.765 3.05918 21.0518 2.72833C21.2282 2.52981 21.4488 2.35336 21.6694 2.13279C21.7135 2.61804 21.7576 3.05918 21.8238 3.50033C21.8238 3.58855 21.8679 3.69884 21.9341 3.74295C22.5737 4.13998 22.7943 4.75758 22.8384 5.46341C22.8384 5.59575 22.8605 5.70603 22.8384 5.83838C22.8384 6.081 22.8384 6.32363 22.9707 6.56626C23.1913 7.02946 22.9487 7.91174 22.5517 8.26466C22.4634 8.35288 22.3973 8.44111 22.3311 8.5514C22.1326 8.88225 21.9561 9.21311 21.7797 9.54397C22.0885 9.69837 22.4414 9.83071 22.7502 10.0292C23.9413 10.7571 24.7133 11.7717 24.9118 13.1613C24.9118 13.1834 24.9338 13.2054 24.9559 13.2275C25 13.426 25 13.6686 25 13.9113ZM14.1038 1.60342C13.8391 1.75782 13.5744 1.93427 13.2877 2.04456C12.9348 2.1769 12.5377 2.22101 12.1848 2.30924C11.6114 2.41953 11.0379 2.4857 10.4644 2.66216C9.7365 2.88273 9.4277 3.30181 9.40564 4.05175C9.38358 4.55907 9.40564 5.06638 9.40564 5.57369C9.40564 5.77221 9.44976 5.97072 9.22919 6.10306C9.18507 6.12512 9.16301 6.21335 9.14096 6.27952C9.07479 6.72066 9.1189 7.13974 9.33947 7.51472C9.40564 7.60294 9.51593 7.66911 9.60416 7.75734C9.69238 7.84557 9.78061 7.91174 9.82473 7.99997C10.0894 8.66168 10.4203 9.30134 10.9496 9.80865C11.876 10.735 13.0451 10.713 13.9715 9.80865C14.4126 9.36751 14.7435 8.83814 14.964 8.26466C15.0523 8.04409 15.1184 7.84557 15.3611 7.75734C15.4713 7.71323 15.5816 7.58089 15.6037 7.4706C15.6919 7.13974 15.7581 6.78683 15.8243 6.43392C15.8463 6.34569 15.7801 6.19129 15.6919 6.14718C15.5596 6.05895 15.5596 5.97072 15.5596 5.83838C15.5596 5.30901 15.5596 4.80169 15.5155 4.27232C15.4493 3.58855 15.1405 3.03713 14.4788 2.72833C14.3905 2.68421 14.3244 2.59599 14.3023 2.50776C14.2141 2.1769 14.17 1.89016 14.1038 1.60342ZM15.5375 11.0438C15.4934 11.088 15.4272 11.1541 15.3831 11.2203C14.5229 12.2129 13.6847 13.2054 12.8245 14.198C12.5819 14.4848 12.4275 14.4848 12.1848 14.2201C11.3246 13.2275 10.4423 12.2349 9.5821 11.2644C9.53798 11.1982 9.47181 11.1541 9.4277 11.088C7.90576 11.7717 6.49411 13.8451 6.62645 15.1906C7.46462 15.1906 8.28073 15.1906 9.14096 15.1906C9.14096 15.0803 9.14096 15.0141 9.14096 14.9259C9.14096 14.6171 9.14096 14.3304 9.14096 14.0216C9.14096 13.823 9.22919 13.7128 9.4277 13.7128C9.60416 13.7128 9.69238 13.8451 9.71444 14.0216C9.7365 14.1098 9.71444 14.198 9.71444 14.2862C9.71444 14.595 9.71444 14.9038 9.71444 15.2126C11.5893 15.2126 13.42 15.2126 15.2949 15.2126C15.2949 14.8156 15.2949 14.4406 15.2949 14.0436C15.2949 13.8672 15.3831 13.7348 15.5816 13.7128C15.7581 13.7128 15.8463 13.823 15.8684 13.9774C15.8684 14.0657 15.8684 14.1318 15.8684 14.2201C15.8684 14.5509 15.8684 14.8597 15.8684 15.1906C16.7286 15.1906 17.5447 15.1906 18.3829 15.1906C18.5152 13.801 17.1918 11.86 15.5375 11.0438ZM6.11914 3.47827C5.72211 3.58855 5.3692 3.7209 4.99423 3.80912C4.48691 3.91941 3.9796 3.98558 3.47229 4.11792C2.98703 4.25027 2.7444 4.58112 2.7444 5.08844C2.7444 5.52958 2.76646 5.94866 2.7444 6.3898C2.7444 6.47803 2.70029 6.56626 2.65617 6.61037C2.39149 6.87506 2.50177 7.60294 2.85469 7.80146C2.94292 7.84557 3.03114 7.95586 3.07526 8.04409C3.27377 8.50728 3.49434 8.94843 3.84726 9.30134C4.48691 9.98511 5.34714 10.0072 6.03091 9.34545C6.40588 8.99254 6.62645 8.57345 6.82496 8.0882C6.86908 7.97791 6.95731 7.86763 7.04553 7.80146C7.2661 7.64706 7.48668 6.98534 7.37639 6.74272C7.35433 6.6986 7.31022 6.67655 7.31022 6.65449C7.2661 6.56626 7.19993 6.50009 7.19993 6.41186C7.17788 6.01483 7.17788 5.61781 7.15582 5.22078C7.11171 4.80169 6.93525 4.40467 6.53822 4.20615C6.29559 4.09587 6.22942 3.91941 6.18531 3.69884C6.14119 3.61061 6.11914 3.52238 6.11914 3.47827ZM21.2062 3.39004C20.8533 3.67678 20.4342 3.74295 20.0372 3.83118C19.5519 3.91941 19.0446 3.98558 18.5593 4.11792C18.052 4.25027 17.8314 4.58112 17.8314 5.11049C17.8314 5.52958 17.8314 5.94866 17.8314 6.34569C17.8314 6.43392 17.8094 6.52215 17.7653 6.58832C17.5006 6.87506 17.6109 7.58089 17.9417 7.7794C18.03 7.82351 18.1182 7.9338 18.1623 8.02203C18.3608 8.50728 18.6034 8.97048 18.9784 9.34545C19.6181 9.96305 20.4121 9.98511 21.0738 9.38957C21.4709 9.03665 21.7135 8.57345 21.912 8.0882C21.9561 7.99997 22.0223 7.88969 22.1105 7.84557C22.3531 7.69117 22.5737 7.02946 22.4634 6.76477C22.4414 6.72066 22.3973 6.6986 22.3973 6.67655C22.3531 6.58832 22.287 6.52215 22.287 6.43392C22.2649 6.12512 22.287 5.79426 22.2649 5.48546C22.2208 4.97815 22.1326 4.49289 21.6253 4.25027C21.3606 4.11792 21.2724 3.91941 21.2503 3.65473C21.2282 3.5665 21.2062 3.50033 21.2062 3.39004ZM7.24405 10.3821C6.56028 11.1762 5.92062 11.9261 5.28097 12.6761C5.01628 12.9849 4.88394 12.9849 4.64131 12.6981C4.37663 12.3893 4.08988 12.0805 3.8252 11.7717C3.42817 11.3306 3.03114 10.8894 2.63412 10.4262C1.50921 11.088 0.781322 12.0144 0.626922 13.3378C1.22246 13.3378 1.77389 13.3378 2.34737 13.3378C2.34737 13.3157 2.36943 13.2937 2.36943 13.2716C2.36943 13.051 2.36943 12.8525 2.36943 12.632C2.36943 12.3452 2.47972 12.2129 2.67823 12.2129C2.87674 12.2129 2.96497 12.3452 2.96497 12.632C2.96497 12.8525 2.96497 13.0731 2.96497 13.2937C3.00909 13.3157 3.03114 13.3157 3.0532 13.3157C4.134 13.3157 5.23685 13.3157 6.31765 13.3157C6.38382 13.3157 6.49411 13.2496 6.53822 13.1613C6.80291 12.7864 7.02348 12.3893 7.28816 12.0364C7.55285 11.6835 7.8837 11.3968 8.1925 11.0438C7.90576 10.8453 7.5749 10.6248 7.24405 10.3821ZM22.0664 13.3378C22.0664 13.1613 22.0664 13.0069 22.0664 12.8525C22.0664 12.3673 22.1326 12.2129 22.3752 12.2129C22.5958 12.2129 22.6619 12.3673 22.6619 12.8305C22.6619 12.9849 22.6619 13.1613 22.6619 13.3157C23.2575 13.3157 23.8089 13.3157 24.4045 13.3157C24.228 11.9702 23.4781 11.0438 22.3531 10.3821C21.6914 11.1541 21.0518 11.9041 20.4121 12.632C20.1254 12.9628 20.0151 12.9628 19.7284 12.632C19.1108 11.9482 18.5152 11.2424 17.8976 10.5586C17.8535 10.4924 17.7212 10.4263 17.677 10.4483C17.3903 10.6468 17.1036 10.8453 16.7948 11.0659C17.5668 11.6614 18.1402 12.3673 18.5593 13.2054C18.5814 13.2496 18.6696 13.2937 18.7358 13.2937C19.7945 13.3378 20.9194 13.3378 22.0664 13.3378ZM14.964 10.7571C14.8096 10.713 14.6993 10.6689 14.5891 10.6248C14.3023 10.4924 14.0376 10.4704 13.795 10.713C13.7068 10.8012 13.5524 10.8233 13.4641 10.8894C13.2436 11.0659 13.023 11.2424 12.8024 11.4188C12.7804 11.4409 12.7583 11.485 12.7804 11.5291C12.8907 11.9923 13.0009 12.4334 13.1333 12.9408C13.7509 12.1908 14.3464 11.485 14.964 10.7571ZM11.8099 12.8746C11.9422 12.3893 12.0525 11.9482 12.1407 11.507C12.1628 11.4629 12.0966 11.3747 12.0525 11.3306C11.7878 11.11 11.5672 10.8453 11.2364 10.713C11.1482 10.6689 11.0599 10.6027 10.9717 10.5365C10.9276 10.5145 10.8614 10.4704 10.8173 10.4704C10.5526 10.5586 10.2659 10.6468 9.95707 10.735C10.5967 11.507 11.1923 12.1688 11.8099 12.8746ZM6.71468 10.0954C6.47205 10.0733 6.27354 9.98511 6.11914 10.0292C5.89857 10.0954 5.67799 10.2057 5.50154 10.338C5.36919 10.4263 5.17068 10.5586 5.19274 10.6689C5.2148 10.9777 5.32508 11.2865 5.41331 11.6394C5.83239 11.1321 6.22942 10.6468 6.71468 10.0954ZM21.7356 10.1836C21.7356 10.1616 21.7135 10.1175 21.7135 10.0954C21.537 10.0733 21.3385 10.0072 21.1841 10.0513C20.9636 10.0954 20.765 10.2277 20.5886 10.338C20.4562 10.4263 20.2577 10.5586 20.2798 10.6689C20.3018 10.9777 20.4121 11.2865 20.5004 11.6394C20.9415 11.11 21.3385 10.6468 21.7356 10.1836ZM19.5519 11.5953C19.6401 11.2865 19.7063 10.9997 19.7725 10.735C19.7945 10.6689 19.7504 10.5586 19.7063 10.5365C19.5078 10.4042 19.2652 10.316 19.0666 10.1395C18.802 9.91894 18.5593 10.0292 18.2946 10.1616C18.7137 10.6468 19.1108 11.11 19.5519 11.5953ZM3.2076 10.1836C3.62669 10.6689 4.02371 11.11 4.46486 11.6173C4.55308 11.3085 4.61925 11.0218 4.68543 10.7571C4.70748 10.6909 4.66337 10.5806 4.61925 10.5586C4.42074 10.4263 4.17811 10.338 4.00166 10.1836C3.73697 9.94099 3.49434 10.0292 3.2076 10.1836Z" fill="#FB6152"/>
</svg>
