<svg width="18" height="18" viewBox="0 0 18 18" fill="none" xmlns="http://www.w3.org/2000/svg">
<path d="M0 15.008C1.64482 13.3598 3.28965 11.7081 4.93448 10.06C5.30862 9.68235 5.76748 9.50942 6.30046 9.51295C7.98058 9.51647 9.65717 9.51295 11.3373 9.51295C12.0538 9.51295 12.5021 9.81293 12.7845 10.4729C12.7915 10.487 12.7986 10.5011 12.8162 10.5258C12.8656 10.4764 12.9151 10.4341 12.9574 10.3882C13.8186 9.52353 14.6799 8.65887 15.5447 7.79421C15.9329 7.40246 16.3988 7.23306 16.9389 7.37423C18.0331 7.66362 18.3543 8.9518 17.5424 9.77411C16.7377 10.5894 15.9259 11.3976 15.1176 12.2058C14.3516 12.9751 13.5786 13.7374 12.8198 14.5139C12.3962 14.948 11.8985 15.1527 11.2949 15.1491C9.52657 15.1421 7.76174 15.1456 5.99338 15.1421C5.87337 15.1421 5.78865 15.1774 5.70394 15.2621C4.80388 16.1761 3.89675 17.0867 2.99316 17.9972C2.87668 17.9972 2.75667 17.9972 2.64019 17.9972C2.59784 17.9584 2.55195 17.9231 2.50959 17.8808C1.67306 17.0443 0.836531 16.2044 0 15.3609C0 15.2444 0 15.1244 0 15.008ZM2.84491 17.1679C2.87315 17.1326 2.91198 17.0796 2.95786 17.0337C3.74851 16.2361 4.53915 15.4456 5.32627 14.6445C5.46745 14.4998 5.62276 14.4398 5.82395 14.4398C7.64879 14.4433 9.47716 14.4398 11.302 14.4468C11.7044 14.4468 12.0256 14.3198 12.308 14.0339C13.861 12.4669 15.4246 10.907 16.9812 9.34354C17.0448 9.28002 17.1048 9.21649 17.1577 9.1459C17.2777 8.98356 17.3271 8.79651 17.2813 8.59534C17.2212 8.33065 17.0624 8.1436 16.7977 8.06243C16.5083 7.9742 16.2647 8.06243 16.06 8.27065C15.3999 8.93062 14.7434 9.59412 14.0834 10.2541C13.5645 10.7729 13.0421 11.2882 12.5374 11.8211C12.2232 12.1528 11.8597 12.3293 11.4044 12.3293C10.8926 12.3293 10.3843 12.3293 9.87248 12.3293C9.39598 12.3293 8.923 12.3293 8.44649 12.3293C8.40414 12.3293 8.36531 12.3293 8.32296 12.3293C8.09353 12.3187 7.93822 12.181 7.93469 11.9834C7.93116 11.7858 8.08647 11.6305 8.3159 11.627C8.72181 11.6199 9.12772 11.6234 9.5301 11.6234C10.1584 11.6234 10.7867 11.6305 11.4149 11.6199C11.9338 11.6128 12.2762 11.1505 12.1173 10.6882C12.015 10.3917 11.7467 10.2153 11.3902 10.2153C9.71717 10.2153 8.04411 10.2188 6.37105 10.2117C5.96867 10.2082 5.64747 10.3423 5.36509 10.6247C3.90028 12.0999 2.43194 13.568 0.963599 15.0397C0.917714 15.0856 0.878887 15.1315 0.833002 15.1809C1.49658 15.8444 2.16016 16.4938 2.84491 17.1679Z" fill="#FB6152"/>
<path d="M5.10031 3.51431C4.98383 2.76602 4.9803 2.03891 5.10384 1.31532C5.15678 0.994124 5.35797 0.881174 5.66505 1.00118C6.24745 1.22708 6.79102 1.52357 7.29576 1.89419C7.38047 1.95772 7.46165 2.02126 7.54284 2.08126C7.71932 1.73535 7.87462 1.38592 8.06523 1.06119C8.24171 0.757636 8.44996 0.471733 8.66174 0.192889C8.8594 -0.068306 9.09589 -0.0612467 9.30414 0.196419C9.72064 0.708221 10.0595 1.26944 10.3136 1.88007C10.3419 1.95066 10.3701 2.01773 10.3983 2.08479C10.7125 1.88007 11.0019 1.66123 11.3196 1.48475C11.6408 1.30473 11.9761 1.14943 12.3149 1.00118C12.622 0.870585 12.8373 0.997653 12.8868 1.32591C12.9856 1.98949 13.0032 2.6566 12.9079 3.3237C12.9009 3.38018 12.9009 3.43665 12.8973 3.49313C13.2821 3.47195 13.6562 3.42606 14.0268 3.43312C14.3904 3.43665 14.7539 3.47901 15.114 3.5249C15.3963 3.56019 15.5199 3.7755 15.4175 4.0367C14.9198 5.30032 14.1892 6.38393 13.0103 7.11104C12.3079 7.54519 11.5314 7.77461 10.7125 7.80991C10.1583 7.83462 9.60063 7.76755 9.04647 7.76403C8.78528 7.7605 8.52408 7.81697 8.25936 7.83109C7.17575 7.88403 6.13097 7.73932 5.16031 7.21693C4.4932 6.8569 3.94963 6.35216 3.50137 5.74506C3.12369 5.23325 2.80955 4.68263 2.58718 4.08611C2.46717 3.77197 2.57659 3.57431 2.91191 3.51784C3.6002 3.40136 4.28848 3.40136 4.9803 3.49666C5.00853 3.50372 5.04383 3.50725 5.10031 3.51431ZM8.99 6.80396C10.4654 4.71086 10.296 2.72719 8.97941 0.962357C7.5746 2.89308 7.59931 4.89441 8.99 6.80396ZM12.2232 1.80595C11.6761 2.06008 11.1819 2.37422 10.7372 2.76249C10.656 2.83308 10.6384 2.90014 10.6489 3.0025C10.6878 3.32723 10.7407 3.65549 10.7372 3.98022C10.7301 4.75322 10.5183 5.48386 10.176 6.17567C10.1301 6.27098 10.0842 6.36275 10.0207 6.49687C11.8879 5.36738 12.4102 3.65196 12.2232 1.80595ZM5.75329 1.80242C5.54857 4.07199 6.41687 5.58622 7.92051 6.45452C7.90286 6.41216 7.89227 6.3804 7.87463 6.34863C7.32047 5.27561 7.07339 4.14965 7.32047 2.94603C7.33106 2.89661 7.31341 2.82249 7.27811 2.79072C6.82631 2.38834 6.3251 2.06361 5.75329 1.80242ZM10.4513 7.12516C11.3549 7.08633 12.2161 6.86043 12.9609 6.29921C13.695 5.74153 14.2104 5.01441 14.5951 4.17082C13.9986 4.10729 13.4268 4.14259 12.8585 4.24142C12.7385 4.2626 12.682 4.31554 12.6432 4.42849C12.4208 5.08148 12.0749 5.6674 11.5808 6.14744C11.2278 6.49335 10.8325 6.80043 10.4513 7.12516ZM7.56754 7.10398C7.54284 7.0828 7.52872 7.06868 7.51107 7.05809C6.48041 6.40157 5.70741 5.53681 5.31209 4.36143C5.29797 4.3226 5.24855 4.27671 5.2062 4.26613C4.61321 4.13906 4.01317 4.10729 3.4096 4.17082C3.85433 5.75211 6.07449 7.32635 7.56754 7.10398Z" fill="#FB6152"/>
<path d="M7.21797 11.987C7.21091 12.1741 7.04502 12.333 6.86148 12.3294C6.67793 12.3259 6.51557 12.1565 6.5191 11.9729C6.52263 11.7894 6.69205 11.627 6.8756 11.6305C7.06267 11.6341 7.22503 11.8035 7.21797 11.987Z" fill="#FB6152"/>
</svg>
