<svg width="209" height="213" viewBox="0 0 209 213" fill="none" xmlns="http://www.w3.org/2000/svg">
<g opacity="0.4">
<path d="M66.5966 10.0883C98.9261 -7.05738 140.726 2.41359 170.606 27.7239C214.528 64.6281 220.08 130.108 183.179 174.034C146.277 217.96 80.802 223.512 36.8796 186.608C19.4086 171.911 8.14224 152.806 3.08055 132.394C3.08055 132.394 -16.8396 54.1773 66.5966 10.0883Z" stroke="#DC8383" stroke-width="2" stroke-miterlimit="10" stroke-linecap="round" stroke-linejoin="round"/>
<path d="M87.9866 32.786C77.2102 28.7037 64.1477 31.3164 55.8204 39.3177C50.7588 44.2165 47.3299 50.7482 41.9416 55.3204C38.0229 58.5862 33.1245 60.709 29.6956 64.4648C23.1644 71.6496 24.1441 84.3865 31.9815 90.4283C47.0033 92.5511 62.3516 100.552 72.9649 111.33C75.5773 113.942 78.3531 117.045 82.1086 116.718C85.2109 116.555 87.4968 114.106 89.6194 111.82L107.907 91.408C110.356 88.6321 111.826 85.0396 111.989 81.2839C112.805 61.8521 105.947 39.6443 87.9866 32.786Z" stroke="#DC8383" stroke-width="2" stroke-miterlimit="10" stroke-linecap="round" stroke-linejoin="round"/>
<path d="M112.315 73.7725C113.131 68.3838 118.683 64.9547 124.071 63.8116C129.459 62.8319 135.011 63.3218 140.399 62.342C145.787 61.199 151.339 57.7698 152.155 52.3812C152.645 48.7887 150.849 45.1963 148.4 42.5836C145.787 39.9709 142.522 38.338 139.256 36.7051C130.602 32.4595 121.458 28.5404 111.825 27.3974C102.191 26.2543 91.7414 25.6012 84.2305 31.8063" stroke="#DC8383" stroke-width="2" stroke-miterlimit="10" stroke-linecap="round" stroke-linejoin="round"/>
<path d="M30.3484 90.9182C23.3273 103.818 19.4086 119.004 21.6945 133.538C22.6742 139.743 24.9601 146.111 29.6952 150.193C34.4304 154.276 41.9413 155.582 47.0029 151.826C52.2279 147.907 52.881 140.396 55.3302 134.191C58.4326 125.536 64.1474 114.106 72.8012 111.493" stroke="#DC8383" stroke-width="2" stroke-miterlimit="10" stroke-linecap="round" stroke-linejoin="round"/>
<path d="M45.207 53.3609C58.9226 52.2178 73.128 57.6065 82.5982 67.5673C92.0685 77.5282 96.8036 92.0612 95.0075 105.614C101.049 93.5308 101.865 78.5079 99.4161 65.2812C96.9669 52.0545 88.4763 40.1342 78.6795 30.8265" stroke="#DC8383" stroke-width="2" stroke-miterlimit="10" stroke-linecap="round" stroke-linejoin="round"/>
<path d="M89.293 112.309C88.15 98.103 79.986 84.713 67.9033 77.2016C55.8205 69.6901 40.1456 68.3838 26.9199 73.9357" stroke="#DC8383" stroke-width="2" stroke-miterlimit="10" stroke-linecap="round" stroke-linejoin="round"/>
<path d="M32.1445 110.677C33.1242 108.064 34.2672 105.615 35.7367 103.328" stroke="#DC8383" stroke-miterlimit="10" stroke-linecap="round" stroke-linejoin="round"/>
<path d="M34.2668 147.417C29.2051 137.783 28.0621 126.026 30.6746 115.575" stroke="#DC8383" stroke-miterlimit="10" stroke-linecap="round" stroke-linejoin="round"/>
<path d="M56.3096 82.2637C63.6572 85.0396 70.1884 89.6118 75.2501 95.6537" stroke="#DC8383" stroke-miterlimit="10" stroke-linecap="round" stroke-linejoin="round"/>
<path d="M44.3906 79.651C46.8398 79.8143 49.1258 80.3042 51.4117 80.7941" stroke="#DC8383" stroke-miterlimit="10" stroke-linecap="round" stroke-linejoin="round"/>
<path d="M32.9609 80.3041C35.2469 79.8143 37.3695 79.651 39.6554 79.4877" stroke="#DC8383" stroke-miterlimit="10" stroke-linecap="round" stroke-linejoin="round"/>
<path d="M75.25 103.818C76.5562 105.288 77.6992 106.921 78.6789 108.554" stroke="#DC8383" stroke-miterlimit="10" stroke-linecap="round" stroke-linejoin="round"/>
<path d="M54.6768 90.9182C61.0447 92.5511 66.9228 95.8169 71.8212 100.226" stroke="#DC8383" stroke-miterlimit="10" stroke-linecap="round" stroke-linejoin="round"/>
<path d="M74.7607 49.2785C81.292 53.3608 86.6802 59.5659 89.2927 66.7508" stroke="#DC8383" stroke-miterlimit="10" stroke-linecap="round" stroke-linejoin="round"/>
<path d="M62.6777 44.7064C65.1269 45.1962 67.5761 45.8494 69.8621 46.8292" stroke="#DC8383" stroke-miterlimit="10" stroke-linecap="round" stroke-linejoin="round"/>
<path d="M132.235 45.033C135.174 46.9925 138.113 49.2786 140.563 51.8912" stroke="#DC8383" stroke-miterlimit="10" stroke-linecap="round" stroke-linejoin="round"/>
<path d="M118.683 38.5012C121.785 39.481 124.724 40.7873 127.663 42.257" stroke="#DC8383" stroke-miterlimit="10" stroke-linecap="round" stroke-linejoin="round"/>
<path d="M105.457 36.0519C108.233 36.2152 111.009 36.5418 113.621 37.1949" stroke="#DC8383" stroke-miterlimit="10" stroke-linecap="round" stroke-linejoin="round"/>
<path d="M69.3721 69.3635C75.2502 72.4661 80.6384 77.0383 83.2509 83.4067" stroke="#DC8383" stroke-miterlimit="10" stroke-linecap="round" stroke-linejoin="round"/>
<path d="M58.2695 65.118C60.3922 65.6079 62.3515 66.261 64.3109 67.0775" stroke="#DC8383" stroke-miterlimit="10" stroke-linecap="round" stroke-linejoin="round"/>
<path d="M45.5332 62.5052C47.4926 62.8318 49.4519 63.1584 51.4113 63.6483" stroke="#DC8383" stroke-miterlimit="10" stroke-linecap="round" stroke-linejoin="round"/>
<path d="M121.621 182.199C132.398 186.281 145.46 183.668 153.788 175.667C158.849 170.768 162.278 164.237 167.666 159.664C171.585 156.399 176.484 154.276 179.912 150.52C186.444 143.335 185.464 130.598 177.626 124.557C162.605 122.434 147.256 114.432 136.643 103.655C134.031 101.042 131.255 97.9398 127.499 98.2664C124.397 98.4297 122.111 100.879 119.989 103.165L101.864 123.413C99.4153 126.189 97.9457 129.782 97.7825 133.538C96.8028 153.296 103.661 175.34 121.621 182.199Z" stroke="#DC8383" stroke-width="2" stroke-miterlimit="10" stroke-linecap="round" stroke-linejoin="round"/>
<path d="M97.4564 141.376C96.64 146.764 91.0885 150.193 85.7002 151.336C80.312 152.316 74.7604 151.826 69.3722 152.806C63.9839 153.949 58.4324 157.378 57.616 162.767C57.1262 166.359 58.9223 169.952 61.3715 172.565C63.9839 175.177 67.2495 176.81 70.5152 178.443C79.169 182.689 88.3127 186.608 97.9462 187.751C107.58 188.894 118.03 189.547 125.541 183.342" stroke="#DC8383" stroke-width="2" stroke-miterlimit="10" stroke-linecap="round" stroke-linejoin="round"/>
<path d="M179.26 124.23C186.281 111.33 190.199 96.1436 187.914 81.6106C186.934 75.4054 184.648 69.037 179.913 64.9547C175.178 60.8724 167.667 59.5661 162.605 63.3218C157.38 67.2408 156.727 74.7523 154.278 80.9574C151.012 89.4486 145.461 100.879 136.644 103.492" stroke="#DC8383" stroke-width="2" stroke-miterlimit="10" stroke-linecap="round" stroke-linejoin="round"/>
<path d="M164.401 161.624C150.685 162.767 136.48 157.378 127.01 147.417C117.54 137.457 112.804 122.924 114.601 109.37C108.559 121.454 107.743 136.477 110.192 149.704C112.641 162.93 121.132 174.851 130.929 184.158" stroke="#DC8383" stroke-width="2" stroke-miterlimit="10" stroke-linecap="round" stroke-linejoin="round"/>
<path d="M120.315 102.675C121.458 116.882 129.622 130.272 141.868 137.783C153.951 145.295 169.626 146.601 182.852 141.049" stroke="#DC8383" stroke-width="2" stroke-miterlimit="10" stroke-linecap="round" stroke-linejoin="round"/>
<path d="M177.463 104.308C176.484 106.921 175.341 109.37 173.871 111.656" stroke="#DC8383" stroke-miterlimit="10" stroke-linecap="round" stroke-linejoin="round"/>
<path d="M175.504 67.5674C180.566 77.2016 181.709 88.9587 179.096 99.4094" stroke="#DC8383" stroke-miterlimit="10" stroke-linecap="round" stroke-linejoin="round"/>
<path d="M153.298 132.721C145.95 129.945 139.419 125.373 134.357 119.331" stroke="#DC8383" stroke-miterlimit="10" stroke-linecap="round" stroke-linejoin="round"/>
<path d="M165.217 135.334C162.768 135.171 160.482 134.681 158.196 134.191" stroke="#DC8383" stroke-miterlimit="10" stroke-linecap="round" stroke-linejoin="round"/>
<path d="M176.811 134.681C174.525 135.17 172.402 135.334 170.116 135.497" stroke="#DC8383" stroke-miterlimit="10" stroke-linecap="round" stroke-linejoin="round"/>
<path d="M134.358 111.33C133.051 109.86 131.908 108.227 130.929 106.594" stroke="#DC8383" stroke-miterlimit="10" stroke-linecap="round" stroke-linejoin="round"/>
<path d="M155.095 124.23C148.727 122.597 142.849 119.331 137.95 114.922" stroke="#DC8383" stroke-miterlimit="10" stroke-linecap="round" stroke-linejoin="round"/>
<path d="M135.01 165.706C128.479 161.624 123.091 155.419 120.479 148.234" stroke="#DC8383" stroke-miterlimit="10" stroke-linecap="round" stroke-linejoin="round"/>
<path d="M146.93 170.278C144.481 169.789 142.032 169.135 139.746 168.156" stroke="#DC8383" stroke-miterlimit="10" stroke-linecap="round" stroke-linejoin="round"/>
<path d="M77.3732 170.115C74.4341 168.156 71.4951 165.87 69.0459 163.257" stroke="#DC8383" stroke-miterlimit="10" stroke-linecap="round" stroke-linejoin="round"/>
<path d="M91.0888 176.483C87.9865 175.504 85.0474 174.197 82.1084 172.728" stroke="#DC8383" stroke-miterlimit="10" stroke-linecap="round" stroke-linejoin="round"/>
<path d="M104.15 178.933C101.375 178.77 98.5988 178.443 95.9863 177.79" stroke="#DC8383" stroke-miterlimit="10" stroke-linecap="round" stroke-linejoin="round"/>
<path d="M140.236 145.621C134.358 142.519 128.97 137.946 126.357 131.578" stroke="#DC8383" stroke-miterlimit="10" stroke-linecap="round" stroke-linejoin="round"/>
<path d="M151.339 149.867C149.217 149.377 147.257 148.724 145.298 147.907" stroke="#DC8383" stroke-miterlimit="10" stroke-linecap="round" stroke-linejoin="round"/>
<path d="M164.237 152.48C162.278 152.153 160.319 151.826 158.359 151.336" stroke="#DC8383" stroke-miterlimit="10" stroke-linecap="round" stroke-linejoin="round"/>
<path d="M11.7344 134.517C11.0812 131.415 10.4281 128.476 10.1016 125.373" stroke="#DC8383" stroke-miterlimit="10" stroke-linecap="round" stroke-linejoin="round"/>
<path d="M16.6326 148.887C15.4896 146.274 14.51 143.498 13.5303 140.886" stroke="#DC8383" stroke-miterlimit="10" stroke-linecap="round" stroke-linejoin="round"/>
<path d="M68.5559 198.038C47.1662 190.363 29.3687 174.034 19.082 153.949" stroke="#DC8383" stroke-miterlimit="10" stroke-linecap="round" stroke-linejoin="round"/>
<path d="M190.036 152.316C191.179 150.03 192.322 147.744 193.138 145.295" stroke="#DC8383" stroke-miterlimit="10" stroke-linecap="round" stroke-linejoin="round"/>
<path d="M182.362 164.89C184.158 162.44 185.791 159.991 187.261 157.542" stroke="#DC8383" stroke-miterlimit="10" stroke-linecap="round" stroke-linejoin="round"/>
<path d="M135.664 198.038C152.482 192.976 167.504 182.852 178.77 169.462" stroke="#DC8383" stroke-miterlimit="10" stroke-linecap="round" stroke-linejoin="round"/>
<path d="M129.949 14.1707C127.01 13.1909 124.071 12.2111 121.132 11.3947" stroke="#DC8383" stroke-miterlimit="10" stroke-linecap="round" stroke-linejoin="round"/>
<path d="M144.318 20.3758C141.542 18.9062 138.603 17.5998 135.827 16.2935" stroke="#DC8383" stroke-miterlimit="10" stroke-linecap="round" stroke-linejoin="round"/>
<path d="M177.3 47.8089C169.789 38.5012 160.809 30.4999 150.686 24.1315" stroke="#DC8383" stroke-miterlimit="10" stroke-linecap="round" stroke-linejoin="round"/>
<path d="M82.7617 13.1909C85.2109 12.3744 87.6601 11.5579 90.2726 10.9048" stroke="#DC8383" stroke-miterlimit="10" stroke-linecap="round" stroke-linejoin="round"/>
<path d="M70.8418 18.2529C72.6379 17.4365 74.434 16.62 76.3933 15.8036" stroke="#DC8383" stroke-miterlimit="10" stroke-linecap="round" stroke-linejoin="round"/>
<path d="M16.1426 71.1597C27.0824 49.9317 44.5533 32.2961 65.4532 20.8656" stroke="#DC8383" stroke-miterlimit="10" stroke-linecap="round" stroke-linejoin="round"/>
</g>
</svg>
