<svg width="314" height="315" viewBox="0 0 314 315" fill="none" xmlns="http://www.w3.org/2000/svg">
<g opacity="0.5">
<path d="M234.696 235.281C277.569 192.408 277.569 122.897 234.696 80.0237C191.822 37.1505 122.311 37.1505 79.4379 80.0237C36.5647 122.897 36.5647 192.408 79.4379 235.281C122.311 278.155 191.822 278.155 234.696 235.281Z" stroke="#9ADC83" stroke-width="2" stroke-miterlimit="10" stroke-linecap="round" stroke-linejoin="round"/>
<path d="M89.0483 168.95C86.8934 156.02 88.5695 142.97 93.3583 131.238" stroke="#9ADC83" stroke-width="2" stroke-miterlimit="10" stroke-linecap="round" stroke-linejoin="round"/>
<path d="M110.359 208.338C102.457 201.634 98.0273 195.049 93.7173 184.873" stroke="#9ADC83" stroke-width="2" stroke-miterlimit="10" stroke-linecap="round" stroke-linejoin="round"/>
<path d="M166.388 226.297C157.888 227.733 149.507 227.614 141.127 225.459" stroke="#9ADC83" stroke-width="2" stroke-miterlimit="10" stroke-linecap="round" stroke-linejoin="round"/>
<path d="M224.094 173.499C218.946 195.049 203.502 213.846 181.234 222.226" stroke="#9ADC83" stroke-width="2" stroke-miterlimit="10" stroke-linecap="round" stroke-linejoin="round"/>
<path d="M224.932 146.203C225.291 148.478 225.411 150.154 225.65 152.428" stroke="#9ADC83" stroke-width="2" stroke-miterlimit="10" stroke-linecap="round" stroke-linejoin="round"/>
<path d="M164.233 89.0956C177.762 90.5322 190.572 95.9197 200.988 104.54" stroke="#9ADC83" stroke-width="2" stroke-miterlimit="10" stroke-linecap="round" stroke-linejoin="round"/>
<path d="M173.811 145.844C142.923 138.9 111.796 133.393 80.5482 129.561C76.4776 129.083 75.041 123.815 78.3932 121.42C97.6684 107.054 117.303 93.2858 138.493 82.032C140.409 80.9545 142.803 81.5531 144.12 83.2292C158.487 101.068 168.663 119.265 178.84 139.379C180.635 142.851 177.523 146.801 173.811 145.844Z" stroke="#9ADC83" stroke-width="2" stroke-miterlimit="10" stroke-linecap="round" stroke-linejoin="round"/>
<path d="M89.0483 113.519C101.859 96.9972 115.148 80.8348 130.113 66.3485C131.669 64.7921 134.064 64.6724 135.86 65.8696C154.536 78.9192 169.382 93.645 184.826 110.047C187.46 112.8 185.664 117.47 181.833 117.709C177.163 117.949 172.494 118.308 167.825 118.667" stroke="#9ADC83" stroke-width="2" stroke-miterlimit="10" stroke-linecap="round" stroke-linejoin="round"/>
<path d="M82.1045 129.442C82.3439 126.209 85.2173 123.815 87.9709 121.899C103.056 111.005 119.817 99.2719 136.099 89.6942C138.134 88.497 140.768 89.0956 141.965 91.0111C151.543 105.617 159.804 121.301 169.621 135.667C171.776 138.78 173.931 142.013 175.248 145.484" stroke="#9ADC83" stroke-width="2" stroke-miterlimit="10" stroke-linecap="round" stroke-linejoin="round"/>
<path d="M105.091 101.786C112.154 94.6027 125.444 80.715 131.31 74.6092C132.866 72.9331 135.5 72.8134 137.296 74.3698C146.634 82.7503 174.529 107.772 183.509 116.991" stroke="#9ADC83" stroke-width="2" stroke-miterlimit="10" stroke-linecap="round" stroke-linejoin="round"/>
<path d="M142.052 197.195C150.701 194.498 155.525 185.302 152.829 176.653C150.132 168.005 140.935 163.181 132.287 165.877C123.639 168.574 118.814 177.771 121.511 186.419C124.207 195.067 133.404 199.892 142.052 197.195Z" stroke="#9ADC83" stroke-width="2" stroke-miterlimit="10" stroke-linecap="round" stroke-linejoin="round"/>
<path d="M141.127 225.339C146.395 223.663 151.662 220.071 157.05 221.268C161.36 222.226 164.592 226.177 168.902 226.895C172.015 227.374 175.128 226.177 177.642 224.381C180.156 222.465 182.072 220.071 183.987 217.557C187.1 213.486 190.333 209.416 193.445 205.345C194.762 203.549 196.199 201.634 196.319 199.479C196.558 194.81 191.171 192.056 188.297 188.225C183.748 182 186.142 172.661 181.713 166.316C179.198 162.724 174.888 160.689 171.536 157.816C168.184 154.942 165.909 149.675 168.543 146.083" stroke="#9ADC83" stroke-width="2" stroke-miterlimit="10" stroke-linecap="round" stroke-linejoin="round"/>
<path d="M110.359 208.338C111.077 210.493 111.915 212.529 112.993 214.444C118.38 223.902 130.712 228.691 141.127 225.339" stroke="#9ADC83" stroke-width="2" stroke-miterlimit="10" stroke-linecap="round" stroke-linejoin="round"/>
<path d="M94.1963 184.753C97.1893 187.028 100.542 188.943 103.056 191.817C107.126 196.366 108.323 202.592 110.359 208.458" stroke="#9ADC83" stroke-width="2" stroke-miterlimit="10" stroke-linecap="round" stroke-linejoin="round"/>
<path d="M105.69 132.674C101.619 133.752 99.3445 138.301 98.6262 142.491C97.9078 146.682 98.267 151.111 96.9501 155.182C95.7529 158.774 93.2387 161.767 91.0837 164.999C89.0484 168.232 87.2526 171.943 87.8512 175.654C88.4498 179.366 91.3232 182.359 94.3162 184.753" stroke="#9ADC83" stroke-width="2" stroke-miterlimit="10" stroke-linecap="round" stroke-linejoin="round"/>
<path d="M133.465 173.38C132.747 172.661 131.31 172.661 130.592 173.499C129.874 174.337 130.113 175.654 130.951 176.253C131.789 176.852 133.226 176.253 133.465 175.295C133.705 174.218 132.747 173.14 131.669 173.26" stroke="#9ADC83" stroke-miterlimit="10" stroke-linecap="round" stroke-linejoin="round"/>
<path d="M141.247 175.894C141.726 173.859 144 172.422 146.036 172.901C148.071 173.38 149.507 175.654 149.029 177.69C148.55 179.725 146.275 181.162 144.24 180.802C142.324 180.324 140.768 178.049 141.247 175.894Z" stroke="#9ADC83" stroke-miterlimit="10" stroke-linecap="round" stroke-linejoin="round"/>
<path d="M110.598 139.977C108.802 140.935 107.725 142.731 107.126 144.646C106.528 146.562 106.408 148.597 106.049 150.513C104.852 157.816 101.26 164.64 95.8726 169.668" stroke="#9ADC83" stroke-miterlimit="10" stroke-linecap="round" stroke-linejoin="round"/>
<path d="M103.654 183.436C108.084 185.831 110.838 190.26 112.873 194.93C114.908 199.479 116.225 204.388 118.62 208.817C121.014 213.247 124.606 217.318 129.394 218.634C135.021 220.191 141.007 217.677 146.275 215.282" stroke="#9ADC83" stroke-miterlimit="10" stroke-linecap="round" stroke-linejoin="round"/>
<path d="M169.262 164.999C173.452 166.077 176.206 169.908 177.762 173.859C179.318 177.809 179.797 182.119 181.354 186.19C182.91 190.141 185.664 194.092 189.854 195.169" stroke="#9ADC83" stroke-miterlimit="10" stroke-linecap="round" stroke-linejoin="round"/>
<path d="M121.493 165.119C127 159.372 135.979 157.097 143.521 159.612C151.064 162.126 156.93 169.429 157.768 177.33" stroke="#9ADC83" stroke-miterlimit="10" stroke-linecap="round" stroke-linejoin="round"/>
<path d="M150.705 196.845C144.48 201.873 135.74 203.669 128.078 201.514" stroke="#9ADC83" stroke-miterlimit="10" stroke-linecap="round" stroke-linejoin="round"/>
<path d="M129.035 99.5113C130.592 98.4338 132.028 97.3563 133.585 96.3986" stroke="#9ADC83" stroke-miterlimit="10" stroke-linecap="round" stroke-linejoin="round"/>
<path d="M120.774 105.378C121.972 104.54 123.289 103.582 124.486 102.744" stroke="#9ADC83" stroke-miterlimit="10" stroke-linecap="round" stroke-linejoin="round"/>
<path d="M92.041 125.371C100.062 119.744 108.084 114.117 116.225 108.49" stroke="#9ADC83" stroke-miterlimit="10" stroke-linecap="round" stroke-linejoin="round"/>
<path d="M139.93 134.231C148.909 135.907 157.888 137.583 166.987 139.259" stroke="#9ADC83" stroke-miterlimit="10" stroke-linecap="round" stroke-linejoin="round"/>
<path d="M127.239 131.836C129.394 132.195 131.43 132.674 133.585 133.033" stroke="#9ADC83" stroke-miterlimit="10" stroke-linecap="round" stroke-linejoin="round"/>
<path d="M116.464 129.801C118.26 130.16 120.056 130.519 121.852 130.759" stroke="#9ADC83" stroke-miterlimit="10" stroke-linecap="round" stroke-linejoin="round"/>
<path d="M128.916 67.6654C130.352 68.1443 131.669 68.7429 133.106 69.2218" stroke="#9ADC83" stroke-miterlimit="10" stroke-linecap="round" stroke-linejoin="round"/>
<path d="M125.683 71.1373C127 71.4965 128.197 71.8557 129.514 72.2148" stroke="#9ADC83" stroke-miterlimit="10" stroke-linecap="round" stroke-linejoin="round"/>
<path d="M122.211 74.6093C123.528 75.0881 124.845 75.6867 126.162 76.1656" stroke="#9ADC83" stroke-miterlimit="10" stroke-linecap="round" stroke-linejoin="round"/>
<path d="M118.62 78.2009C120.056 78.5601 121.493 78.7995 122.93 79.1587" stroke="#9ADC83" stroke-miterlimit="10" stroke-linecap="round" stroke-linejoin="round"/>
<path d="M115.507 81.3137C116.465 81.9123 117.662 82.1517 118.859 82.032" stroke="#9ADC83" stroke-miterlimit="10" stroke-linecap="round" stroke-linejoin="round"/>
<path d="M112.274 84.5461C112.035 84.5461 111.915 84.9053 112.154 85.025C113.471 85.2645 114.788 85.3842 116.105 85.6236" stroke="#9ADC83" stroke-miterlimit="10" stroke-linecap="round" stroke-linejoin="round"/>
<path d="M110 88.0181C110.838 89.0956 112.394 89.6942 113.711 89.2153" stroke="#9ADC83" stroke-miterlimit="10" stroke-linecap="round" stroke-linejoin="round"/>
<path d="M106.288 92.6872C107.725 92.9266 109.042 93.1661 110.478 93.4055" stroke="#9ADC83" stroke-miterlimit="10" stroke-linecap="round" stroke-linejoin="round"/>
<path d="M103.175 95.5605C104.373 95.8 105.57 95.9197 106.767 96.1592" stroke="#9ADC83" stroke-miterlimit="10" stroke-linecap="round" stroke-linejoin="round"/>
<path d="M100.661 98.4338C101.379 98.9127 102.218 99.0324 103.056 98.6733" stroke="#9ADC83" stroke-miterlimit="10" stroke-linecap="round" stroke-linejoin="round"/>
<path d="M98.147 101.307C98.6259 101.906 99.4639 102.026 100.063 101.666" stroke="#9ADC83" stroke-miterlimit="10" stroke-linecap="round" stroke-linejoin="round"/>
<path d="M136.937 83.4687C138.374 83.9476 139.81 84.4265 141.247 84.9053" stroke="#9ADC83" stroke-miterlimit="10" stroke-linecap="round" stroke-linejoin="round"/>
<path d="M133.226 85.3842C134.423 85.7434 135.62 85.9828 136.817 86.342" stroke="#9ADC83" stroke-miterlimit="10" stroke-linecap="round" stroke-linejoin="round"/>
<path d="M129.395 88.0181C130.472 88.497 131.669 88.6167 132.866 88.7364" stroke="#9ADC83" stroke-miterlimit="10" stroke-linecap="round" stroke-linejoin="round"/>
<path d="M125.563 90.1731C125.324 90.2928 125.204 90.4125 124.965 90.5323C126.162 90.2928 127.24 90.4125 128.437 90.652" stroke="#9ADC83" stroke-miterlimit="10" stroke-linecap="round" stroke-linejoin="round"/>
<path d="M119.937 92.9266C121.493 93.1661 123.049 93.2858 124.606 93.5252" stroke="#9ADC83" stroke-miterlimit="10" stroke-linecap="round" stroke-linejoin="round"/>
<path d="M116.824 95.5605C117.901 95.6803 118.979 95.8 120.176 95.8" stroke="#9ADC83" stroke-miterlimit="10" stroke-linecap="round" stroke-linejoin="round"/>
<path d="M112.633 98.0747C113.711 98.1944 114.788 98.3141 115.986 98.4339" stroke="#9ADC83" stroke-miterlimit="10" stroke-linecap="round" stroke-linejoin="round"/>
<path d="M108.443 100.349C109.521 100.469 110.598 100.589 111.796 100.709" stroke="#9ADC83" stroke-miterlimit="10" stroke-linecap="round" stroke-linejoin="round"/>
<path d="M103.894 103.342C105.21 103.582 106.647 103.702 107.964 103.941" stroke="#9ADC83" stroke-miterlimit="10" stroke-linecap="round" stroke-linejoin="round"/>
<path d="M99.9429 105.737C101.26 105.976 102.577 106.216 103.894 106.335" stroke="#9ADC83" stroke-miterlimit="10" stroke-linecap="round" stroke-linejoin="round"/>
<path d="M97.0693 108.49C98.3863 108.61 99.5835 108.73 100.9 108.85" stroke="#9ADC83" stroke-miterlimit="10" stroke-linecap="round" stroke-linejoin="round"/>
<path d="M92.999 110.765C94.316 110.885 95.6329 111.124 96.9498 111.244" stroke="#9ADC83" stroke-miterlimit="10" stroke-linecap="round" stroke-linejoin="round"/>
<path d="M90.1255 113.04C91.203 113.16 92.4002 113.399 93.4777 113.519" stroke="#9ADC83" stroke-miterlimit="10" stroke-linecap="round" stroke-linejoin="round"/>
<path d="M87.3721 115.554C88.5693 115.674 89.7665 115.674 90.9637 115.793" stroke="#9ADC83" stroke-miterlimit="10" stroke-linecap="round" stroke-linejoin="round"/>
<path d="M82.583 118.308C83.8999 118.308 85.3366 118.308 86.6535 118.308" stroke="#9ADC83" stroke-miterlimit="10" stroke-linecap="round" stroke-linejoin="round"/>
<path d="M80.0693 120.822C81.3863 120.822 82.7032 120.822 84.0201 120.941" stroke="#9ADC83" stroke-miterlimit="10" stroke-linecap="round" stroke-linejoin="round"/>
<path d="M202.185 130.878C198.713 129.561 195.72 126.688 194.284 122.857C191.65 115.793 195.242 107.772 202.305 105.138C209.369 102.504 217.39 106.096 220.024 113.16C221.7 117.589 220.862 122.378 218.348 125.97" stroke="#9ADC83" stroke-width="2" stroke-miterlimit="10" stroke-linecap="round" stroke-linejoin="round"/>
<path d="M204.34 128.364C204.101 128.245 203.981 128.125 203.742 128.005C202.904 127.406 202.305 126.449 202.425 125.491C202.664 124.054 204.101 123.216 205.538 122.857C206.974 122.498 208.411 122.378 209.488 121.42C210.925 120.223 211.045 117.709 209.728 116.272C208.531 114.836 206.136 114.596 204.58 115.434C202.544 116.512 200.988 118.427 198.833 116.512C197.277 115.195 197.396 113.279 198.354 111.603C200.749 107.892 206.256 106.335 210.326 107.652C215.235 109.209 218.587 114.716 217.629 119.864C217.27 121.66 216.432 123.336 215.235 124.773" stroke="#9ADC83" stroke-miterlimit="10" stroke-linecap="round" stroke-linejoin="round"/>
<path d="M205.178 117.11C206.016 117.47 206.854 117.829 207.812 118.188" stroke="#9ADC83" stroke-miterlimit="10" stroke-linecap="round" stroke-linejoin="round"/>
<path d="M202.544 118.188C203.622 118.547 204.58 118.906 205.657 119.265" stroke="#9ADC83" stroke-miterlimit="10" stroke-linecap="round" stroke-linejoin="round"/>
<path d="M200.509 119.744C201.467 120.343 202.545 120.702 203.622 120.702C203.263 120.702 202.784 120.702 202.425 120.702" stroke="#9ADC83" stroke-miterlimit="10" stroke-linecap="round" stroke-linejoin="round"/>
<path d="M195.96 119.744C197.516 120.582 199.073 121.42 200.629 122.139" stroke="#9ADC83" stroke-miterlimit="10" stroke-linecap="round" stroke-linejoin="round"/>
<path d="M193.925 116.392C195.361 117.23 196.678 118.068 198.115 118.787" stroke="#9ADC83" stroke-miterlimit="10" stroke-linecap="round" stroke-linejoin="round"/>
<path d="M200.15 112.8C201.227 113.279 202.305 113.758 203.382 114.237" stroke="#9ADC83" stroke-miterlimit="10" stroke-linecap="round" stroke-linejoin="round"/>
<path d="M202.544 110.885C203.742 110.885 205.059 111.244 206.016 111.962" stroke="#9ADC83" stroke-miterlimit="10" stroke-linecap="round" stroke-linejoin="round"/>
<path d="M207.573 110.286C208.77 110.885 210.087 111.603 211.284 112.202" stroke="#9ADC83" stroke-miterlimit="10" stroke-linecap="round" stroke-linejoin="round"/>
<path d="M211.763 115.195C212.482 115.793 213.32 116.392 214.038 117.11" stroke="#9ADC83" stroke-miterlimit="10" stroke-linecap="round" stroke-linejoin="round"/>
<path d="M212.002 120.223C212.84 120.822 213.679 121.301 214.397 121.899" stroke="#9ADC83" stroke-miterlimit="10" stroke-linecap="round" stroke-linejoin="round"/>
<path d="M209.481 153.574C211.124 146.149 206.436 138.799 199.012 137.157C191.588 135.514 184.237 140.201 182.595 147.626C180.953 155.05 185.64 162.4 193.064 164.043C200.489 165.685 207.839 160.998 209.481 153.574Z" stroke="#9ADC83" stroke-width="2" stroke-miterlimit="10" stroke-linecap="round" stroke-linejoin="round"/>
<path d="M199.192 140.456C204.101 142.013 207.453 147.52 206.495 152.668C205.537 157.696 200.629 161.767 195.481 161.527C194.523 161.527 193.445 161.288 192.607 160.689C191.769 160.091 191.171 159.133 191.29 158.175C191.53 156.738 192.967 155.9 194.403 155.541C195.84 155.182 197.277 155.062 198.354 154.104C199.791 152.907 199.91 150.393 198.593 148.956C197.396 147.52 195.002 147.28 193.445 148.118C191.41 149.196 189.854 151.111 187.699 149.196C186.142 147.879 186.262 145.963 187.22 144.287C189.614 140.576 195.122 139.139 199.192 140.456Z" stroke="#9ADC83" stroke-miterlimit="10" stroke-linecap="round" stroke-linejoin="round"/>
<path d="M194.044 149.675C194.882 150.034 195.721 150.393 196.678 150.752" stroke="#9ADC83" stroke-miterlimit="10" stroke-linecap="round" stroke-linejoin="round"/>
<path d="M191.291 150.872C192.368 151.231 193.326 151.59 194.403 151.95" stroke="#9ADC83" stroke-miterlimit="10" stroke-linecap="round" stroke-linejoin="round"/>
<path d="M189.375 152.428C190.333 153.027 191.41 153.386 192.488 153.386C192.129 153.386 191.65 153.386 191.291 153.386" stroke="#9ADC83" stroke-miterlimit="10" stroke-linecap="round" stroke-linejoin="round"/>
<path d="M184.826 152.428C186.382 153.266 187.938 154.104 189.495 154.823" stroke="#9ADC83" stroke-miterlimit="10" stroke-linecap="round" stroke-linejoin="round"/>
<path d="M182.791 148.957C184.227 149.795 185.544 150.633 186.981 151.351" stroke="#9ADC83" stroke-miterlimit="10" stroke-linecap="round" stroke-linejoin="round"/>
<path d="M188.896 145.365C189.974 145.844 191.051 146.323 192.129 146.801" stroke="#9ADC83" stroke-miterlimit="10" stroke-linecap="round" stroke-linejoin="round"/>
<path d="M191.41 143.569C192.607 143.569 193.924 143.928 194.882 144.646" stroke="#9ADC83" stroke-miterlimit="10" stroke-linecap="round" stroke-linejoin="round"/>
<path d="M196.438 142.97C197.636 143.569 198.953 144.287 200.15 144.886" stroke="#9ADC83" stroke-miterlimit="10" stroke-linecap="round" stroke-linejoin="round"/>
<path d="M200.509 147.759C201.228 148.358 202.066 148.956 202.784 149.675" stroke="#9ADC83" stroke-miterlimit="10" stroke-linecap="round" stroke-linejoin="round"/>
<path d="M200.749 152.788C201.587 153.386 202.425 153.865 203.143 154.464" stroke="#9ADC83" stroke-miterlimit="10" stroke-linecap="round" stroke-linejoin="round"/>
<path d="M198.953 155.9C199.671 156.379 200.509 156.738 201.228 157.217" stroke="#9ADC83" stroke-miterlimit="10" stroke-linecap="round" stroke-linejoin="round"/>
<path d="M194.882 158.055C195.601 158.774 196.558 159.253 197.636 159.372" stroke="#9ADC83" stroke-miterlimit="10" stroke-linecap="round" stroke-linejoin="round"/>
<path d="M199.791 136.625C200.629 131.956 203.742 127.766 208.531 126.09C215.594 123.456 223.616 127.047 226.25 134.111C228.405 139.858 226.489 146.083 221.94 149.675" stroke="#9ADC83" stroke-width="2" stroke-miterlimit="10" stroke-linecap="round" stroke-linejoin="round"/>
<path d="M209.009 145.484C209.608 144.646 210.686 144.048 211.763 143.808C213.2 143.449 214.636 143.329 215.714 142.372C217.151 141.174 217.27 138.66 215.953 137.224C214.756 135.787 212.362 135.548 210.805 136.386C208.77 137.463 207.214 139.379 205.059 137.463C203.502 136.146 203.622 134.231 204.58 132.555C206.974 128.843 212.481 127.287 216.552 128.604C221.461 130.16 224.813 135.667 223.855 140.815C223.256 143.808 221.341 146.442 218.707 148.118" stroke="#9ADC83" stroke-miterlimit="10" stroke-linecap="round" stroke-linejoin="round"/>
<path d="M211.284 138.062C212.122 138.421 212.96 138.78 213.918 139.139" stroke="#9ADC83" stroke-miterlimit="10" stroke-linecap="round" stroke-linejoin="round"/>
<path d="M208.65 139.259C209.728 139.618 210.686 139.977 211.763 140.336" stroke="#9ADC83" stroke-miterlimit="10" stroke-linecap="round" stroke-linejoin="round"/>
<path d="M206.256 133.752C207.333 134.231 208.411 134.709 209.488 135.188" stroke="#9ADC83" stroke-miterlimit="10" stroke-linecap="round" stroke-linejoin="round"/>
<path d="M208.65 131.956C209.848 131.956 211.165 132.315 212.122 133.033" stroke="#9ADC83" stroke-miterlimit="10" stroke-linecap="round" stroke-linejoin="round"/>
<path d="M213.798 131.238C214.996 131.836 216.313 132.555 217.51 133.153" stroke="#9ADC83" stroke-miterlimit="10" stroke-linecap="round" stroke-linejoin="round"/>
<path d="M217.869 136.146C218.587 136.745 219.426 137.343 220.144 138.062" stroke="#9ADC83" stroke-miterlimit="10" stroke-linecap="round" stroke-linejoin="round"/>
<path d="M218.108 141.174C218.946 141.773 219.785 142.252 220.503 142.851" stroke="#9ADC83" stroke-miterlimit="10" stroke-linecap="round" stroke-linejoin="round"/>
<path d="M216.312 144.167C217.031 144.646 217.869 145.006 218.587 145.484" stroke="#9ADC83" stroke-miterlimit="10" stroke-linecap="round" stroke-linejoin="round"/>
<path d="M225.651 152.428C226.848 153.745 227.925 155.302 228.524 157.098C231.158 164.161 227.566 172.182 220.503 174.816C213.439 177.45 205.418 173.859 202.784 166.795C202.305 165.598 202.066 164.401 201.946 163.203" stroke="#9ADC83" stroke-width="2" stroke-miterlimit="10" stroke-linecap="round" stroke-linejoin="round"/>
<path d="M209.728 149.435C210.087 149.316 210.446 149.196 210.805 148.956C216.193 146.921 221.939 148.478 225.651 152.428" stroke="#9ADC83" stroke-width="2" stroke-miterlimit="10" stroke-linecap="round" stroke-linejoin="round"/>
<path d="M209.847 152.788C212.481 151.231 216.073 150.752 218.826 151.71C223.735 153.266 227.087 158.774 226.129 163.922C225.172 168.95 220.263 173.02 215.115 172.781C214.157 172.781 213.08 172.542 212.242 171.943C211.404 171.344 210.805 170.387 210.925 169.429C211.164 167.992 212.601 167.154 214.038 166.795C215.474 166.436 216.911 166.316 217.988 165.358C219.425 164.161 219.545 161.647 218.228 160.21C216.911 158.774 214.636 158.534 213.08 159.372C211.045 160.45 209.488 162.365 207.333 160.45C206.974 160.21 206.735 159.851 206.495 159.492" stroke="#9ADC83" stroke-miterlimit="10" stroke-linecap="round" stroke-linejoin="round"/>
<path d="M213.559 161.048C214.397 161.408 215.235 161.767 216.192 162.126" stroke="#9ADC83" stroke-miterlimit="10" stroke-linecap="round" stroke-linejoin="round"/>
<path d="M210.925 162.246C212.002 162.605 212.96 162.964 214.038 163.323" stroke="#9ADC83" stroke-miterlimit="10" stroke-linecap="round" stroke-linejoin="round"/>
<path d="M208.89 163.682C209.847 164.281 210.925 164.64 212.002 164.64C211.643 164.64 211.164 164.64 210.805 164.64" stroke="#9ADC83" stroke-miterlimit="10" stroke-linecap="round" stroke-linejoin="round"/>
<path d="M210.925 154.943C212.122 154.943 213.439 155.302 214.397 156.02" stroke="#9ADC83" stroke-miterlimit="10" stroke-linecap="round" stroke-linejoin="round"/>
<path d="M215.953 154.224C217.15 154.823 218.467 155.541 219.665 156.14" stroke="#9ADC83" stroke-miterlimit="10" stroke-linecap="round" stroke-linejoin="round"/>
<path d="M220.144 159.133C220.862 159.731 221.7 160.33 222.418 161.048" stroke="#9ADC83" stroke-miterlimit="10" stroke-linecap="round" stroke-linejoin="round"/>
<path d="M220.383 164.161C221.221 164.76 222.059 165.239 222.777 165.837" stroke="#9ADC83" stroke-miterlimit="10" stroke-linecap="round" stroke-linejoin="round"/>
<path d="M218.587 167.154C219.305 167.633 220.143 167.992 220.862 168.471" stroke="#9ADC83" stroke-miterlimit="10" stroke-linecap="round" stroke-linejoin="round"/>
<path d="M214.517 169.429C215.235 170.147 216.193 170.626 217.27 170.746" stroke="#9ADC83" stroke-miterlimit="10" stroke-linecap="round" stroke-linejoin="round"/>
<path d="M184.347 173.739C185.185 169.908 187.819 166.436 191.53 164.52" stroke="#9ADC83" stroke-width="2" stroke-miterlimit="10" stroke-linecap="round" stroke-linejoin="round"/>
<path d="M211.643 175.175C212.601 181.521 208.889 187.507 202.664 189.782C196.678 192.056 190.093 189.782 186.621 184.873" stroke="#9ADC83" stroke-width="2" stroke-miterlimit="10" stroke-linecap="round" stroke-linejoin="round"/>
<path d="M207.932 173.739C208.411 175.415 208.65 177.091 208.291 178.767C207.333 183.795 202.425 187.866 197.277 187.627C196.319 187.627 195.241 187.387 194.403 186.788C193.565 186.19 192.967 185.232 193.086 184.274C193.326 182.838 194.762 182 196.199 181.64C197.636 181.281 199.072 181.162 200.15 180.204C201.587 179.007 201.706 176.492 200.389 175.056C199.072 173.619 196.798 173.38 195.241 174.218C193.206 175.295 191.65 177.211 189.495 175.295C187.938 173.978 188.058 172.063 189.016 170.387C191.41 166.675 196.917 165.119 200.988 166.436C201.587 166.675 202.185 166.915 202.784 167.274" stroke="#9ADC83" stroke-miterlimit="10" stroke-linecap="round" stroke-linejoin="round"/>
<path d="M195.72 175.894C196.558 176.253 197.396 176.612 198.354 176.971" stroke="#9ADC83" stroke-miterlimit="10" stroke-linecap="round" stroke-linejoin="round"/>
<path d="M193.086 177.091C194.164 177.45 195.122 177.809 196.199 178.169" stroke="#9ADC83" stroke-miterlimit="10" stroke-linecap="round" stroke-linejoin="round"/>
<path d="M191.171 178.528C192.129 179.126 193.206 179.485 194.284 179.485C193.924 179.485 193.446 179.485 193.086 179.485" stroke="#9ADC83" stroke-miterlimit="10" stroke-linecap="round" stroke-linejoin="round"/>
<path d="M186.621 178.528C188.177 179.366 189.734 180.204 191.29 180.922" stroke="#9ADC83" stroke-miterlimit="10" stroke-linecap="round" stroke-linejoin="round"/>
<path d="M184.586 175.175C186.023 176.014 187.34 176.852 188.776 177.57" stroke="#9ADC83" stroke-miterlimit="10" stroke-linecap="round" stroke-linejoin="round"/>
<path d="M190.692 171.584C191.769 172.063 192.847 172.542 193.924 173.021" stroke="#9ADC83" stroke-miterlimit="10" stroke-linecap="round" stroke-linejoin="round"/>
<path d="M193.086 169.788C194.284 169.788 195.601 170.147 196.558 170.866" stroke="#9ADC83" stroke-miterlimit="10" stroke-linecap="round" stroke-linejoin="round"/>
<path d="M198.234 169.07C199.432 169.668 200.749 170.387 201.946 170.985" stroke="#9ADC83" stroke-miterlimit="10" stroke-linecap="round" stroke-linejoin="round"/>
<path d="M202.305 173.978C203.023 174.577 203.861 175.175 204.579 175.894" stroke="#9ADC83" stroke-miterlimit="10" stroke-linecap="round" stroke-linejoin="round"/>
<path d="M202.544 179.007C203.382 179.605 204.221 180.084 204.939 180.683" stroke="#9ADC83" stroke-miterlimit="10" stroke-linecap="round" stroke-linejoin="round"/>
<path d="M200.749 182.119C201.467 182.598 202.305 182.957 203.023 183.436" stroke="#9ADC83" stroke-miterlimit="10" stroke-linecap="round" stroke-linejoin="round"/>
<path d="M196.678 184.274C197.396 184.993 198.354 185.472 199.431 185.591" stroke="#9ADC83" stroke-miterlimit="10" stroke-linecap="round" stroke-linejoin="round"/>
</g>
</svg>
