<svg width="14" height="18" viewBox="0 0 14 18" fill="none" xmlns="http://www.w3.org/2000/svg">
<path d="M1.48128 5.81116C1.48128 5.71923 1.48128 5.64665 1.48128 5.57407C1.48128 3.85636 1.48128 2.13866 1.48128 0.420958C1.48128 0.0870948 1.56353 0.0048386 1.8974 0.0048386C4.51992 0.0048386 7.14728 0.0048386 9.7698 0C9.94883 0 10.0795 0.0532246 10.2004 0.179028C10.9166 0.89998 11.6278 1.61125 12.3488 2.32253C12.4697 2.44349 12.5181 2.5693 12.5181 2.73865C12.5133 3.68701 12.5133 4.63538 12.5133 5.58858C12.5133 5.65632 12.5133 5.71923 12.5133 5.81116C12.6052 5.81116 12.6875 5.81116 12.7697 5.81116C12.973 5.816 13.0891 5.92245 13.0891 6.12083C13.0939 6.78372 13.0939 7.45145 13.0891 8.11433C13.0891 8.30304 12.973 8.41433 12.7794 8.41917C12.6004 8.424 12.4165 8.42884 12.2375 8.41917C12.1262 8.41433 12.0633 8.45787 12.0052 8.54981C11.0375 10.0498 10.0698 11.5449 9.10691 13.0449C9.05853 13.1174 9.03434 13.2239 9.03434 13.3158C9.0295 14.7384 9.0295 16.1561 9.0295 17.5786C9.0295 17.9851 8.85047 18.0964 8.49241 17.9173C7.40373 17.3706 6.3102 16.8238 5.21668 16.2819C5.03765 16.1948 4.95539 16.0787 4.96023 15.8755C4.96991 15.0239 4.96507 14.1723 4.96023 13.3158C4.96023 13.2191 4.9312 13.1126 4.87798 13.0304C3.92477 11.5449 2.96673 10.0643 2.01352 8.57884C1.93127 8.45304 1.84901 8.40949 1.70869 8.41917C1.54418 8.42884 1.38451 8.424 1.21999 8.41917C1.01677 8.41433 0.905484 8.30304 0.905484 8.09982C0.900646 7.44661 0.900646 6.7934 0.905484 6.14018C0.905484 5.91761 1.01677 5.81116 1.24419 5.80632C1.31193 5.80632 1.38451 5.81116 1.48128 5.81116ZM2.60383 8.42884C2.65706 8.5111 2.69093 8.56916 2.7248 8.62239C3.61994 10.0062 4.51992 11.3901 5.41022 12.7787C5.48764 12.9045 5.53603 13.0691 5.54086 13.2142C5.55538 14.0174 5.55054 14.8206 5.5457 15.6238C5.5457 15.74 5.57473 15.8029 5.68602 15.8609C6.55697 16.2916 7.42308 16.727 8.29403 17.1625C8.33758 17.1867 8.3908 17.2012 8.44886 17.2254C8.44886 17.1383 8.44886 17.0706 8.44886 17.0077C8.44886 15.7448 8.44403 14.4819 8.4537 13.2191C8.4537 13.0739 8.50693 12.9094 8.58435 12.7836C9.46981 11.3997 10.365 10.0207 11.2553 8.64174C11.2988 8.57884 11.3327 8.5111 11.3811 8.43368C8.4537 8.42884 5.5457 8.42884 2.60383 8.42884ZM2.07643 0.590309C2.07643 2.33704 2.07643 4.06926 2.07643 5.79664C5.36667 5.79664 8.64725 5.79664 11.9278 5.79664C11.9278 4.82892 11.9278 3.87572 11.9278 2.908C11.8552 2.908 11.7875 2.908 11.7246 2.908C11.144 2.908 10.5633 2.908 9.9827 2.908C9.71174 2.908 9.61497 2.80639 9.61497 2.53543C9.61497 1.99834 9.61497 1.46126 9.61497 0.919334C9.61497 0.812885 9.61497 0.706436 9.61497 0.590309C7.08922 0.590309 4.58766 0.590309 2.07643 0.590309ZM1.49096 7.82886C5.17313 7.82886 8.83595 7.82886 12.4988 7.82886C12.4988 7.345 12.4988 6.87081 12.4988 6.39663C8.82144 6.39663 5.15862 6.39663 1.49096 6.39663C1.49096 6.87565 1.49096 7.345 1.49096 7.82886ZM11.4633 2.31769C11.0424 1.89673 10.6214 1.47577 10.2053 1.05482C10.2053 1.46126 10.2053 1.88705 10.2053 2.31769C10.6359 2.31769 11.052 2.31769 11.4633 2.31769Z" fill="#FB6152"/>
<path d="M6.99736 4.06927C5.69094 4.06927 4.38452 4.06927 3.0781 4.06927C3.02003 4.06927 2.95713 4.07411 2.89907 4.06443C2.74423 4.0354 2.64746 3.93863 2.64746 3.77895C2.64746 3.61928 2.73939 3.52251 2.89907 3.49347C2.95229 3.4838 3.00552 3.48864 3.06358 3.48864C5.6861 3.48864 8.31346 3.48864 10.936 3.48864C10.9892 3.48864 11.0473 3.4838 11.1005 3.49347C11.2553 3.52251 11.3521 3.61928 11.3521 3.77895C11.3521 3.93863 11.2553 4.0354 11.1005 4.06443C11.0424 4.07411 10.9795 4.06927 10.9215 4.06927C9.61021 4.06927 8.30379 4.06927 6.99736 4.06927Z" fill="#FB6152"/>
<path d="M7.00229 4.64989C8.30871 4.64989 9.61514 4.64989 10.9216 4.64989C10.9748 4.64989 11.0328 4.64505 11.0861 4.65473C11.2457 4.67408 11.357 4.79505 11.357 4.94504C11.357 5.09504 11.2457 5.216 11.0861 5.23052C11.0377 5.23536 10.9893 5.23052 10.9409 5.23052C8.31839 5.23052 5.69103 5.23052 3.06851 5.23052C3.01044 5.23052 2.94754 5.23536 2.88948 5.22084C2.74432 5.18697 2.65723 5.0902 2.65723 4.93537C2.65723 4.78537 2.74432 4.6886 2.89432 4.65473C2.95238 4.64021 3.01528 4.64989 3.07335 4.64989C4.37493 4.64989 5.68619 4.64989 7.00229 4.64989Z" fill="#FB6152"/>
<path d="M5.8361 1.16613C6.76027 1.16613 7.68444 1.16613 8.61346 1.16613C8.66668 1.16613 8.72474 1.16129 8.77797 1.17097C8.9328 1.2 9.02958 1.29677 9.02958 1.45644C9.02958 1.61612 8.9328 1.71289 8.77797 1.74192C8.72474 1.7516 8.67152 1.74676 8.61346 1.74676C6.76511 1.74676 4.91193 1.74676 3.06358 1.74676C3.01036 1.74676 2.95229 1.7516 2.89907 1.74192C2.74423 1.71289 2.64746 1.61612 2.64746 1.45644C2.64746 1.29677 2.74423 1.2 2.89907 1.17097C2.95229 1.16129 3.00552 1.16613 3.06358 1.16613C3.98775 1.16613 4.91193 1.16613 5.8361 1.16613Z" fill="#FB6152"/>
<path d="M5.83606 2.90801C4.91188 2.90801 3.98771 2.90801 3.0587 2.90801C3.00547 2.90801 2.94741 2.91285 2.89419 2.90318C2.73935 2.87414 2.64258 2.77737 2.64258 2.6177C2.64258 2.45802 2.73451 2.36125 2.89419 2.33222C2.94741 2.32254 3.00063 2.32738 3.0587 2.32738C4.90704 2.32738 6.76023 2.32738 8.60857 2.32738C8.6618 2.32738 8.71986 2.32254 8.77309 2.33222C8.92792 2.36125 9.02469 2.45802 9.02469 2.6177C9.02469 2.77737 8.92792 2.87414 8.77309 2.90318C8.71986 2.91285 8.66664 2.90801 8.60857 2.90801C7.68924 2.90801 6.76023 2.90801 5.83606 2.90801Z" fill="#FB6152"/>
</svg>
