<svg width="41" height="40" viewBox="0 0 41 40" fill="none" xmlns="http://www.w3.org/2000/svg">
<path d="M10.7059 12.2225C11.7544 10.7432 12.731 9.32128 13.205 7.59778C13.722 5.73065 12.9752 4.12205 12.1996 2.51345C12.0273 2.15439 11.7257 1.85277 11.5533 1.47935C11.4097 1.16337 11.3522 0.80431 11.2661 0.459609C11.6395 0.373434 12.0273 0.157997 12.3576 0.244172C14.6556 0.789947 16.7813 1.73787 18.6771 3.18849C20.2283 4.36621 21.6645 5.65884 22.8566 7.32489C22.8853 6.85093 22.8853 6.37697 22.9715 5.91736C23.0146 5.6732 23.1726 5.35723 23.3737 5.24233C23.5316 5.15615 23.9194 5.22796 24.0774 5.37159C26.2462 7.45415 28.4293 9.57981 29.8655 12.2656C31.2443 14.8365 30.8996 17.5366 30.0953 20.2224C30.0235 20.4666 29.9517 20.7108 29.8368 21.0555C31.7901 20.0644 32.896 18.5851 33.3269 16.56C33.3987 16.2009 33.6429 15.6982 33.9014 15.6264C34.1743 15.5546 34.6482 15.8562 34.878 16.1291C38.1096 19.9208 40.0629 24.3157 40.3071 29.2852C40.5225 33.7088 38.6123 36.8686 34.1599 38.865C32.4364 39.6405 30.6124 40.014 28.7309 39.9996C24.02 39.9709 19.3091 39.9709 14.5982 39.856C11.4959 39.7842 8.49409 39.1522 6.0381 37.0553C1.12612 32.8471 -0.525567 27.576 1.11176 21.3283C1.71499 19.016 2.51929 16.7611 3.07942 14.4487C3.69701 11.9353 3.71137 9.43618 2.43311 7.052C2.04532 6.34824 2.39002 5.87428 3.19432 5.94609C4.97528 6.07535 6.32535 7.09509 7.51744 8.30154C8.53718 9.33564 9.38457 10.5277 10.3038 11.6624C10.433 11.7916 10.5479 11.9783 10.7059 12.2225ZM24.4796 7.35362C24.3934 7.3967 24.3216 7.42543 24.2354 7.46852C23.704 10.5421 21.9661 12.8975 19.8261 15.0088C18.5622 16.244 17.2409 17.4217 15.9482 18.6426C13.4348 21.0124 11.4815 23.6838 11.1512 27.2744C10.9357 29.6586 11.0506 31.9566 12.5012 34.0104C13.6502 35.6334 15.0865 36.9548 16.8387 37.9027C17.7579 38.4054 18.7346 38.6639 19.783 38.6639C22.7561 38.6495 25.7147 38.7357 28.6878 38.6208C30.081 38.5777 31.5172 38.3623 32.8242 37.9314C37.176 36.5095 39.2586 33.3785 38.957 28.8112C38.7703 25.9531 37.7936 23.3104 36.4723 20.7969C35.9121 19.7341 35.2227 18.7431 34.5764 17.6946C34.1168 18.5133 33.7721 19.2171 33.3412 19.8634C32.3071 21.4289 30.6698 22.2045 29.0612 22.9944C28.774 23.138 28.3718 23.0231 28.0128 23.0231C28.0128 22.6641 27.9122 22.2906 28.0128 21.9603C28.3431 20.9118 28.8027 19.9065 29.0899 18.858C29.6644 16.7036 29.7937 14.4774 28.5154 12.5528C27.309 10.7144 25.8296 9.07712 24.4796 7.35362ZM9.91598 31.3677C9.90162 31.181 9.90162 31.0805 9.88726 30.9943C9.34148 26.9584 10.1027 23.2529 12.7885 20.1219C14.2535 18.4271 15.9339 16.9191 17.5425 15.3535C19.2516 13.7018 20.9608 12.0645 22.0379 9.91014C22.2677 9.46491 22.2677 9.12021 21.9949 8.66061C20.6304 6.34824 18.6771 4.65346 16.4366 3.27466C15.5461 2.72889 14.5407 2.36982 13.5928 1.92459C13.5784 2.25492 13.6502 2.42727 13.7364 2.59962C14.4258 4.12205 14.9285 5.6732 14.5838 7.38234C14.0955 9.88142 12.7023 11.9065 11.0506 13.7593C10.6054 14.262 10.1889 14.1184 9.80108 13.5295C9.06859 12.3949 8.35047 11.2315 7.50308 10.1687C6.62697 9.07712 5.5785 8.12919 4.14225 7.49724C5.30561 10.9012 4.68803 14.104 3.72574 17.2925C3.2805 18.7575 2.77781 20.1937 2.37566 21.673C0.810147 27.5186 2.80654 33.2205 7.5318 36.5095C9.81544 38.1038 12.4294 38.4054 15.3019 38.5634C13.2481 37.0697 11.6395 35.4898 10.591 33.3641C10.5336 33.2349 10.3612 33.1343 10.2176 33.0625C7.10093 31.6981 5.30561 28.4091 5.76521 24.9046C6.09555 22.4055 6.68442 19.9495 7.17274 17.4648C7.5318 17.4074 7.90523 17.3499 8.40792 17.2781C8.36483 17.9819 8.39356 18.6282 8.27866 19.2458C8.04885 20.3661 7.71852 21.472 7.45999 22.5779C7.04348 24.3588 6.81368 26.1685 7.37382 27.9638C7.79033 29.3857 8.58027 30.5347 9.91598 31.3677Z" fill="#FB6152"/>
<path d="M36.0849 14.0322C35.9844 13.8598 35.7258 13.6157 35.6684 13.3284C35.3668 11.6767 34.7348 11.0591 33.0688 10.7288C32.7959 10.6714 32.4225 10.3554 32.365 10.1112C32.2788 9.68034 32.6523 9.47927 33.0831 9.42182C34.6487 9.20638 35.4099 8.45953 35.6397 6.89402C35.6971 6.4775 35.8264 6.1328 36.3147 6.1328C36.8174 6.11844 36.9323 6.4775 37.0185 6.87965C37.3201 8.5457 37.9377 9.1202 39.6181 9.45054C39.891 9.50799 40.092 9.88142 40.3362 10.0969C40.092 10.3123 39.8622 10.7001 39.6037 10.7144C38.2393 10.8293 37.0328 11.9065 37.0041 13.3141C37.0041 13.7306 36.8174 14.0609 36.0849 14.0322ZM36.3865 9.13457C36.0849 9.47927 35.7546 9.83833 35.496 10.1256C35.7402 10.341 36.0993 10.6714 36.3722 10.9299C36.645 10.6857 36.9897 10.3841 37.2914 10.1112C36.9897 9.78088 36.6881 9.45054 36.3865 9.13457Z" fill="#FB6152"/>
<path d="M30.5115 0.028725C30.6839 0.301613 30.9424 0.560138 30.9998 0.861751C31.3015 2.5278 31.8616 3.11667 33.5851 3.43264C34.0016 3.50445 34.4038 3.6768 34.3032 4.1364C34.2458 4.39493 33.8724 4.7109 33.5995 4.76835C31.8472 5.14178 31.402 5.60138 30.9998 7.41106C30.9424 7.66958 30.5977 7.87066 30.3823 8.10046C30.1525 7.88502 29.7359 7.68394 29.7072 7.42542C29.4918 5.81682 28.6444 4.9407 27.0214 4.75399C26.7629 4.72527 26.5618 4.30875 26.332 4.07895C26.5618 3.86352 26.7629 3.49009 27.0071 3.46137C28.6157 3.26029 29.4918 2.4129 29.6929 0.789938C29.7216 0.517051 30.0376 0.258525 30.2243 0C30.3248 0.0143625 30.4253 0.028725 30.5115 0.028725ZM30.3392 3.13103C30.0376 3.447 29.7072 3.80607 29.4631 4.06459C29.7647 4.39493 30.0663 4.75399 30.2961 4.99815C30.6408 4.68218 30.9711 4.3662 31.3158 4.05023C30.9999 3.77734 30.6695 3.46137 30.3392 3.13103Z" fill="#FB6152"/>
<path d="M21.9947 16.6174C22.2819 16.8041 22.5979 17.0052 23.0575 17.3068C22.1957 18.3409 21.3483 19.3319 20.5153 20.323C19.3232 21.7592 18.0019 23.0949 16.9965 24.6461C14.9283 27.8489 16.1348 31.813 19.5674 33.479C20.1993 33.7806 20.9175 33.8955 21.65 34.111C21.65 34.4557 21.65 34.8435 21.65 35.2887C19.6823 35.26 18.1024 34.47 16.8098 33.0912C14.282 30.3767 13.9229 27.0303 15.8619 23.8705C16.422 22.9657 17.0827 22.1039 17.7864 21.2852C19.1365 19.7341 20.544 18.226 21.9947 16.6174Z" fill="#FB6152"/>
</svg>
