<svg width="609" height="530" viewBox="0 0 609 530" fill="none" xmlns="http://www.w3.org/2000/svg">
<path opacity="0.1" d="M141.706 360.1C171.951 359.512 201.021 369.79 230.972 373.607C260.923 377.424 294.985 372.726 314.072 349.529C331.983 327.8 332.277 294.619 352.244 274.651C373.386 253.509 408.916 254.978 432.407 236.478C460.009 214.749 462.358 174.815 472.929 141.34C487.905 93.1834 523.141 54.1297 557.203 16.8378C565.425 8.02863 575.996 -1.66138 587.742 1.5686C600.368 5.09222 603.598 21.2423 604.479 34.456C612.407 138.697 620.335 243.232 628.264 347.473C631.787 394.455 634.136 446.136 605.066 483.427C571.004 526.592 509.047 532.171 454.137 534.52C382.783 537.457 311.135 540.393 239.781 543.329C200.434 544.798 160.499 546.559 122.033 538.044C79.749 528.941 -15.0256 544.334 2.59259 491.773C18.1554 443.911 91.2009 360.981 141.706 360.1Z" fill="#DC8383"/>
</svg>
