<svg width="612" height="742" viewBox="0 0 612 742" fill="none" xmlns="http://www.w3.org/2000/svg">
<mask id="mask0" mask-type="alpha" maskUnits="userSpaceOnUse" x="0" y="21" width="587" height="692">
<rect opacity="0.1" y="21" width="587" height="692" rx="18" fill="white"/>
</mask>
<g mask="url(#mask0)">
<path opacity="0.1" d="M90.1769 781.909C75.6102 732.458 96.3035 686.591 129.945 651.997C163.586 617.402 208.7 591.747 249.744 562.723C290.787 533.698 328.73 500.383 342.883 455.836C353.801 420.91 349.068 381.491 352.42 344.421C355.772 307.352 370.267 269.488 408.733 252.965C450.694 235.217 514.072 245.212 546.268 218.77C581.89 189.766 563.279 130.847 599.27 102.427C630.046 78.0375 692.387 87.6182 731.994 116.503C772.121 145.595 791.247 188.135 794.054 226.351C796.192 264.736 783.936 300.001 771.83 334.889C727.704 459.136 683.429 583.759 639.304 708.006C612.321 783.224 583.468 861.625 509.968 908.695C454.191 944.501 360.937 956.637 280.799 923.812C208.963 894.298 110.018 848.301 90.1769 781.909Z" fill="#9ADC83"/>
</g>
</svg>
