<svg width="568" height="742" viewBox="0 0 568 742" fill="none" xmlns="http://www.w3.org/2000/svg">
<path opacity="0.2" d="M46.1769 781.909C31.6102 732.458 52.3035 686.591 85.9447 651.997C119.586 617.402 164.7 591.747 205.744 562.723C246.787 533.698 284.73 500.383 298.883 455.836C309.801 420.91 305.068 381.491 308.42 344.421C311.772 307.352 326.267 269.488 364.733 252.965C406.694 235.217 470.072 245.212 502.268 218.77C537.89 189.766 519.279 130.847 555.27 102.427C586.046 78.0375 648.387 87.6182 687.994 116.503C728.121 145.595 747.247 188.135 750.054 226.351C752.192 264.736 739.936 300.001 727.83 334.889C683.704 459.136 639.429 583.759 595.304 708.006C568.321 783.224 539.468 861.625 465.968 908.695C410.191 944.501 316.937 956.637 236.799 923.812C164.963 894.298 66.018 848.301 46.1769 781.909Z" fill="#9ADC83"/>
</svg>
