<svg width="19" height="18" viewBox="0 0 19 18" fill="none" xmlns="http://www.w3.org/2000/svg">
<path d="M1.00029 16.2082C1.04716 16.0911 1.08934 15.9739 1.15027 15.8614C1.44553 15.2849 1.92358 15.0037 2.56567 15.0037C3.09058 15.0037 3.62019 15.0037 4.15448 15.0037C3.95295 14.4835 3.75142 13.9773 3.54989 13.4665C3.09527 12.3042 2.64066 11.1418 2.18135 9.97953C2.10637 9.79675 2.09231 9.62803 2.25166 9.47336C2.17198 9.389 2.09699 9.30933 2.022 9.22965C1.48771 8.62037 1.33305 7.89393 1.37523 7.10655C1.42679 6.2395 2.04544 5.64897 2.91249 5.63023C3.57801 5.61148 4.2154 5.70521 4.75438 6.12234C5.0309 6.33324 5.26524 6.5957 5.5277 6.84878C5.5277 6.84878 5.55582 6.82066 5.58394 6.78317C6.1276 6.01454 6.87279 5.6396 7.81014 5.62554C8.1804 5.62085 8.54597 5.63023 8.87872 5.83176C9.30991 6.09421 9.56768 6.47384 9.61454 6.98001C9.68485 7.76739 9.56299 8.50789 9.04745 9.14529C8.99121 9.21091 8.93497 9.27652 8.85998 9.36088C8.92091 9.36557 8.96309 9.37494 9.00527 9.37494C9.62392 9.37494 10.2473 9.37963 10.8659 9.37026C10.9456 9.37026 11.0393 9.34213 11.1096 9.29995C11.7189 8.90158 12.4172 8.90158 13.0218 9.29527C13.0921 9.34213 13.1952 9.37026 13.2796 9.37026C14.62 9.37494 15.9604 9.37494 17.3008 9.37494C17.343 9.37494 17.3805 9.37494 17.4227 9.37494C17.8445 9.37963 17.9757 9.57179 17.8164 9.96079C17.4461 10.87 17.0712 11.7746 16.7009 12.6838C16.3916 13.4337 16.0776 14.1836 15.7683 14.9334C15.7636 14.9475 15.7636 14.9662 15.7589 15.0037C16.0213 15.0037 16.2744 15.0037 16.5275 15.0037C16.8743 15.0037 17.2211 14.9944 17.5633 15.0131C18.36 15.0553 18.9412 15.6411 18.9927 16.4426C19.0396 17.155 18.5194 17.8064 17.7789 17.9658C17.7601 17.9704 17.7461 17.9892 17.7273 17.9986C12.5485 17.9986 7.36959 17.9986 2.19073 17.9986C2.15323 17.9751 2.12043 17.9423 2.07825 17.933C1.64238 17.8064 1.33774 17.5299 1.14089 17.1268C1.08934 17.019 1.04716 16.9112 0.995605 16.8034C1.00029 16.6066 1.00029 16.4098 1.00029 16.2082ZM4.63253 14.1789C5.29336 13.1056 6.22134 12.5854 7.45395 12.8103C8.65376 13.0259 9.33334 13.8227 9.59111 14.999C9.61923 14.999 9.64735 15.0037 9.67547 15.0037C11.2315 15.0037 12.7922 15.0037 14.3482 15.0037C14.7512 15.0037 15.0137 14.8116 15.1637 14.4366C15.7308 13.0447 16.3072 11.6527 16.879 10.2607C16.8931 10.2232 16.9071 10.1811 16.9165 10.1342C15.8198 10.1342 14.7372 10.1342 13.6545 10.1342C13.8982 11.0341 13.5327 11.6949 13.0171 12.0698C12.4875 12.4541 11.7376 12.4869 11.1518 12.1026C10.4394 11.634 10.2473 10.9497 10.4488 10.1342C7.98355 10.1342 5.52301 10.1342 3.04372 10.1342C3.58269 11.4934 4.10761 12.8291 4.63253 14.1789ZM10.0082 15.7536C7.55237 15.7536 5.1012 15.7536 2.64534 15.7536C2.57504 15.7536 2.50474 15.7536 2.43444 15.7583C1.99857 15.8005 1.69862 16.1895 1.76423 16.6207C1.82516 17.0237 2.13917 17.2534 2.61722 17.2534C7.53831 17.2534 12.4547 17.2534 17.3758 17.2534C17.4695 17.2534 17.5633 17.2487 17.657 17.2299C18.0226 17.1596 18.285 16.7988 18.2382 16.4285C18.1866 16.0067 17.882 15.7536 17.4227 15.7536C14.9481 15.7489 12.4782 15.7536 10.0082 15.7536ZM5.11526 8.84534C5.11526 8.57819 5.12464 8.34854 5.11526 8.12358C5.08714 7.61272 4.86218 7.1956 4.48724 6.85347C3.99044 6.40354 3.39522 6.32387 2.7672 6.39417C2.43913 6.43166 2.17667 6.68006 2.13917 7.00813C2.10168 7.36901 2.09699 7.73458 2.22353 8.08608C2.57504 9.05156 3.41866 9.50617 4.58097 9.35619C4.49661 9.27183 4.41694 9.20153 4.34663 9.13123C4.13104 8.91564 3.91545 8.70474 3.69986 8.48446C3.58738 8.36729 3.52645 8.23137 3.58738 8.06734C3.63893 7.93142 3.73736 7.85175 3.88265 7.82363C4.03731 7.80019 4.14979 7.87518 4.2529 7.97829C4.5341 8.2595 4.81062 8.53601 5.11526 8.84534ZM6.40881 9.37494C6.66189 9.37494 6.87748 9.389 7.08838 9.37494C7.84295 9.32339 8.37724 8.93907 8.70531 8.26418C8.89747 7.86581 8.89747 7.43463 8.85529 7.00813C8.8178 6.68006 8.55534 6.42229 8.22258 6.40354C7.932 6.38479 7.63205 6.37073 7.35084 6.43635C6.31976 6.67069 5.71517 7.57054 5.89795 8.83128C6.19321 8.53601 6.47911 8.24075 6.76969 7.95954C6.9431 7.79082 7.16806 7.78613 7.31804 7.93142C7.4727 8.0814 7.46801 8.30168 7.30398 8.47977C7.20555 8.58757 7.09776 8.68599 6.99465 8.7891C6.80718 8.97188 6.61971 9.16404 6.40881 9.37494ZM5.15744 14.9803C6.38537 15.0319 7.58987 14.9897 8.79905 15.0084C8.68188 14.1929 7.91794 13.5508 7.03683 13.5087C6.18853 13.4618 5.39647 14.0617 5.15744 14.9803ZM12.9937 10.6919C12.9937 10.1764 12.5672 9.74988 12.0563 9.75457C11.5502 9.75926 11.1284 10.1811 11.1237 10.6825C11.119 11.1934 11.5408 11.6246 12.0563 11.6293C12.5672 11.634 12.9937 11.2075 12.9937 10.6919Z" fill="#FB6152"/>
<path d="M14.2171 3.75553C15.281 3.75553 16.3495 3.75553 17.4134 3.75553C18.1211 3.75553 18.6929 4.13516 18.8945 4.72569C19.246 5.76615 18.543 6.74568 17.4369 6.75037C16.1012 6.75505 14.7654 6.75037 13.4297 6.75037C12.9376 6.75037 12.633 7.055 12.6236 7.54711C12.6189 7.67366 12.6236 7.80489 12.6048 7.93143C12.5673 8.16577 12.3611 8.29231 12.1408 8.22669C11.9862 8.17983 11.9018 8.06734 11.8831 7.90799C11.7472 6.79255 12.4267 5.9958 13.4578 6.00049C14.6623 6.00517 15.8715 6.00049 17.076 6.00049C17.2494 6.00049 17.4275 6.00517 17.6009 5.98174C17.9805 5.93487 18.2617 5.59742 18.243 5.22717C18.2242 4.84286 17.9384 4.53822 17.5587 4.50072C17.4884 4.49604 17.4181 4.49604 17.3478 4.49604C15.1732 4.49604 13.0032 4.49604 10.8286 4.49604C10.0787 4.49604 9.52095 4.09298 9.31004 3.40871C9.03821 2.5276 9.69436 1.55744 10.613 1.51526C11.3488 1.48246 12.0893 1.5012 12.8251 1.5012C13.2938 1.5012 13.7625 1.50589 14.2311 1.5012C14.7514 1.49652 15.056 1.18719 15.056 0.666961C15.056 0.554479 15.0513 0.441997 15.0654 0.334201C15.0935 0.137358 15.2528 0.00144196 15.4356 0.00144196C15.6278 0.00612871 15.7871 0.151418 15.7965 0.362322C15.8246 0.81225 15.8012 1.2528 15.5106 1.63243C15.1919 2.05424 14.7607 2.25108 14.2358 2.25108C13.0876 2.25108 11.9393 2.25108 10.7911 2.25108C10.3927 2.25108 10.1068 2.47136 10.0131 2.83224C9.91463 3.2353 10.1818 3.65711 10.5895 3.72741C10.6879 3.74616 10.7864 3.75084 10.8848 3.75084C12.0049 3.75553 13.111 3.75553 14.2171 3.75553Z" fill="#FB6152"/>
</svg>
