<svg width="19" height="18" viewBox="0 0 19 18" fill="none" xmlns="http://www.w3.org/2000/svg">
<path d="M18.9918 10.3714C18.9215 10.6492 18.8582 10.9234 18.7843 11.2012C18.3414 12.9098 17.5257 14.4145 16.2741 15.6591C15.1878 16.7419 13.9186 17.5259 12.4033 17.8599C12.0553 17.9372 11.6967 17.9794 11.3416 17.9865C10.4381 18.004 9.53805 18.004 8.63451 17.99C7.54464 17.9689 6.54267 17.6349 5.60397 17.0935C3.33986 15.7927 1.95116 13.8239 1.24099 11.3453C1.16013 11.064 1.10739 10.7758 1.03356 10.4945C0.917542 10.0375 1.07575 9.66831 1.39568 9.34838C1.77889 8.96868 2.25351 8.74016 2.74571 8.5468C3.72659 8.16359 4.74966 7.94913 5.79031 7.80498C6.30008 7.73467 6.81338 7.68193 7.32315 7.61865C7.37941 7.61162 7.43566 7.59756 7.50949 7.58701C7.43566 7.42529 7.36886 7.27411 7.30206 7.12645C7.01729 6.50417 6.729 5.88189 6.44423 5.25961C6.25086 4.83421 6.36688 4.54241 6.7958 4.35608C6.9083 4.30686 7.0208 4.25764 7.09112 4.22951C6.96104 3.89552 6.7958 3.58262 6.71142 3.24863C6.47235 2.28885 7.02783 1.13569 7.89973 0.668106C8.40247 0.397397 8.95092 0.323567 9.50289 0.246221C10.0654 0.16536 10.6244 0.0809833 11.1869 0.00012207C11.3275 0.00012207 11.4682 0.00012207 11.6088 0.00012207C11.6475 0.0106692 11.6861 0.024732 11.7283 0.0282477C12.224 0.0880147 12.6741 0.2638 13.0397 0.604823C13.2928 0.840375 13.5073 1.12163 13.7534 1.39937C13.7674 1.39234 13.8237 1.37125 13.8764 1.35015C14.5163 1.07944 15.1561 0.805218 15.796 0.534509C16.1898 0.369271 16.4816 0.481773 16.6609 0.864985C16.7488 1.05483 16.8366 1.2482 16.9245 1.43804C17.6136 2.93925 18.3062 4.44046 18.9953 5.94518C18.9953 6.0401 18.9953 6.13151 18.9953 6.22643C18.8933 6.46199 18.7035 6.58503 18.4785 6.68699C17.5574 7.10184 16.6398 7.52724 15.7187 7.94913C15.6659 7.97374 15.6132 8.00186 15.5288 8.04054C15.6167 8.06515 15.6659 8.07921 15.7187 8.08976C16.4148 8.25851 17.0968 8.45891 17.7402 8.77883C18.3027 9.06009 18.823 9.38705 18.9988 10.055C18.9918 10.1605 18.9918 10.266 18.9918 10.3714ZM1.90897 11.4437C1.91249 11.493 1.90897 11.5105 1.91249 11.5281C2.65078 13.7711 3.9762 15.5395 6.08211 16.6751C6.83799 17.0829 7.63957 17.3607 8.50443 17.3818C9.46422 17.4029 10.424 17.3993 11.3873 17.3888C11.6967 17.3853 12.0061 17.3396 12.3084 17.2728C13.451 17.0232 14.4354 16.4571 15.3249 15.7223C16.5238 14.7309 17.3464 13.4758 17.9019 12.0344C17.9722 11.8516 18.0285 11.6652 18.1023 11.4437C18.025 11.4824 17.9828 11.5035 17.9441 11.5211C17.5117 11.7004 17.0933 11.9148 16.6468 12.052C14.8679 12.6039 13.0291 12.7973 11.1764 12.8746C9.98806 12.9238 8.79975 12.8922 7.61144 12.8008C6.49345 12.7164 5.386 12.5758 4.29613 12.3191C3.46994 12.1223 2.66836 11.8762 1.90897 11.4437ZM13.9573 1.94782C13.7639 2.03571 13.5987 2.11306 13.4264 2.19392C13.7323 2.85487 14.0311 3.49473 14.3264 4.1381C14.3546 4.19787 14.3827 4.25412 14.3968 4.31741C14.4249 4.46858 14.3686 4.58108 14.228 4.64788C14.0909 4.71116 13.9749 4.67249 13.8799 4.56351C13.8378 4.5178 13.8131 4.45452 13.7885 4.39475C13.5073 3.79005 13.226 3.18535 12.9448 2.58065C12.9202 2.52791 12.892 2.47869 12.8639 2.42244C12.6811 2.5033 12.5123 2.57362 12.333 2.65448C12.4315 2.86542 12.5194 3.0623 12.6108 3.25918C12.8358 3.74083 13.0608 4.226 13.2823 4.70765C13.3385 4.8307 13.3702 4.97133 13.2612 5.06625C13.1873 5.12953 13.0538 5.18578 12.9694 5.16118C12.8745 5.13305 12.7795 5.03109 12.7338 4.93617C12.5018 4.46507 12.2873 3.98341 12.0623 3.50528C11.9674 3.30488 11.8725 3.10449 11.774 2.89355C11.5912 2.97089 11.4225 3.04472 11.2396 3.12207C11.2678 3.18887 11.2889 3.2416 11.3135 3.29434C11.6018 3.92013 11.8936 4.54593 12.1819 5.17172C12.21 5.22797 12.2346 5.29126 12.2451 5.35454C12.2697 5.50571 12.2065 5.61822 12.0623 5.67447C11.9217 5.73072 11.8092 5.68501 11.7213 5.569C11.6756 5.50923 11.6475 5.43892 11.6123 5.3686C11.3275 4.76038 11.0463 4.14865 10.765 3.53692C10.7369 3.48067 10.7088 3.42442 10.6771 3.35762C9.43258 3.88849 8.2056 4.41585 6.96104 4.94672C7.52706 6.1737 8.08606 7.38662 8.64857 8.60656C8.7224 8.57844 8.77514 8.55734 8.82787 8.53625C9.4607 8.26554 10.0935 7.99132 10.7299 7.72061C11.4717 7.40771 12.2065 7.05965 12.9659 6.79246C14.2948 6.32487 15.6659 6.34245 17.0441 6.52527C17.1355 6.53933 17.2445 6.57449 17.3183 6.54285C17.6734 6.3987 18.0179 6.22995 18.38 6.06823C17.6101 4.3842 16.8472 2.72479 16.0808 1.0478C15.9155 1.11812 15.7679 1.1814 15.6097 1.2482C15.6413 1.32203 15.6659 1.38531 15.6976 1.44859C15.9577 2.00407 16.2179 2.56307 16.4745 3.11855C16.5097 3.1959 16.5484 3.28379 16.5448 3.36817C16.5413 3.51934 16.4499 3.61778 16.2987 3.64591C16.1335 3.67403 16.0316 3.58966 15.9648 3.44903C15.7257 2.93925 15.4901 2.42947 15.2546 1.92321C15.1878 1.78258 15.121 1.64196 15.0472 1.48726C14.8643 1.56461 14.6956 1.63844 14.5128 1.71579C14.5409 1.77907 14.562 1.8318 14.5866 1.88454C14.8608 2.47869 15.1386 3.07285 15.4128 3.667C15.5147 3.88497 15.4726 4.05724 15.3038 4.13459C15.1315 4.21545 14.9768 4.14162 14.8749 3.92365C14.6604 3.46661 14.4495 3.01308 14.2385 2.55604C14.1507 2.35564 14.0557 2.16228 13.9573 1.94782ZM9.49586 11.5457C9.46773 11.5387 9.44312 11.5316 9.415 11.5246C9.43961 11.7144 9.45719 11.9008 9.48883 12.0906C9.51344 12.2418 9.59078 12.3051 9.76305 12.3051C11.3521 12.2945 12.9342 12.2102 14.5022 11.943C15.4198 11.7848 16.3269 11.5879 17.1882 11.2187C17.3992 11.1273 17.6031 11.0148 17.807 10.9129C17.807 10.8918 17.807 10.8707 17.807 10.8496C17.4835 10.6879 17.1706 10.505 16.8366 10.3679C15.4761 9.80894 14.0381 9.58393 12.5862 9.42924C12.5229 9.42221 12.449 9.4433 12.3858 9.47143C11.9076 9.68589 11.426 9.90386 10.9514 10.1289C10.86 10.1711 10.7721 10.2379 10.7053 10.3152C10.4099 10.6422 10.1287 10.9797 9.83337 11.3031C9.74196 11.4051 9.60836 11.4683 9.49586 11.5457ZM13.1381 1.64899C12.8006 0.963425 12.0131 0.523962 11.2467 0.61537C10.5506 0.696231 9.85798 0.81225 9.16187 0.903658C8.72592 0.959909 8.3181 1.07944 7.96301 1.35367C7.2001 1.94079 7.03487 3.10097 7.61144 3.83224C7.69582 3.94123 7.76262 3.95177 7.88567 3.89904C9.58375 3.17129 11.2818 2.44705 12.9799 1.72282C13.0327 1.69821 13.0854 1.6736 13.1381 1.64899ZM7.57628 9.40111C7.04893 9.47143 6.56376 9.52768 6.07859 9.60151C5.05904 9.75972 4.05707 9.98824 3.10079 10.3855C2.78086 10.5191 2.48203 10.6984 2.17616 10.8601C2.17968 10.8812 2.18319 10.9023 2.19023 10.9199C3.43127 11.6055 4.80591 11.841 6.18055 12.059C6.63408 10.6984 6.63408 10.6984 7.57628 9.40111ZM9.60485 10.6668C9.84743 10.389 10.0689 10.1218 10.3045 9.87222C10.4099 9.75972 10.54 9.65776 10.6771 9.59448C12.4596 8.76829 14.2491 7.95264 16.0351 7.13348C16.0843 7.10887 16.1335 7.08427 16.1933 7.05262C16.1651 7.03856 16.1581 7.03153 16.1476 7.02801C14.9487 6.91199 13.785 7.07372 12.6741 7.53428C11.4682 8.0335 10.2763 8.55734 9.07749 9.07064C9.02124 9.09525 8.96499 9.12337 8.9017 9.1515C9.13726 9.66127 9.36578 10.1535 9.60485 10.6668ZM8.0509 8.76126C7.98059 8.60656 7.90676 8.47297 7.85754 8.33234C7.81535 8.20577 7.74152 8.18468 7.61847 8.19523C6.56025 8.28664 5.51257 8.41672 4.47543 8.65578C3.73714 8.82454 3.00587 9.03196 2.33085 9.40111C2.07421 9.54174 1.82459 9.69995 1.6699 9.96363C1.5574 10.157 1.57498 10.3187 1.70154 10.4558C3.6387 9.23588 5.82546 8.98978 8.0509 8.76126ZM8.91577 12.291C8.77866 11.7953 8.81733 11.3558 8.99311 10.9234C9.01069 10.8777 8.99663 10.8074 8.97905 10.7582C8.92983 10.6386 8.87006 10.5261 8.81733 10.4101C8.67318 10.1078 8.52904 9.8019 8.3849 9.49604C7.67472 10.0164 6.96104 11.1941 6.79228 12.1398C7.49191 12.1891 8.18802 12.2383 8.91577 12.291ZM18.2781 10.4664C18.4574 10.2343 18.4152 9.97066 18.1234 9.74214C17.8843 9.55932 17.6277 9.38705 17.357 9.25697C16.4991 8.85266 15.578 8.65578 14.6534 8.48C14.6182 8.47297 14.5796 8.46945 14.5514 8.48C14.2421 8.62063 13.9327 8.76126 13.6233 8.9054C15.2581 9.21478 16.8788 9.51362 18.2781 10.4664Z" fill="#FB6152"/>
</svg>
