<svg width="19" height="18" viewBox="0 0 19 18" fill="none" xmlns="http://www.w3.org/2000/svg">
<path d="M0.995605 4.64675C1.07526 4.42185 1.12211 4.17821 1.23924 3.97674C1.60002 3.33953 2.16226 3.00687 2.89786 3.00218C4.37375 2.99281 5.84964 2.9975 7.32553 3.00218C7.5926 3.00218 7.76596 3.15211 7.76596 3.37701C7.77064 3.60659 7.5926 3.75653 7.31148 3.75653C5.84964 3.75653 4.38312 3.75653 2.92129 3.75653C2.39184 3.75653 1.96079 4.04233 1.81086 4.51087C1.56722 5.27458 2.09667 6.0055 2.91192 6.0055C3.62409 6.0055 4.34096 6.0055 5.05313 6.0055C5.77468 6.0055 6.49154 6.0055 7.21308 6.0055C7.26931 6.0055 7.33022 6.0055 7.38644 6.01019C7.58791 6.02424 7.73784 6.17886 7.73784 6.37565C7.73784 6.56775 7.5926 6.73642 7.39113 6.75047C7.25525 6.75985 7.12406 6.75516 6.98819 6.75516C5.72314 6.75516 4.45809 6.75047 3.19304 6.75985C2.68702 6.76453 2.19974 6.71768 1.75463 6.38502C1.74995 6.45998 1.74058 6.51152 1.74058 6.55837C1.74058 8.24042 1.73589 9.91778 1.74058 11.5998C1.74526 12.9492 2.67297 14.0222 4.00829 14.2236C4.20977 14.2564 4.41592 14.2471 4.62208 14.2471C6.9507 14.2471 9.28401 14.2377 11.6126 14.2517C12.4045 14.2564 13.1073 14.069 13.6836 13.5115C14.2036 13.0054 14.466 12.387 14.4848 11.6607C14.4941 11.3328 14.794 11.15 15.0517 11.3093C15.1923 11.3937 15.2297 11.5295 15.2297 11.6842C15.2204 13.1929 14.1287 14.561 12.6528 14.903C12.5216 14.9358 12.3904 14.9545 12.2358 14.9873C12.2358 15.0436 12.2358 15.1092 12.2358 15.1701C12.2358 15.9478 12.2311 16.7256 12.2405 17.5081C12.2452 17.7377 12.1702 17.9063 11.9547 18C11.8844 18 11.8141 18 11.7438 18C11.5424 17.8876 11.4815 17.7189 11.4861 17.4893C11.4955 16.7303 11.4908 15.9666 11.4908 15.2076C11.4908 15.1466 11.4908 15.0811 11.4908 15.0155C9.23248 15.0155 6.99287 15.0155 4.7439 15.0155C4.7439 15.0904 4.7439 15.156 4.7439 15.2169C4.7439 15.976 4.73921 16.7397 4.74858 17.4987C4.74858 17.7236 4.68299 17.897 4.47215 18C4.40187 18 4.33158 18 4.2613 18C4.05046 17.897 3.98487 17.7283 3.98487 17.4987C3.98955 16.7209 3.98955 15.9432 3.98955 15.1654C3.98955 15.1045 3.98955 15.0436 3.98955 14.9873C3.90522 14.9686 3.84899 14.9592 3.79277 14.9499C2.42933 14.6687 1.53911 13.8582 1.12211 12.5322C1.06589 12.3542 1.03777 12.1714 0.995605 11.9934C0.995605 9.54295 0.995605 7.09251 0.995605 4.64675Z" fill="#FB6152"/>
<path d="M14.4943 9.74914C14.3022 9.74914 14.1101 9.75383 13.9133 9.74914C13.5197 9.73977 13.2339 9.49613 13.1824 9.10725C13.1449 8.82144 13.1121 8.53563 13.0934 8.24982C13.084 8.14675 13.0465 8.09052 12.9528 8.05304C12.8778 8.02024 12.7982 7.98744 12.7373 7.9359C12.5405 7.75318 12.3484 7.76255 12.1282 7.89842C11.9642 7.99681 11.7814 8.06709 11.6034 8.14206C11.2473 8.29199 10.8725 8.17486 10.6757 7.8422C10.4695 7.4908 10.2681 7.13471 10.076 6.76925C9.89793 6.42722 9.98695 6.0477 10.2962 5.81343C10.507 5.65413 10.7179 5.49483 10.9334 5.3449C11.013 5.28867 11.0458 5.23245 11.0365 5.12937C11.0224 4.9607 11.0412 4.79203 11.0271 4.62335C11.0224 4.55307 10.9896 4.46874 10.9381 4.42657C10.7413 4.26258 10.5258 4.11733 10.3196 3.96272C9.97758 3.70502 9.88856 3.32551 10.0947 2.95068C10.2774 2.61333 10.4695 2.27598 10.6616 1.93864C10.8772 1.56849 11.252 1.45136 11.6409 1.6294C11.8798 1.73717 12.1141 1.8543 12.3577 1.95738C12.4093 1.98081 12.4889 1.96675 12.5405 1.93864C12.6342 1.89647 12.7138 1.80745 12.8122 1.77934C13.0559 1.69968 13.1027 1.52164 13.1168 1.29674C13.1261 1.07653 13.1496 0.851634 13.1824 0.631422C13.2386 0.261278 13.5244 0.00826805 13.8945 0.00358269C14.2928 -0.00110268 14.6911 -0.00110268 15.0893 0.00358269C15.4501 0.00826805 15.7406 0.265963 15.7921 0.622051C15.8343 0.917229 15.853 1.21709 15.8952 1.51227C15.9046 1.57787 15.9608 1.64815 16.0217 1.69031C16.1482 1.78402 16.2841 1.86367 16.4293 1.93395C16.4902 1.96207 16.5839 1.97144 16.6449 1.94801C16.8838 1.84962 17.1134 1.73248 17.3477 1.62472C17.7365 1.45136 18.1114 1.57318 18.3269 1.94332C18.519 2.2713 18.7017 2.60396 18.8845 2.93662C19.0906 3.31614 19.0063 3.70034 18.6596 3.96272C18.4581 4.11265 18.2566 4.26726 18.0505 4.40783C17.9708 4.46405 17.938 4.52496 17.9474 4.62335C17.9614 4.78734 17.9614 4.95133 17.9474 5.11532C17.938 5.21371 17.9568 5.27462 18.0411 5.33553C18.2566 5.48546 18.4675 5.64476 18.6783 5.80406C19.0016 6.05239 19.0859 6.4319 18.8938 6.78799C18.7111 7.13471 18.519 7.47674 18.3222 7.81409C18.1114 8.17486 17.7365 8.29199 17.357 8.12332C17.1228 8.02024 16.8885 7.91248 16.6589 7.80003C16.5699 7.75318 16.4996 7.75786 16.42 7.81877C16.3309 7.88905 16.2372 7.95465 16.1388 7.99213C15.9467 8.06241 15.8858 8.19829 15.8765 8.39039C15.8671 8.63402 15.839 8.88235 15.8015 9.1213C15.7453 9.48208 15.4641 9.72571 15.0987 9.73977C14.8925 9.75383 14.6957 9.74914 14.4943 9.74914ZM17.6569 2.29941C17.3336 2.45403 17.0197 2.59459 16.7105 2.74921C16.509 2.85228 16.345 2.82417 16.1623 2.6883C15.9421 2.52899 15.7031 2.38843 15.4595 2.26661C15.2814 2.17759 15.183 2.06046 15.169 1.86836C15.1549 1.70437 15.1409 1.54038 15.1268 1.38108C15.0987 1.17492 15.0753 0.968768 15.0518 0.753241C14.7051 0.753241 14.3818 0.757926 14.0632 0.748556C13.9273 0.74387 13.8945 0.795409 13.8899 0.921914C13.8711 1.23115 13.8383 1.54038 13.8149 1.84962C13.8008 2.06046 13.6978 2.18228 13.5103 2.27598C13.2667 2.3978 13.0278 2.53836 12.8075 2.69767C12.6342 2.81949 12.4796 2.8476 12.2875 2.75389C11.9689 2.59459 11.6409 2.45403 11.3035 2.29473C11.1161 2.64144 10.9334 2.97879 10.7413 3.32551C11.0318 3.54103 11.3082 3.76125 11.594 3.96272C11.7861 4.09859 11.833 4.26258 11.8096 4.49216C11.7814 4.74049 11.7768 4.9935 11.8096 5.24182C11.8377 5.48546 11.7861 5.65882 11.58 5.79938C11.2989 5.99616 11.0271 6.20701 10.7413 6.41785C10.9381 6.77393 11.1302 7.11128 11.3223 7.458C11.6456 7.30338 11.9548 7.16751 12.2547 7.01289C12.4702 6.90044 12.6436 6.93324 12.8357 7.07848C13.0278 7.22373 13.2386 7.36429 13.4635 7.458C13.7118 7.56108 13.8102 7.72038 13.8243 7.97807C13.843 8.31542 13.8852 8.65277 13.918 8.9948C14.3069 8.9948 14.677 8.9948 15.0565 8.9948C15.0659 8.95731 15.0753 8.92452 15.0799 8.88703C15.1081 8.5778 15.1409 8.26857 15.1549 7.95933C15.169 7.71569 15.2674 7.56576 15.4969 7.46268C15.7218 7.36429 15.9374 7.23779 16.1248 7.08785C16.3263 6.92855 16.5043 6.90044 16.7339 7.01757C17.0384 7.17688 17.3523 7.30807 17.671 7.45331C17.8631 7.10191 18.0458 6.76456 18.2285 6.42253C17.924 6.19295 17.6428 5.97742 17.3523 5.77127C17.1837 5.64945 17.1415 5.49952 17.1556 5.29804C17.1743 5.02161 17.1743 4.74049 17.1556 4.45936C17.1415 4.25321 17.1837 4.09859 17.3617 3.97677C17.6522 3.77062 17.9333 3.55509 18.2285 3.33488C18.0411 2.98816 17.8537 2.64613 17.6569 2.29941Z" fill="#FB6152"/>
<path d="M16.3591 4.88101C16.3591 5.91647 15.5157 6.75515 14.4849 6.75515C13.4494 6.75047 12.6155 5.9071 12.6201 4.87163C12.6248 3.84554 13.4588 3.01154 14.4849 3.00686C15.5157 2.99749 16.3591 3.84554 16.3591 4.88101ZM15.6141 4.88101C15.6141 4.25785 15.1128 3.75652 14.4896 3.75652C13.8711 3.75652 13.3745 4.25317 13.3698 4.86695C13.3651 5.48542 13.8664 6.00081 14.4849 6.00549C15.0987 6.01018 15.6141 5.49947 15.6141 4.88101Z" fill="#FB6152"/>
</svg>
