<svg width="637" height="750" viewBox="0 0 637 750" fill="none" xmlns="http://www.w3.org/2000/svg">
<g filter="url(#filter0_d)">
<rect x="25" y="25" width="587" height="692" rx="18" fill="url(#paint0_linear)"/>
<rect x="25.5" y="25.5" width="586" height="691" rx="17.5" stroke="#C2C9EE"/>
</g>
<mask id="mask0" mask-type="alpha" maskUnits="userSpaceOnUse" x="25" y="25" width="587" height="692">
<rect opacity="0.2" x="25" y="25" width="587" height="692" rx="18" fill="white"/>
</mask>
<g mask="url(#mask0)">
<path opacity="0.4" d="M115.177 785.909C100.61 736.458 121.303 690.591 154.945 655.997C188.586 621.402 233.7 595.747 274.744 566.723C315.787 537.698 353.73 504.383 367.883 459.836C378.801 424.91 374.068 385.491 377.42 348.421C380.772 311.352 395.267 273.488 433.733 256.965C475.694 239.217 539.072 249.212 571.268 222.77C606.89 193.766 588.279 134.847 624.27 106.427C655.046 82.0375 717.387 91.6182 756.994 120.503C797.121 149.595 816.247 192.135 819.054 230.351C821.192 268.736 808.936 304.001 796.83 338.889C752.704 463.136 708.429 587.759 664.304 712.006C637.321 787.224 608.468 865.625 534.968 912.695C479.191 948.501 385.937 960.637 305.799 927.812C233.963 898.298 135.018 852.301 115.177 785.909Z" fill="#9ADC83"/>
</g>
<g opacity="0.4">
<g opacity="0.5">
<path d="M554.696 670.281C597.569 627.408 597.569 557.897 554.696 515.024C511.822 472.151 442.311 472.151 399.438 515.024C356.565 557.897 356.565 627.408 399.438 670.281C442.311 713.155 511.822 713.155 554.696 670.281Z" stroke="#9ADC83" stroke-width="2" stroke-miterlimit="10" stroke-linecap="round" stroke-linejoin="round"/>
<path d="M409.048 603.95C406.893 591.02 408.569 577.97 413.358 566.238" stroke="#9ADC83" stroke-width="2" stroke-miterlimit="10" stroke-linecap="round" stroke-linejoin="round"/>
<path d="M430.359 643.338C422.457 636.634 418.027 630.049 413.717 619.873" stroke="#9ADC83" stroke-width="2" stroke-miterlimit="10" stroke-linecap="round" stroke-linejoin="round"/>
<path d="M486.388 661.297C477.888 662.733 469.507 662.614 461.127 660.459" stroke="#9ADC83" stroke-width="2" stroke-miterlimit="10" stroke-linecap="round" stroke-linejoin="round"/>
<path d="M544.094 608.499C538.946 630.049 523.502 648.846 501.234 657.226" stroke="#9ADC83" stroke-width="2" stroke-miterlimit="10" stroke-linecap="round" stroke-linejoin="round"/>
<path d="M544.932 581.203C545.291 583.478 545.411 585.154 545.65 587.428" stroke="#9ADC83" stroke-width="2" stroke-miterlimit="10" stroke-linecap="round" stroke-linejoin="round"/>
<path d="M484.233 524.096C497.762 525.532 510.572 530.92 520.988 539.54" stroke="#9ADC83" stroke-width="2" stroke-miterlimit="10" stroke-linecap="round" stroke-linejoin="round"/>
<path d="M493.811 580.844C462.923 573.9 431.796 568.393 400.548 564.561C396.478 564.083 395.041 558.815 398.393 556.42C417.668 542.054 437.303 528.286 458.493 517.032C460.409 515.954 462.803 516.553 464.12 518.229C478.487 536.068 488.663 554.265 498.84 574.379C500.635 577.851 497.523 581.801 493.811 580.844Z" stroke="#9ADC83" stroke-width="2" stroke-miterlimit="10" stroke-linecap="round" stroke-linejoin="round"/>
<path d="M409.048 548.519C421.859 531.997 435.148 515.835 450.113 501.348C451.669 499.792 454.064 499.672 455.86 500.87C474.536 513.919 489.382 528.645 504.826 545.047C507.46 547.8 505.664 552.47 501.833 552.709C497.163 552.949 492.494 553.308 487.825 553.667" stroke="#9ADC83" stroke-width="2" stroke-miterlimit="10" stroke-linecap="round" stroke-linejoin="round"/>
<path d="M402.104 564.442C402.344 561.209 405.217 558.815 407.971 556.899C423.056 546.005 439.817 534.272 456.099 524.694C458.134 523.497 460.768 524.096 461.965 526.011C471.543 540.617 479.804 556.301 489.621 570.667C491.776 573.78 493.931 577.013 495.248 580.484" stroke="#9ADC83" stroke-width="2" stroke-miterlimit="10" stroke-linecap="round" stroke-linejoin="round"/>
<path d="M425.091 536.786C432.154 529.603 445.444 515.715 451.31 509.609C452.866 507.933 455.5 507.813 457.296 509.37C466.634 517.75 494.529 542.772 503.509 551.991" stroke="#9ADC83" stroke-width="2" stroke-miterlimit="10" stroke-linecap="round" stroke-linejoin="round"/>
<path d="M462.052 632.195C470.701 629.498 475.525 620.302 472.829 611.653C470.132 603.005 460.935 598.181 452.287 600.877C443.639 603.574 438.814 612.771 441.511 621.419C444.207 630.067 453.404 634.892 462.052 632.195Z" stroke="#9ADC83" stroke-width="2" stroke-miterlimit="10" stroke-linecap="round" stroke-linejoin="round"/>
<path d="M461.127 660.339C466.395 658.663 471.662 655.071 477.05 656.268C481.36 657.226 484.592 661.177 488.902 661.895C492.015 662.374 495.128 661.177 497.642 659.381C500.156 657.465 502.072 655.071 503.987 652.557C507.1 648.486 510.333 644.416 513.445 640.345C514.762 638.549 516.199 636.634 516.319 634.479C516.558 629.81 511.171 627.056 508.297 623.225C503.748 617 506.142 607.661 501.713 601.316C499.198 597.724 494.888 595.689 491.536 592.816C488.184 589.942 485.909 584.675 488.543 581.083" stroke="#9ADC83" stroke-width="2" stroke-miterlimit="10" stroke-linecap="round" stroke-linejoin="round"/>
<path d="M430.359 643.338C431.077 645.493 431.915 647.529 432.993 649.444C438.38 658.902 450.712 663.691 461.127 660.339" stroke="#9ADC83" stroke-width="2" stroke-miterlimit="10" stroke-linecap="round" stroke-linejoin="round"/>
<path d="M414.196 619.753C417.189 622.028 420.542 623.943 423.056 626.817C427.126 631.366 428.323 637.592 430.359 643.458" stroke="#9ADC83" stroke-width="2" stroke-miterlimit="10" stroke-linecap="round" stroke-linejoin="round"/>
<path d="M425.69 567.674C421.619 568.752 419.345 573.301 418.626 577.491C417.908 581.682 418.267 586.111 416.95 590.182C415.753 593.774 413.239 596.767 411.084 599.999C409.048 603.232 407.253 606.943 407.851 610.654C408.45 614.366 411.323 617.359 414.316 619.753" stroke="#9ADC83" stroke-width="2" stroke-miterlimit="10" stroke-linecap="round" stroke-linejoin="round"/>
<path d="M453.465 608.38C452.747 607.661 451.31 607.661 450.592 608.499C449.874 609.337 450.113 610.654 450.951 611.253C451.789 611.852 453.226 611.253 453.465 610.295C453.705 609.218 452.747 608.14 451.669 608.26" stroke="#9ADC83" stroke-miterlimit="10" stroke-linecap="round" stroke-linejoin="round"/>
<path d="M461.247 610.894C461.726 608.859 464 607.422 466.036 607.901C468.071 608.38 469.507 610.654 469.029 612.69C468.55 614.725 466.275 616.162 464.24 615.802C462.324 615.324 460.768 613.049 461.247 610.894Z" stroke="#9ADC83" stroke-miterlimit="10" stroke-linecap="round" stroke-linejoin="round"/>
<path d="M430.598 574.977C428.802 575.935 427.725 577.731 427.126 579.646C426.528 581.562 426.408 583.597 426.049 585.513C424.852 592.816 421.26 599.64 415.873 604.668" stroke="#9ADC83" stroke-miterlimit="10" stroke-linecap="round" stroke-linejoin="round"/>
<path d="M423.654 618.436C428.084 620.831 430.838 625.26 432.873 629.93C434.908 634.479 436.225 639.388 438.62 643.817C441.014 648.247 444.606 652.318 449.394 653.634C455.021 655.191 461.007 652.677 466.275 650.282" stroke="#9ADC83" stroke-miterlimit="10" stroke-linecap="round" stroke-linejoin="round"/>
<path d="M489.262 599.999C493.452 601.077 496.206 604.908 497.762 608.859C499.318 612.809 499.797 617.119 501.354 621.19C502.91 625.141 505.664 629.092 509.854 630.169" stroke="#9ADC83" stroke-miterlimit="10" stroke-linecap="round" stroke-linejoin="round"/>
<path d="M441.493 600.119C447 594.372 455.979 592.097 463.521 594.612C471.064 597.126 476.93 604.429 477.768 612.33" stroke="#9ADC83" stroke-miterlimit="10" stroke-linecap="round" stroke-linejoin="round"/>
<path d="M470.705 631.845C464.48 636.873 455.74 638.669 448.078 636.514" stroke="#9ADC83" stroke-miterlimit="10" stroke-linecap="round" stroke-linejoin="round"/>
<path d="M449.035 534.511C450.592 533.434 452.028 532.356 453.585 531.399" stroke="#9ADC83" stroke-miterlimit="10" stroke-linecap="round" stroke-linejoin="round"/>
<path d="M440.774 540.378C441.972 539.54 443.289 538.582 444.486 537.744" stroke="#9ADC83" stroke-miterlimit="10" stroke-linecap="round" stroke-linejoin="round"/>
<path d="M412.041 560.371C420.062 554.744 428.084 549.117 436.225 543.49" stroke="#9ADC83" stroke-miterlimit="10" stroke-linecap="round" stroke-linejoin="round"/>
<path d="M459.93 569.231C468.909 570.907 477.888 572.583 486.987 574.259" stroke="#9ADC83" stroke-miterlimit="10" stroke-linecap="round" stroke-linejoin="round"/>
<path d="M447.239 566.836C449.394 567.195 451.43 567.674 453.585 568.033" stroke="#9ADC83" stroke-miterlimit="10" stroke-linecap="round" stroke-linejoin="round"/>
<path d="M436.464 564.801C438.26 565.16 440.056 565.519 441.852 565.759" stroke="#9ADC83" stroke-miterlimit="10" stroke-linecap="round" stroke-linejoin="round"/>
<path d="M448.916 502.665C450.352 503.144 451.669 503.743 453.106 504.222" stroke="#9ADC83" stroke-miterlimit="10" stroke-linecap="round" stroke-linejoin="round"/>
<path d="M445.683 506.137C447 506.496 448.197 506.856 449.514 507.215" stroke="#9ADC83" stroke-miterlimit="10" stroke-linecap="round" stroke-linejoin="round"/>
<path d="M442.211 509.609C443.528 510.088 444.845 510.687 446.162 511.166" stroke="#9ADC83" stroke-miterlimit="10" stroke-linecap="round" stroke-linejoin="round"/>
<path d="M438.62 513.201C440.056 513.56 441.493 513.8 442.93 514.159" stroke="#9ADC83" stroke-miterlimit="10" stroke-linecap="round" stroke-linejoin="round"/>
<path d="M435.507 516.314C436.465 516.912 437.662 517.152 438.859 517.032" stroke="#9ADC83" stroke-miterlimit="10" stroke-linecap="round" stroke-linejoin="round"/>
<path d="M432.274 519.546C432.035 519.546 431.915 519.905 432.154 520.025C433.471 520.264 434.788 520.384 436.105 520.624" stroke="#9ADC83" stroke-miterlimit="10" stroke-linecap="round" stroke-linejoin="round"/>
<path d="M430 523.018C430.838 524.096 432.394 524.694 433.711 524.215" stroke="#9ADC83" stroke-miterlimit="10" stroke-linecap="round" stroke-linejoin="round"/>
<path d="M426.288 527.687C427.725 527.927 429.042 528.166 430.478 528.406" stroke="#9ADC83" stroke-miterlimit="10" stroke-linecap="round" stroke-linejoin="round"/>
<path d="M423.175 530.561C424.373 530.8 425.57 530.92 426.767 531.159" stroke="#9ADC83" stroke-miterlimit="10" stroke-linecap="round" stroke-linejoin="round"/>
<path d="M420.661 533.434C421.379 533.913 422.218 534.032 423.056 533.673" stroke="#9ADC83" stroke-miterlimit="10" stroke-linecap="round" stroke-linejoin="round"/>
<path d="M418.147 536.307C418.626 536.906 419.464 537.026 420.063 536.666" stroke="#9ADC83" stroke-miterlimit="10" stroke-linecap="round" stroke-linejoin="round"/>
<path d="M456.937 518.469C458.374 518.948 459.81 519.426 461.247 519.905" stroke="#9ADC83" stroke-miterlimit="10" stroke-linecap="round" stroke-linejoin="round"/>
<path d="M453.226 520.384C454.423 520.743 455.62 520.983 456.817 521.342" stroke="#9ADC83" stroke-miterlimit="10" stroke-linecap="round" stroke-linejoin="round"/>
<path d="M449.395 523.018C450.472 523.497 451.669 523.617 452.866 523.736" stroke="#9ADC83" stroke-miterlimit="10" stroke-linecap="round" stroke-linejoin="round"/>
<path d="M445.563 525.173C445.324 525.293 445.204 525.413 444.965 525.532C446.162 525.293 447.24 525.413 448.437 525.652" stroke="#9ADC83" stroke-miterlimit="10" stroke-linecap="round" stroke-linejoin="round"/>
<path d="M439.937 527.927C441.493 528.166 443.049 528.286 444.606 528.525" stroke="#9ADC83" stroke-miterlimit="10" stroke-linecap="round" stroke-linejoin="round"/>
<path d="M436.824 530.561C437.901 530.68 438.979 530.8 440.176 530.8" stroke="#9ADC83" stroke-miterlimit="10" stroke-linecap="round" stroke-linejoin="round"/>
<path d="M432.633 533.075C433.711 533.194 434.788 533.314 435.986 533.434" stroke="#9ADC83" stroke-miterlimit="10" stroke-linecap="round" stroke-linejoin="round"/>
<path d="M428.443 535.349C429.521 535.469 430.598 535.589 431.796 535.709" stroke="#9ADC83" stroke-miterlimit="10" stroke-linecap="round" stroke-linejoin="round"/>
<path d="M423.894 538.342C425.21 538.582 426.647 538.702 427.964 538.941" stroke="#9ADC83" stroke-miterlimit="10" stroke-linecap="round" stroke-linejoin="round"/>
<path d="M419.943 540.737C421.26 540.976 422.577 541.216 423.894 541.335" stroke="#9ADC83" stroke-miterlimit="10" stroke-linecap="round" stroke-linejoin="round"/>
<path d="M417.069 543.49C418.386 543.61 419.583 543.73 420.9 543.85" stroke="#9ADC83" stroke-miterlimit="10" stroke-linecap="round" stroke-linejoin="round"/>
<path d="M412.999 545.765C414.316 545.885 415.633 546.124 416.95 546.244" stroke="#9ADC83" stroke-miterlimit="10" stroke-linecap="round" stroke-linejoin="round"/>
<path d="M410.125 548.04C411.203 548.16 412.4 548.399 413.478 548.519" stroke="#9ADC83" stroke-miterlimit="10" stroke-linecap="round" stroke-linejoin="round"/>
<path d="M407.372 550.554C408.569 550.674 409.767 550.674 410.964 550.793" stroke="#9ADC83" stroke-miterlimit="10" stroke-linecap="round" stroke-linejoin="round"/>
<path d="M402.583 553.308C403.9 553.308 405.337 553.308 406.654 553.308" stroke="#9ADC83" stroke-miterlimit="10" stroke-linecap="round" stroke-linejoin="round"/>
<path d="M400.069 555.822C401.386 555.822 402.703 555.822 404.02 555.941" stroke="#9ADC83" stroke-miterlimit="10" stroke-linecap="round" stroke-linejoin="round"/>
<path d="M522.185 565.878C518.713 564.561 515.72 561.688 514.284 557.857C511.65 550.793 515.242 542.772 522.305 540.138C529.369 537.504 537.39 541.096 540.024 548.16C541.7 552.589 540.862 557.378 538.348 560.97" stroke="#9ADC83" stroke-width="2" stroke-miterlimit="10" stroke-linecap="round" stroke-linejoin="round"/>
<path d="M524.34 563.364C524.101 563.245 523.981 563.125 523.742 563.005C522.904 562.406 522.305 561.449 522.425 560.491C522.664 559.054 524.101 558.216 525.538 557.857C526.974 557.498 528.411 557.378 529.488 556.42C530.925 555.223 531.045 552.709 529.728 551.272C528.531 549.836 526.136 549.596 524.58 550.434C522.544 551.512 520.988 553.427 518.833 551.512C517.277 550.195 517.396 548.279 518.354 546.603C520.749 542.892 526.256 541.335 530.326 542.652C535.235 544.209 538.587 549.716 537.629 554.864C537.27 556.66 536.432 558.336 535.235 559.773" stroke="#9ADC83" stroke-miterlimit="10" stroke-linecap="round" stroke-linejoin="round"/>
<path d="M525.178 552.11C526.016 552.47 526.854 552.829 527.812 553.188" stroke="#9ADC83" stroke-miterlimit="10" stroke-linecap="round" stroke-linejoin="round"/>
<path d="M522.544 553.188C523.622 553.547 524.58 553.906 525.657 554.265" stroke="#9ADC83" stroke-miterlimit="10" stroke-linecap="round" stroke-linejoin="round"/>
<path d="M520.509 554.744C521.467 555.343 522.545 555.702 523.622 555.702C523.263 555.702 522.784 555.702 522.425 555.702" stroke="#9ADC83" stroke-miterlimit="10" stroke-linecap="round" stroke-linejoin="round"/>
<path d="M515.96 554.744C517.516 555.582 519.073 556.42 520.629 557.139" stroke="#9ADC83" stroke-miterlimit="10" stroke-linecap="round" stroke-linejoin="round"/>
<path d="M513.925 551.392C515.361 552.23 516.678 553.068 518.115 553.787" stroke="#9ADC83" stroke-miterlimit="10" stroke-linecap="round" stroke-linejoin="round"/>
<path d="M520.15 547.8C521.227 548.279 522.305 548.758 523.382 549.237" stroke="#9ADC83" stroke-miterlimit="10" stroke-linecap="round" stroke-linejoin="round"/>
<path d="M522.544 545.885C523.742 545.885 525.059 546.244 526.016 546.962" stroke="#9ADC83" stroke-miterlimit="10" stroke-linecap="round" stroke-linejoin="round"/>
<path d="M527.573 545.286C528.77 545.885 530.087 546.603 531.284 547.202" stroke="#9ADC83" stroke-miterlimit="10" stroke-linecap="round" stroke-linejoin="round"/>
<path d="M531.763 550.195C532.482 550.793 533.32 551.392 534.038 552.11" stroke="#9ADC83" stroke-miterlimit="10" stroke-linecap="round" stroke-linejoin="round"/>
<path d="M532.002 555.223C532.84 555.822 533.679 556.301 534.397 556.899" stroke="#9ADC83" stroke-miterlimit="10" stroke-linecap="round" stroke-linejoin="round"/>
<path d="M529.481 588.574C531.124 581.149 526.436 573.799 519.012 572.157C511.588 570.514 504.237 575.201 502.595 582.626C500.953 590.05 505.64 597.4 513.064 599.043C520.489 600.685 527.839 595.998 529.481 588.574Z" stroke="#9ADC83" stroke-width="2" stroke-miterlimit="10" stroke-linecap="round" stroke-linejoin="round"/>
<path d="M519.192 575.456C524.101 577.013 527.453 582.52 526.495 587.668C525.537 592.696 520.629 596.767 515.481 596.527C514.523 596.527 513.445 596.288 512.607 595.689C511.769 595.091 511.171 594.133 511.29 593.175C511.53 591.738 512.967 590.9 514.403 590.541C515.84 590.182 517.277 590.062 518.354 589.104C519.791 587.907 519.91 585.393 518.593 583.956C517.396 582.52 515.002 582.28 513.445 583.118C511.41 584.196 509.854 586.111 507.699 584.196C506.142 582.879 506.262 580.963 507.22 579.287C509.614 575.576 515.122 574.139 519.192 575.456Z" stroke="#9ADC83" stroke-miterlimit="10" stroke-linecap="round" stroke-linejoin="round"/>
<path d="M514.044 584.675C514.882 585.034 515.721 585.393 516.678 585.752" stroke="#9ADC83" stroke-miterlimit="10" stroke-linecap="round" stroke-linejoin="round"/>
<path d="M511.291 585.872C512.368 586.231 513.326 586.59 514.403 586.95" stroke="#9ADC83" stroke-miterlimit="10" stroke-linecap="round" stroke-linejoin="round"/>
<path d="M509.375 587.428C510.333 588.027 511.41 588.386 512.488 588.386C512.129 588.386 511.65 588.386 511.291 588.386" stroke="#9ADC83" stroke-miterlimit="10" stroke-linecap="round" stroke-linejoin="round"/>
<path d="M504.826 587.428C506.382 588.266 507.938 589.104 509.495 589.823" stroke="#9ADC83" stroke-miterlimit="10" stroke-linecap="round" stroke-linejoin="round"/>
<path d="M502.791 583.957C504.227 584.795 505.544 585.633 506.981 586.351" stroke="#9ADC83" stroke-miterlimit="10" stroke-linecap="round" stroke-linejoin="round"/>
<path d="M508.896 580.365C509.974 580.844 511.051 581.323 512.129 581.801" stroke="#9ADC83" stroke-miterlimit="10" stroke-linecap="round" stroke-linejoin="round"/>
<path d="M511.41 578.569C512.607 578.569 513.924 578.928 514.882 579.646" stroke="#9ADC83" stroke-miterlimit="10" stroke-linecap="round" stroke-linejoin="round"/>
<path d="M516.438 577.97C517.636 578.569 518.953 579.287 520.15 579.886" stroke="#9ADC83" stroke-miterlimit="10" stroke-linecap="round" stroke-linejoin="round"/>
<path d="M520.509 582.759C521.228 583.358 522.066 583.956 522.784 584.675" stroke="#9ADC83" stroke-miterlimit="10" stroke-linecap="round" stroke-linejoin="round"/>
<path d="M520.749 587.788C521.587 588.386 522.425 588.865 523.143 589.464" stroke="#9ADC83" stroke-miterlimit="10" stroke-linecap="round" stroke-linejoin="round"/>
<path d="M518.953 590.9C519.671 591.379 520.509 591.738 521.228 592.217" stroke="#9ADC83" stroke-miterlimit="10" stroke-linecap="round" stroke-linejoin="round"/>
<path d="M514.882 593.055C515.601 593.774 516.558 594.253 517.636 594.372" stroke="#9ADC83" stroke-miterlimit="10" stroke-linecap="round" stroke-linejoin="round"/>
<path d="M519.791 571.625C520.629 566.956 523.742 562.766 528.531 561.09C535.594 558.456 543.616 562.047 546.25 569.111C548.405 574.858 546.489 581.083 541.94 584.675" stroke="#9ADC83" stroke-width="2" stroke-miterlimit="10" stroke-linecap="round" stroke-linejoin="round"/>
<path d="M529.009 580.484C529.608 579.646 530.686 579.048 531.763 578.808C533.2 578.449 534.636 578.329 535.714 577.372C537.151 576.174 537.27 573.66 535.953 572.224C534.756 570.787 532.362 570.548 530.805 571.386C528.77 572.463 527.214 574.379 525.059 572.463C523.502 571.146 523.622 569.231 524.58 567.555C526.974 563.843 532.481 562.287 536.552 563.604C541.461 565.16 544.813 570.667 543.855 575.815C543.256 578.808 541.341 581.442 538.707 583.118" stroke="#9ADC83" stroke-miterlimit="10" stroke-linecap="round" stroke-linejoin="round"/>
<path d="M531.284 573.062C532.122 573.421 532.96 573.78 533.918 574.139" stroke="#9ADC83" stroke-miterlimit="10" stroke-linecap="round" stroke-linejoin="round"/>
<path d="M528.65 574.259C529.728 574.618 530.686 574.977 531.763 575.336" stroke="#9ADC83" stroke-miterlimit="10" stroke-linecap="round" stroke-linejoin="round"/>
<path d="M526.256 568.752C527.333 569.231 528.411 569.709 529.488 570.188" stroke="#9ADC83" stroke-miterlimit="10" stroke-linecap="round" stroke-linejoin="round"/>
<path d="M528.65 566.956C529.848 566.956 531.165 567.315 532.122 568.033" stroke="#9ADC83" stroke-miterlimit="10" stroke-linecap="round" stroke-linejoin="round"/>
<path d="M533.798 566.238C534.996 566.836 536.313 567.555 537.51 568.153" stroke="#9ADC83" stroke-miterlimit="10" stroke-linecap="round" stroke-linejoin="round"/>
<path d="M537.869 571.146C538.587 571.745 539.426 572.343 540.144 573.062" stroke="#9ADC83" stroke-miterlimit="10" stroke-linecap="round" stroke-linejoin="round"/>
<path d="M538.108 576.174C538.946 576.773 539.785 577.252 540.503 577.851" stroke="#9ADC83" stroke-miterlimit="10" stroke-linecap="round" stroke-linejoin="round"/>
<path d="M536.312 579.167C537.031 579.646 537.869 580.006 538.587 580.484" stroke="#9ADC83" stroke-miterlimit="10" stroke-linecap="round" stroke-linejoin="round"/>
<path d="M545.651 587.428C546.848 588.745 547.925 590.302 548.524 592.098C551.158 599.161 547.566 607.182 540.503 609.816C533.439 612.45 525.418 608.859 522.784 601.795C522.305 600.598 522.066 599.401 521.946 598.203" stroke="#9ADC83" stroke-width="2" stroke-miterlimit="10" stroke-linecap="round" stroke-linejoin="round"/>
<path d="M529.728 584.435C530.087 584.316 530.446 584.196 530.805 583.956C536.193 581.921 541.939 583.478 545.651 587.428" stroke="#9ADC83" stroke-width="2" stroke-miterlimit="10" stroke-linecap="round" stroke-linejoin="round"/>
<path d="M529.847 587.788C532.481 586.231 536.073 585.752 538.826 586.71C543.735 588.266 547.087 593.774 546.129 598.922C545.172 603.95 540.263 608.02 535.115 607.781C534.157 607.781 533.08 607.542 532.242 606.943C531.404 606.344 530.805 605.387 530.925 604.429C531.164 602.992 532.601 602.154 534.038 601.795C535.474 601.436 536.911 601.316 537.988 600.358C539.425 599.161 539.545 596.647 538.228 595.21C536.911 593.774 534.636 593.534 533.08 594.372C531.045 595.45 529.488 597.365 527.333 595.45C526.974 595.21 526.735 594.851 526.495 594.492" stroke="#9ADC83" stroke-miterlimit="10" stroke-linecap="round" stroke-linejoin="round"/>
<path d="M533.559 596.048C534.397 596.408 535.235 596.767 536.192 597.126" stroke="#9ADC83" stroke-miterlimit="10" stroke-linecap="round" stroke-linejoin="round"/>
<path d="M530.925 597.246C532.002 597.605 532.96 597.964 534.038 598.323" stroke="#9ADC83" stroke-miterlimit="10" stroke-linecap="round" stroke-linejoin="round"/>
<path d="M528.89 598.682C529.847 599.281 530.925 599.64 532.002 599.64C531.643 599.64 531.164 599.64 530.805 599.64" stroke="#9ADC83" stroke-miterlimit="10" stroke-linecap="round" stroke-linejoin="round"/>
<path d="M530.925 589.943C532.122 589.943 533.439 590.302 534.397 591.02" stroke="#9ADC83" stroke-miterlimit="10" stroke-linecap="round" stroke-linejoin="round"/>
<path d="M535.953 589.224C537.15 589.823 538.467 590.541 539.665 591.14" stroke="#9ADC83" stroke-miterlimit="10" stroke-linecap="round" stroke-linejoin="round"/>
<path d="M540.144 594.133C540.862 594.731 541.7 595.33 542.418 596.048" stroke="#9ADC83" stroke-miterlimit="10" stroke-linecap="round" stroke-linejoin="round"/>
<path d="M540.383 599.161C541.221 599.76 542.059 600.239 542.777 600.837" stroke="#9ADC83" stroke-miterlimit="10" stroke-linecap="round" stroke-linejoin="round"/>
<path d="M538.587 602.154C539.305 602.633 540.143 602.992 540.862 603.471" stroke="#9ADC83" stroke-miterlimit="10" stroke-linecap="round" stroke-linejoin="round"/>
<path d="M534.517 604.429C535.235 605.147 536.193 605.626 537.27 605.746" stroke="#9ADC83" stroke-miterlimit="10" stroke-linecap="round" stroke-linejoin="round"/>
<path d="M504.347 608.739C505.185 604.908 507.819 601.436 511.53 599.52" stroke="#9ADC83" stroke-width="2" stroke-miterlimit="10" stroke-linecap="round" stroke-linejoin="round"/>
<path d="M531.643 610.175C532.601 616.521 528.889 622.507 522.664 624.782C516.678 627.056 510.093 624.782 506.621 619.873" stroke="#9ADC83" stroke-width="2" stroke-miterlimit="10" stroke-linecap="round" stroke-linejoin="round"/>
<path d="M527.932 608.739C528.411 610.415 528.65 612.091 528.291 613.767C527.333 618.795 522.425 622.866 517.277 622.627C516.319 622.627 515.241 622.387 514.403 621.788C513.565 621.19 512.967 620.232 513.086 619.274C513.326 617.838 514.762 617 516.199 616.64C517.636 616.281 519.072 616.162 520.15 615.204C521.587 614.007 521.706 611.492 520.389 610.056C519.072 608.619 516.798 608.38 515.241 609.218C513.206 610.295 511.65 612.211 509.495 610.295C507.938 608.978 508.058 607.063 509.016 605.387C511.41 601.675 516.917 600.119 520.988 601.436C521.587 601.675 522.185 601.915 522.784 602.274" stroke="#9ADC83" stroke-miterlimit="10" stroke-linecap="round" stroke-linejoin="round"/>
<path d="M515.72 610.894C516.558 611.253 517.396 611.612 518.354 611.971" stroke="#9ADC83" stroke-miterlimit="10" stroke-linecap="round" stroke-linejoin="round"/>
<path d="M513.086 612.091C514.164 612.45 515.122 612.809 516.199 613.169" stroke="#9ADC83" stroke-miterlimit="10" stroke-linecap="round" stroke-linejoin="round"/>
<path d="M511.171 613.528C512.129 614.126 513.206 614.485 514.284 614.485C513.924 614.485 513.446 614.485 513.086 614.485" stroke="#9ADC83" stroke-miterlimit="10" stroke-linecap="round" stroke-linejoin="round"/>
<path d="M506.621 613.528C508.177 614.366 509.734 615.204 511.29 615.922" stroke="#9ADC83" stroke-miterlimit="10" stroke-linecap="round" stroke-linejoin="round"/>
<path d="M504.586 610.175C506.023 611.014 507.34 611.852 508.776 612.57" stroke="#9ADC83" stroke-miterlimit="10" stroke-linecap="round" stroke-linejoin="round"/>
<path d="M510.692 606.584C511.769 607.063 512.847 607.542 513.924 608.021" stroke="#9ADC83" stroke-miterlimit="10" stroke-linecap="round" stroke-linejoin="round"/>
<path d="M513.086 604.788C514.284 604.788 515.601 605.147 516.558 605.866" stroke="#9ADC83" stroke-miterlimit="10" stroke-linecap="round" stroke-linejoin="round"/>
<path d="M518.234 604.07C519.432 604.668 520.749 605.387 521.946 605.985" stroke="#9ADC83" stroke-miterlimit="10" stroke-linecap="round" stroke-linejoin="round"/>
<path d="M522.305 608.978C523.023 609.577 523.861 610.175 524.579 610.894" stroke="#9ADC83" stroke-miterlimit="10" stroke-linecap="round" stroke-linejoin="round"/>
<path d="M522.544 614.007C523.382 614.605 524.221 615.084 524.939 615.683" stroke="#9ADC83" stroke-miterlimit="10" stroke-linecap="round" stroke-linejoin="round"/>
<path d="M520.749 617.119C521.467 617.598 522.305 617.957 523.023 618.436" stroke="#9ADC83" stroke-miterlimit="10" stroke-linecap="round" stroke-linejoin="round"/>
<path d="M516.678 619.274C517.396 619.993 518.354 620.472 519.431 620.591" stroke="#9ADC83" stroke-miterlimit="10" stroke-linecap="round" stroke-linejoin="round"/>
</g>
<path d="M385.703 587.189C384.865 587.189 384.266 586.471 384.266 585.633C384.266 584.794 384.984 584.196 385.822 584.196C386.661 584.196 387.259 584.914 387.259 585.752C387.259 586.59 386.541 587.189 385.703 587.189Z" fill="#9ADC83"/>
<path d="M391.808 582.52C391.09 582.041 390.97 581.203 391.449 580.485C391.928 579.766 392.766 579.646 393.484 580.125C394.203 580.604 394.322 581.442 393.843 582.161C393.364 582.879 392.407 582.999 391.808 582.52Z" fill="#9ADC83"/>
<path d="M391.09 574.259C390.252 574.259 389.653 573.541 389.653 572.703C389.653 571.865 390.372 571.266 391.21 571.266C392.048 571.266 392.646 571.984 392.646 572.822C392.646 573.541 391.928 574.259 391.09 574.259Z" fill="#9ADC83"/>
<path d="M384.984 602.992C384.146 602.992 383.547 602.274 383.547 601.436C383.547 600.598 384.266 599.999 385.104 599.999C385.942 599.999 386.54 600.717 386.54 601.556C386.421 602.274 385.822 602.992 384.984 602.992Z" fill="#9ADC83"/>
<path d="M384.864 593.175C384.864 592.337 385.463 591.738 386.301 591.619C387.139 591.619 387.738 592.217 387.857 593.055C387.857 593.893 387.259 594.492 386.421 594.612C385.583 594.612 384.864 594.013 384.864 593.175Z" fill="#9ADC83"/>
<path d="M390.97 598.203C390.252 597.724 390.132 596.886 390.611 596.168C391.09 595.45 391.928 595.33 392.646 595.809C393.365 596.288 393.484 597.126 393.005 597.844C392.646 598.562 391.689 598.682 390.97 598.203Z" fill="#9ADC83"/>
<path d="M383.308 579.048C382.59 578.569 382.47 577.731 382.949 577.013C383.428 576.294 384.266 576.175 384.984 576.653C385.703 577.132 385.822 577.97 385.343 578.689C384.865 579.407 384.026 579.527 383.308 579.048Z" fill="#9ADC83"/>
<path d="M390.372 589.943C389.534 589.943 388.935 589.224 388.935 588.386C388.935 587.548 389.653 586.949 390.491 586.949C391.329 586.949 391.928 587.668 391.928 588.506C391.808 589.344 391.21 589.943 390.372 589.943Z" fill="#9ADC83"/>
<path d="M394.801 592.217C393.963 592.217 393.365 591.499 393.365 590.661C393.365 589.823 394.083 589.224 394.921 589.224C395.759 589.224 396.358 589.943 396.358 590.781C396.238 591.619 395.639 592.217 394.801 592.217Z" fill="#9ADC83"/>
<path d="M400.788 587.548C400.069 587.069 399.95 586.231 400.428 585.513C400.907 584.794 401.745 584.675 402.464 585.154C403.182 585.632 403.302 586.471 402.823 587.189C402.464 587.787 401.506 588.027 400.788 587.548Z" fill="#9ADC83"/>
<path d="M400.189 579.168C399.351 579.168 398.752 578.449 398.752 577.611C398.752 576.773 399.47 576.174 400.308 576.174C401.146 576.174 401.745 576.893 401.745 577.731C401.625 578.569 401.027 579.287 400.189 579.168Z" fill="#9ADC83"/>
<path d="M393.964 607.901C393.125 607.901 392.527 607.182 392.527 606.344C392.527 605.506 393.245 604.908 394.083 604.908C394.921 604.908 395.52 605.626 395.52 606.464C395.52 607.302 394.802 608.02 393.964 607.901Z" fill="#9ADC83"/>
<path d="M400.069 603.232C399.351 602.753 399.231 601.915 399.71 601.196C400.189 600.478 401.027 600.358 401.745 600.837C402.464 601.316 402.584 602.154 402.105 602.872C401.626 603.591 400.668 603.71 400.069 603.232Z" fill="#9ADC83"/>
<path d="M399.351 594.971C398.513 594.971 397.914 594.252 397.914 593.414C397.914 592.576 398.632 591.978 399.47 591.978C400.308 591.978 400.907 592.696 400.907 593.534C400.907 594.372 400.189 594.971 399.351 594.971Z" fill="#9ADC83"/>
<path d="M543.017 655.191C543.615 655.67 543.735 656.628 543.136 657.226C542.658 657.825 541.7 657.944 541.101 657.346C540.503 656.867 540.383 655.909 540.981 655.311C541.46 654.712 542.418 654.592 543.017 655.191Z" fill="#9ADC83"/>
<path d="M535.354 654.951C535.594 655.67 535.115 656.508 534.277 656.747C533.559 656.987 532.721 656.508 532.481 655.67C532.242 654.951 532.721 654.113 533.559 653.874C534.277 653.754 535.115 654.113 535.354 654.951Z" fill="#9ADC83"/>
<path d="M530.566 661.776C531.164 662.254 531.284 663.212 530.685 663.811C530.206 664.409 529.249 664.529 528.65 663.931C528.051 663.452 527.932 662.494 528.53 661.895C529.009 661.297 529.967 661.177 530.566 661.776Z" fill="#9ADC83"/>
<path d="M553.672 643.578C554.271 644.057 554.39 645.014 553.792 645.613C553.313 646.212 552.355 646.331 551.756 645.733C551.158 645.254 551.038 644.296 551.637 643.698C552.116 643.099 553.073 642.979 553.672 643.578Z" fill="#9ADC83"/>
<path d="M547.566 651.12C547.087 651.719 546.13 651.958 545.531 651.479C544.932 651.001 544.693 650.043 545.172 649.444C545.651 648.846 546.608 648.606 547.207 649.085C547.925 649.564 548.045 650.522 547.566 651.12Z" fill="#9ADC83"/>
<path d="M546.01 643.338C546.249 644.057 545.77 644.895 544.932 645.134C544.214 645.374 543.376 644.895 543.136 644.057C542.897 643.338 543.376 642.5 544.214 642.261C544.932 642.141 545.77 642.5 546.01 643.338Z" fill="#9ADC83"/>
<path d="M539.664 662.973C539.904 663.691 539.425 664.529 538.587 664.769C537.869 665.008 537.031 664.529 536.791 663.691C536.552 662.973 537.031 662.135 537.869 661.895C538.707 661.776 539.545 662.254 539.664 662.973Z" fill="#9ADC83"/>
<path d="M541.221 650.163C541.819 650.641 541.939 651.599 541.341 652.198C540.862 652.796 539.904 652.916 539.305 652.318C538.707 651.839 538.587 650.881 539.186 650.282C539.664 649.684 540.622 649.564 541.221 650.163Z" fill="#9ADC83"/>
<path d="M539.186 645.493C539.784 645.972 539.904 646.93 539.305 647.529C538.826 648.127 537.869 648.247 537.27 647.648C536.672 647.17 536.552 646.212 537.15 645.613C537.749 645.134 538.587 645.015 539.186 645.493Z" fill="#9ADC83"/>
<path d="M531.523 645.254C531.763 645.972 531.284 646.81 530.446 647.05C529.728 647.289 528.889 646.81 528.65 645.972C528.411 645.254 528.889 644.416 529.728 644.176C530.566 644.057 531.404 644.536 531.523 645.254Z" fill="#9ADC83"/>
<path d="M526.734 652.078C527.333 652.557 527.453 653.515 526.854 654.113C526.375 654.712 525.418 654.832 524.819 654.233C524.22 653.754 524.101 652.796 524.699 652.198C525.298 651.599 526.136 651.599 526.734 652.078Z" fill="#9ADC83"/>
<path d="M549.841 633.88C550.44 634.359 550.559 635.317 549.961 635.916C549.482 636.514 548.524 636.634 547.925 636.035C547.327 635.556 547.207 634.599 547.806 634C548.404 633.401 549.242 633.401 549.841 633.88Z" fill="#9ADC83"/>
<path d="M542.179 633.641C542.418 634.359 541.939 635.197 541.101 635.437C540.383 635.676 539.545 635.197 539.305 634.359C539.066 633.641 539.545 632.803 540.383 632.563C541.221 632.444 541.939 632.923 542.179 633.641Z" fill="#9ADC83"/>
<path d="M537.39 640.465C537.988 640.944 538.108 641.902 537.509 642.5C537.031 643.099 536.073 643.219 535.474 642.62C534.876 642.141 534.756 641.183 535.354 640.585C535.953 639.986 536.791 639.986 537.39 640.465Z" fill="#9ADC83"/>
<path d="M496.924 536.666C497.882 537.744 501.473 537.983 502.91 537.983C504.347 537.983 505.783 537.744 507.1 538.223C509.016 538.941 509.973 541.096 510.812 542.892C511.65 544.807 512.488 546.843 514.403 547.681" stroke="#9ADC83" stroke-width="2" stroke-miterlimit="10" stroke-linecap="round" stroke-linejoin="round"/>
<path d="M509.375 549.477C509.974 551.512 509.136 553.787 507.579 555.223C506.023 556.66 503.868 557.378 501.833 557.498C499.678 557.618 497.642 557.378 495.487 557.019" stroke="#9ADC83" stroke-miterlimit="10" stroke-linecap="round" stroke-linejoin="round"/>
<path d="M502.791 572.224C505.424 568.273 510.213 565.998 515.002 566.357" stroke="#9ADC83" stroke-miterlimit="10" stroke-linecap="round" stroke-linejoin="round"/>
<path d="M492.255 583.597C491.417 585.513 492.255 587.787 493.811 589.224C495.248 590.661 497.283 591.499 499.199 592.217" stroke="#9ADC83" stroke-miterlimit="10" stroke-linecap="round" stroke-linejoin="round"/>
</g>
<defs>
<filter id="filter0_d" x="0" y="-3.05176e-05" width="637" height="742" filterUnits="userSpaceOnUse" color-interpolation-filters="sRGB">
<feFlood flood-opacity="0" result="BackgroundImageFix"/>
<feColorMatrix in="SourceAlpha" type="matrix" values="0 0 0 0 0 0 0 0 0 0 0 0 0 0 0 0 0 0 127 0" result="hardAlpha"/>
<feOffset/>
<feGaussianBlur stdDeviation="12.5"/>
<feColorMatrix type="matrix" values="0 0 0 0 0.0435417 0 0 0 0 0.55 0 0 0 0 0.144833 0 0 0 0.1 0"/>
<feBlend mode="normal" in2="BackgroundImageFix" result="effect1_dropShadow"/>
<feBlend mode="normal" in="SourceGraphic" in2="effect1_dropShadow" result="shape"/>
</filter>
<linearGradient id="paint0_linear" x1="64.2523" y1="25" x2="642.988" y2="717" gradientUnits="userSpaceOnUse">
<stop stop-color="#E8FFF2"/>
<stop offset="1" stop-color="#FFECE9"/>
</linearGradient>
</defs>
</svg>
