<svg width="106" height="106" viewBox="0 0 106 106" fill="none" xmlns="http://www.w3.org/2000/svg">
<g filter="url(#filter0_di)">
<circle cx="50" cy="53" r="28" fill="#F6F6F6"/>
</g>
<g filter="url(#filter1_b)">
<circle cx="50" cy="53" r="28" fill="white" fill-opacity="0.1"/>
<circle cx="50" cy="53" r="27.5" stroke="white"/>
</g>
<path fill-rule="evenodd" clip-rule="evenodd" d="M50.0163 28.7799C56.7132 28.7799 62.7722 31.4905 67.141 35.8593C71.5099 40.2601 74.2205 46.3191 74.2205 53.0159C74.2205 59.7127 71.5099 65.7718 67.141 70.1406C62.7722 74.5095 56.7132 77.2201 50.0163 77.2201C43.3195 77.2201 37.2605 74.5095 32.8916 70.1406C28.4909 65.7399 25.7803 59.6809 25.7803 53.0159C25.7803 46.3191 28.4909 40.2601 32.8598 35.8912C37.2605 31.4905 43.3195 28.7799 50.0163 28.7799ZM66.5989 36.4015C62.3576 32.1283 56.4899 29.5133 50.0163 29.5133C43.5428 29.5133 37.6432 32.1283 33.4019 36.4015C29.1287 40.6428 26.5137 46.5105 26.5137 53.0159C26.5137 59.4895 29.1287 65.3891 33.4019 69.6304C37.6432 73.8717 43.5109 76.5185 50.0163 76.5185C56.5218 76.5185 62.3895 73.9036 66.6308 69.6304C70.8721 65.3891 73.519 59.5214 73.519 53.0159C73.4871 46.5105 70.8721 40.6428 66.5989 36.4015Z" fill="#3D3222"/>
<path fill-rule="evenodd" clip-rule="evenodd" d="M50.0164 30.6295C56.2029 30.6295 61.7836 33.1487 65.8336 37.1987C69.8836 41.2168 72.3709 46.8294 72.3709 53.0159C72.3709 59.2025 69.8517 64.7832 65.8017 68.8332C61.7517 72.8831 56.1392 75.4024 49.9845 75.4024C43.7979 75.4024 38.2172 72.8831 34.1672 68.8332C30.1173 64.7832 27.6299 59.1706 27.6299 53.0159C27.6299 46.8294 30.1492 41.2487 34.1991 37.1987C38.2172 33.1168 43.8298 30.6295 50.0164 30.6295ZM65.4509 37.5495C61.4966 33.5952 56.0435 31.1716 50.0164 31.1716C43.9892 31.1716 38.5361 33.6271 34.5818 37.5814C30.5956 41.5038 28.172 46.9569 28.172 53.0159C28.172 59.0431 30.6275 64.4962 34.5818 68.4505C38.5042 72.4048 43.9573 74.8284 50.0164 74.8284C56.0435 74.8284 61.4966 72.3729 65.4509 68.4186C69.4052 64.4643 71.8607 59.0112 71.8607 52.984C71.8288 46.9569 69.4052 41.5038 65.4509 37.5495Z" fill="#3D3222"/>
<path fill-rule="evenodd" clip-rule="evenodd" d="M36.2402 45.9046L34.8689 46.064C34.8689 46.0959 34.837 46.1278 34.8051 46.1916L34.4225 47.0207L35.5067 47.499L35.1878 48.2006L31.5205 46.5424L32.2221 45.0117C32.4453 44.5333 32.7323 44.2144 33.0512 44.055C33.402 43.8955 33.7528 43.8955 34.1673 44.0869C34.4543 44.2144 34.6776 44.4058 34.837 44.5971C34.9965 44.8203 35.0602 45.0754 35.0602 45.3624L36.6547 45.1073L36.2402 45.9046ZM33.8166 46.7337L34.1992 45.9046C34.3268 45.6495 34.3587 45.3943 34.2949 45.203C34.2311 45.0117 34.1036 44.8522 33.8803 44.7565C33.6571 44.6609 33.4658 44.6609 33.2744 44.7247C33.0831 44.8203 32.9555 44.9798 32.828 45.2668L32.4453 46.0959L33.8166 46.7337ZM33.8803 41.9503L37.0693 44.4695L38.9508 42.0778L38.4087 41.6633L37.0055 43.4491L36.2083 42.8113L37.4201 41.2487L36.878 40.8341L35.6662 42.3648L34.8689 41.7589L36.2402 40.0369L35.698 39.6223L33.8803 41.9503ZM39.748 37.6133C39.4929 37.6452 39.2697 37.7089 39.0464 37.7727C38.8232 37.8684 38.6638 37.9322 38.5362 38.0597C38.3768 38.1873 38.2811 38.283 38.2492 38.4105C38.2173 38.5381 38.2173 38.6337 38.313 38.7294C38.3768 38.8251 38.4724 38.857 38.5681 38.8889C38.6638 38.8889 38.7913 38.8889 38.9189 38.857C39.0464 38.8251 39.2059 38.7613 39.3972 38.6975C39.6523 38.6019 39.8756 38.5062 40.0669 38.4743C40.2582 38.4424 40.4496 38.4424 40.6409 38.4743C40.8323 38.5381 41.0236 38.6337 41.183 38.857C41.3425 39.0483 41.4063 39.2715 41.4382 39.4948C41.4382 39.718 41.3744 39.9412 41.2787 40.1644C41.1512 40.3877 40.9598 40.579 40.7366 40.7703C40.4815 40.9617 40.1945 41.1211 39.9075 41.2168C39.5886 41.3125 39.3016 41.3444 38.9827 41.3444L38.8232 40.6109C39.1102 40.6428 39.3653 40.6109 39.6523 40.5471C39.9075 40.4833 40.1307 40.3558 40.322 40.2282C40.4815 40.1007 40.609 39.9412 40.6409 39.8137C40.6728 39.6861 40.6728 39.5585 40.5771 39.431C40.5134 39.3353 40.4177 39.3034 40.322 39.2715C40.2264 39.2715 40.0988 39.2715 39.9712 39.3034C39.8437 39.3353 39.6842 39.3991 39.4929 39.4629C39.2378 39.5585 39.0146 39.6542 38.8232 39.6861C38.6319 39.718 38.4405 39.718 38.2492 39.6861C38.0579 39.6542 37.8665 39.5267 37.7071 39.3034C37.5476 39.1121 37.4839 38.9208 37.4839 38.6975C37.4839 38.4743 37.5157 38.2511 37.6433 38.0597C37.7709 37.8365 37.9303 37.6452 38.1854 37.4538C38.3768 37.2944 38.6319 37.1668 38.8551 37.0712C39.1102 36.9755 39.3653 36.9117 39.5886 36.8798L39.748 37.6133ZM40.5134 35.955L40.8004 36.5928L41.9484 36.0826L43.3515 39.144L44.0531 38.8251L42.6819 35.7318L43.8299 35.2216L43.5429 34.5838L40.5134 35.955ZM48.3263 37.7408L47.8161 36.9436L45.8708 37.2944L45.6795 38.1873L44.8503 38.3467L45.9027 34.0416L46.6999 33.9141L49.1554 37.6133L48.3263 37.7408ZM45.9984 36.5928L47.4015 36.3377L46.4129 34.7751L45.9984 36.5928ZM50.3354 35.955C50.3035 36.2739 50.3672 36.529 50.5586 36.7204C50.718 36.9117 50.9731 37.0393 51.2601 37.0393C51.579 37.0712 51.8023 36.9755 51.9936 36.816C52.1849 36.6566 52.2806 36.4015 52.3125 36.0826L52.5038 33.6909L53.2692 33.7546L53.0779 36.1464C53.046 36.4971 52.9503 36.7842 52.7908 37.0393C52.6314 37.2944 52.4082 37.4857 52.1212 37.5814C51.8342 37.7089 51.5153 37.7408 51.1645 37.7089C50.8137 37.6771 50.4948 37.5814 50.2397 37.4219C49.9846 37.2625 49.7932 37.0393 49.6657 36.7842C49.5381 36.4971 49.5062 36.2101 49.5062 35.8594L49.6976 33.4676L50.4629 33.5314L50.3354 35.955ZM56.2349 39.0483L56.0117 37.6771C55.9798 37.6771 55.9479 37.6452 55.8841 37.6452L55.0231 37.2944L54.5767 38.4105L53.8432 38.1235L55.342 34.3605L56.9046 34.9664C57.3829 35.1578 57.7337 35.4129 57.8932 35.7637C58.0845 36.0826 58.0845 36.4653 57.9251 36.8798C57.7975 37.1668 57.6381 37.3901 57.4467 37.5495C57.2235 37.7089 57.0003 37.8046 56.7133 37.8046L57.064 39.3991L56.2349 39.0483ZM55.2782 36.6566L56.1392 37.0074C56.4263 37.103 56.6495 37.1349 56.8408 37.0712C57.0322 37.0074 57.1597 36.8479 57.2554 36.6247C57.3511 36.4015 57.3511 36.1782 57.2554 36.0188C57.1597 35.8594 56.9684 35.6999 56.6814 35.6042L55.8204 35.2535L55.2782 36.6566ZM60.1254 41.5676L60.7951 42.0778L61.9113 37.8046L61.2735 37.2944L57.3511 39.3991L57.9888 39.9093L58.818 39.4629L60.3806 40.6747L60.1254 41.5676ZM59.4558 39.0802L61.0821 38.1873L60.5719 39.9731L59.4558 39.0802ZM66.1207 42.4286L66.5671 43.0345L63.2506 45.3943L62.8361 44.7884L63.9203 41.4719L61.6561 43.0983L61.2097 42.4924L64.5262 40.1326L64.9408 40.7385L63.8565 44.055L66.1207 42.4286ZM67.3006 44.3739L66.6628 44.629L67.1412 45.8089L64.016 47.0526L64.303 47.7861L67.4282 46.5424L67.9065 47.7223L68.5443 47.4672L67.3006 44.3739Z" fill="#3D3222"/>
<path d="M31.6812 51.8776L30.5537 53.0051L31.6812 54.1325L32.8086 53.0051L31.6812 51.8776Z" fill="#3D3222"/>
<path d="M68.3521 51.8736L67.2246 53.0011L68.3521 54.1286L69.4795 53.0011L68.3521 51.8736Z" fill="#3D3222"/>
<path fill-rule="evenodd" clip-rule="evenodd" d="M34.1027 59.4576L34.2941 59.9679L33.1142 60.4143C32.9228 60.2868 32.7634 60.1273 32.6039 59.936C32.4445 59.7446 32.3488 59.5214 32.2531 59.3301C32.1575 59.0112 32.1256 58.7242 32.1575 58.4372C32.2212 58.1502 32.3169 57.8632 32.5401 57.6399C32.7315 57.4167 32.9866 57.2254 33.2736 57.1297C33.5606 57.034 33.8795 57.0021 34.1665 57.0659C34.4535 57.1297 34.7086 57.2573 34.9637 57.4805C35.187 57.6718 35.3783 57.9588 35.474 58.2458C35.5378 58.4691 35.6015 58.6923 35.6015 58.9474C35.6015 59.2025 35.5697 59.4258 35.474 59.6171L34.9 59.3939C34.9637 59.2344 34.9956 59.075 35.0275 58.8836C35.0275 58.6923 34.9956 58.5328 34.9637 58.3734C34.9 58.1821 34.7724 58.0226 34.6449 57.8951C34.4854 57.7675 34.326 57.6718 34.1346 57.6399C33.9433 57.608 33.7519 57.608 33.5606 57.7037C33.3693 57.7675 33.2098 57.8951 33.0823 58.0545C32.9547 58.2139 32.859 58.3734 32.8271 58.5966C32.7953 58.788 32.7953 58.9793 32.8909 59.2025C32.9228 59.2982 32.9866 59.4258 33.0504 59.5214C33.1142 59.6171 33.2098 59.7128 33.3055 59.8084L34.1027 59.4576ZM34.5173 63.6033L34.9 64.2092L35.4421 62.9974C35.6334 63.1249 35.8248 63.1887 36.048 63.1887C36.2712 63.1887 36.4626 63.1249 36.6858 62.9655C37.0047 62.7742 37.1641 62.519 37.196 62.232C37.2279 61.945 37.1322 61.5942 36.909 61.2435L36.1756 60.0954L33.4012 61.8494L33.7519 62.3915L34.5811 61.8812L34.9637 62.519C34.9956 62.5509 35.0275 62.5828 35.0275 62.6147L34.5173 63.6033ZM35.0275 61.5942L36.048 60.9565L36.4307 61.5942C36.5582 61.7856 36.622 61.9769 36.5901 62.1364C36.5582 62.2958 36.4944 62.4234 36.3031 62.5509C36.1437 62.6466 35.9523 62.6785 35.8248 62.6466C35.6653 62.5828 35.5378 62.4553 35.4102 62.2639L35.0275 61.5942ZM38.1527 62.9655L39.8429 64.7194L39.4602 65.1021L38.2165 63.8265L37.6425 64.4005L38.7586 65.5485L38.3759 65.9312L37.2598 64.7832L36.6539 65.3572L37.9295 66.6966L37.5468 67.0792L35.8248 65.2934L38.1527 62.9655ZM40.5763 69.2158L41.1503 69.5985L41.7562 66.0588L41.2141 65.708L38.2165 67.6851L38.7586 68.0359L39.3964 67.6214L40.7358 68.5143L40.5763 69.2158ZM39.8747 67.2387L41.1184 66.4096L40.8314 67.8765L39.8747 67.2387ZM42.7767 66.7285L45.2641 67.7489L45.0409 68.2592L44.0842 67.8765L43.0637 70.4277L42.4897 70.2044L43.5102 67.6533L42.5535 67.2706L42.7767 66.7285ZM45.8062 67.8765L45.2003 71.1292L47.6239 71.5757L47.7196 71.0336L45.9019 70.6828L46.0613 69.8536L47.6239 70.1406L47.7196 69.5985L46.157 69.3115L46.3164 68.5143L48.0704 68.8332L48.166 68.2911L45.8062 67.8765ZM50.9723 69.184C50.8129 69.0883 50.6215 69.0245 50.4302 68.9607C50.2389 68.897 50.0794 68.897 49.9518 68.897C49.7924 68.897 49.6967 68.9288 49.6011 68.9926C49.5054 69.0564 49.4735 69.1202 49.4735 69.2477C49.4735 69.3434 49.5054 69.4072 49.5692 69.471C49.633 69.5347 49.6967 69.5666 49.7924 69.5985C49.8881 69.6304 50.0156 69.6623 50.1751 69.7261C50.3983 69.7899 50.5896 69.8536 50.7172 69.9174C50.8766 69.9812 50.9723 70.0769 51.0999 70.2044C51.1955 70.332 51.2593 70.4914 51.2593 70.7147C51.2593 70.906 51.2274 71.0973 51.0999 71.2568C51.0042 71.4162 50.8448 71.5438 50.6534 71.6076C50.4621 71.7032 50.2389 71.7351 50.0156 71.7351C49.7605 71.7351 49.5054 71.7032 49.2503 71.6076C48.9952 71.5119 48.7719 71.3843 48.5806 71.2568L48.8357 70.7147C48.9952 70.8741 49.1865 70.9698 49.4097 71.0654C49.633 71.1611 49.8243 71.193 49.9837 71.1611C50.1751 71.1611 50.3026 71.1292 50.3983 71.0336C50.494 70.9698 50.5577 70.8741 50.5259 70.7465C50.5259 70.6509 50.494 70.5871 50.4302 70.5233C50.3664 70.4595 50.3026 70.4277 50.207 70.3958C50.1113 70.3639 49.9837 70.332 49.8243 70.2682C49.6011 70.2044 49.4097 70.1406 49.2822 70.1088C49.1546 70.045 49.0271 69.9493 48.8995 69.8217C48.8038 69.6942 48.74 69.5347 48.74 69.3115C48.74 69.1202 48.7719 68.9607 48.8676 68.8013C48.9633 68.6418 49.0908 68.5462 49.2822 68.4505C49.4735 68.3548 49.6967 68.3229 49.92 68.3229C50.1432 68.3229 50.3345 68.3548 50.5577 68.3867C50.781 68.4505 50.9723 68.5143 51.1318 68.6099L50.9723 69.184ZM51.5782 68.3867L54.1932 67.7808L54.3207 68.3229L53.3321 68.5462L53.938 71.2249L53.3321 71.3524L52.7262 68.6737L51.7377 68.897L51.5782 68.3867ZM55.4687 67.3344L57.9242 66.2182L58.1475 66.7285L57.2227 67.143L58.3388 69.6304L57.7648 69.8855L56.6487 67.3981L55.7239 67.8127L55.4687 67.3344ZM61.9104 67.2706L61.2408 66.8879L59.9652 67.8765L60.1565 68.6099L59.6463 69.0245L58.7534 65.5485L59.2636 65.134L62.4207 66.856L61.9104 67.2706ZM59.8376 67.3344L60.7624 66.6009L59.4549 65.8674L59.8376 67.3344ZM62.7715 62.9017L62.5163 62.3596C62.325 62.4234 62.1337 62.4871 61.9742 62.6147C61.7829 62.7423 61.6234 62.8698 61.4959 63.0293C61.3364 63.2206 61.2408 63.4119 61.177 63.6033C61.1132 63.7946 61.1132 63.986 61.1451 64.1454C61.177 64.3049 61.2726 64.4643 61.4321 64.5919C61.5915 64.7194 61.751 64.7832 61.9104 64.8151C62.0699 64.8151 62.2293 64.7832 62.3569 64.7194C62.4844 64.6556 62.6758 64.56 62.8671 64.4324C62.9947 64.3367 63.1222 64.273 63.2179 64.2092C63.3136 64.1773 63.4092 64.1454 63.473 64.1135C63.5687 64.1135 63.6325 64.1454 63.6963 64.2092C63.7919 64.273 63.8238 64.3686 63.8238 64.4962C63.8238 64.6238 63.76 64.7513 63.6325 64.8789C63.5049 65.0064 63.3455 65.134 63.1541 65.2297C62.9628 65.3253 62.7396 65.3891 62.5163 65.421L62.7396 65.9631C62.9947 65.9312 63.2179 65.8356 63.4411 65.708C63.6644 65.5804 63.8876 65.421 64.047 65.2297C64.2065 65.0383 64.3022 64.847 64.3659 64.6556C64.4297 64.4643 64.4297 64.273 64.3978 64.0816C64.3659 63.8903 64.2703 63.7627 64.1108 63.6033C63.9514 63.4757 63.7919 63.3801 63.6325 63.3801C63.473 63.3801 63.3136 63.4119 63.186 63.4757C63.0585 63.5395 62.8671 63.6352 62.6758 63.7627C62.5482 63.8584 62.4207 63.9222 62.325 63.9541C62.2293 63.986 62.1337 64.0178 62.0699 64.0178C61.9742 64.0178 61.9104 63.986 61.8467 63.9541C61.7829 63.8903 61.751 63.7946 61.751 63.699C61.751 63.6033 61.8148 63.4757 61.9104 63.3801C62.0061 63.2844 62.1337 63.1887 62.2931 63.0931C62.3888 63.0612 62.5801 62.9655 62.7715 62.9017ZM62.5163 61.8175L63.8557 59.4895L64.334 59.7765L63.8238 60.6694L66.1836 62.0407L65.8647 62.5828L63.5049 61.2116L62.9947 62.1045L62.5163 61.8175ZM64.047 59.0112L67.1722 60.0635L67.9695 57.7037L67.4592 57.5124L66.8852 59.2663L66.088 59.0112L66.5982 57.4805L66.088 57.2892L65.5777 58.8198L64.8124 58.5647L65.3864 56.8746L64.8762 56.6832L64.047 59.0112Z" fill="#3D3222"/>
<path fill-rule="evenodd" clip-rule="evenodd" d="M50.0154 46.8294C49.6646 46.8294 49.3457 46.8613 48.9949 46.8931C49.1225 46.4467 49.5051 46.0959 50.0154 46.0959C50.4937 46.0959 50.9083 46.4467 51.0358 46.8931C50.685 46.8294 50.3343 46.8294 50.0154 46.8294ZM48.2933 46.9888C44.7217 47.7542 42.043 50.7837 42.043 54.3872H50.0154H57.9559C57.9559 50.7837 55.2771 47.7542 51.7055 46.9888C51.6417 46.0959 50.9083 45.3943 49.9835 45.3943C49.0906 45.4262 48.3571 46.1278 48.2933 46.9888Z" fill="#66491C"/>
<path fill-rule="evenodd" clip-rule="evenodd" d="M43 53.5262H44.3075C44.5945 51.1345 45.7744 49.0935 47.4008 47.8498C45.1047 48.7746 43.3189 50.8793 43 53.5262Z" fill="#DFDEDA"/>
<path fill-rule="evenodd" clip-rule="evenodd" d="M50.0159 54.7699H40.7041V55.1525L41.9478 56.2687H50.0159H58.052L59.2957 55.1525V54.7699H50.0159Z" fill="#66491C"/>
<path fill-rule="evenodd" clip-rule="evenodd" d="M45.2644 58.0545C45.4557 58.0545 45.6152 58.0864 45.7428 58.1821C45.8384 58.2777 45.9022 58.4053 45.9022 58.5966C45.9022 58.788 45.8384 58.9155 45.7428 59.0112C45.6471 59.1068 45.4876 59.1706 45.2644 59.1706H44.9136V59.649H44.5947V58.0545H45.2644ZM45.2325 58.9155C45.3601 58.9155 45.4239 58.8836 45.4876 58.8517C45.5514 58.788 45.5833 58.7242 45.5833 58.6285C45.5833 58.5328 45.5514 58.4691 45.4876 58.4053C45.4239 58.3415 45.3282 58.3415 45.2325 58.3415H44.9136V58.9155H45.2325ZM47.1459 59.649L46.8589 59.1706C46.8589 59.1706 46.827 59.1706 46.7951 59.1706H46.4443V59.649H46.1254V58.0545H46.7951C46.9864 58.0545 47.1459 58.0864 47.2735 58.1821C47.401 58.2777 47.4329 58.4053 47.4329 58.5966C47.4329 58.7242 47.401 58.8198 47.3372 58.9155C47.2734 59.0112 47.2097 59.075 47.114 59.1068L47.4648 59.6171H47.1459V59.649ZM46.4443 58.9155H46.7951C46.9227 58.9155 46.9864 58.8836 47.0502 58.8517C47.114 58.788 47.1459 58.7242 47.1459 58.6285C47.1459 58.5328 47.114 58.4691 47.0502 58.4053C46.9864 58.3415 46.8908 58.3415 46.7951 58.3415H46.4443V58.9155ZM47.7837 58.0545H48.9317V58.3096H48.0707V58.6923H48.836V58.9474H48.0707V59.3939H48.9636V59.649H47.7837V58.0545ZM49.2825 58.0545H49.6333L50.1435 59.075L50.6537 58.0545H51.0045V59.649H50.7175V58.5009L50.2073 59.4895H50.016L49.5057 58.5009V59.649H49.2187V58.0545H49.2825ZM51.4191 58.0545H51.738V59.649H51.4191V58.0545ZM52.3758 58.9793C52.3758 59.1068 52.4077 59.2025 52.4714 59.2663C52.5352 59.3301 52.6309 59.362 52.7585 59.362C52.886 59.362 52.9817 59.3301 53.0455 59.2663C53.1092 59.2025 53.1411 59.1068 53.1411 58.9793V58.0545H53.46V58.9793C53.46 59.1068 53.4281 59.2344 53.3644 59.3301C53.3006 59.4257 53.2368 59.5214 53.1092 59.5533C53.0136 59.6171 52.886 59.649 52.7585 59.649C52.6309 59.649 52.5033 59.6171 52.3758 59.5533C52.2801 59.4895 52.1844 59.4257 52.1207 59.3301C52.0569 59.2344 52.025 59.1068 52.025 58.9793V58.0545H52.3439V58.9793H52.3758ZM53.8108 58.0545H54.1616L54.6718 59.075L55.1821 58.0545H55.5328V59.649H55.2458V58.5009L54.7994 59.4895H54.6081L54.0978 58.5009V59.649H53.8108V58.0545Z" fill="#66491C"/>
<path fill-rule="evenodd" clip-rule="evenodd" d="M47.2094 61.7537C47.1456 61.8175 47.0818 61.8494 47.018 61.8812C46.9543 61.9131 46.8905 61.9131 46.7948 61.9131C46.6991 61.9131 46.6035 61.8812 46.5397 61.8175C46.4759 61.7537 46.3802 61.6899 46.3484 61.5942C46.1889 61.5942 46.0614 61.5623 45.9657 61.4986C45.8381 61.4348 45.7425 61.3391 45.6787 61.2435C45.6149 61.1159 45.583 60.9883 45.583 60.8608C45.583 60.7332 45.6149 60.6057 45.6787 60.4781C45.7425 60.3505 45.8381 60.2868 45.9657 60.223C46.0932 60.1592 46.2208 60.1273 46.3484 60.1273C46.4759 60.1273 46.6354 60.1592 46.731 60.223C46.8586 60.2868 46.9543 60.3824 47.018 60.4781C47.0818 60.6057 47.1137 60.7013 47.1137 60.8608C47.1137 60.9564 47.0818 61.084 47.0499 61.1797C47.018 61.2753 46.9543 61.371 46.8586 61.4348C46.7948 61.4986 46.6991 61.5623 46.6035 61.5942C46.6673 61.658 46.7629 61.7218 46.8267 61.7218C46.8905 61.7218 46.9862 61.6899 47.0818 61.5942L47.2094 61.7537ZM45.87 60.8608C45.87 60.9564 45.9019 61.0202 45.9338 61.1159C45.9657 61.1797 46.0295 61.2435 46.1251 61.3072C46.1889 61.3391 46.2846 61.371 46.3802 61.371C46.4759 61.371 46.5397 61.3391 46.6354 61.3072C46.6991 61.2753 46.7629 61.2116 46.8267 61.1159C46.8586 61.0521 46.8905 60.9564 46.8905 60.8608C46.8905 60.7651 46.8586 60.7013 46.8267 60.6057C46.7948 60.5419 46.731 60.4781 46.6354 60.4143C46.5078 60.3824 46.444 60.3505 46.3484 60.3505C46.2527 60.3505 46.1889 60.3824 46.0932 60.4143C46.0295 60.4462 45.9657 60.51 45.9019 60.6057C45.87 60.6694 45.87 60.7651 45.87 60.8608ZM47.6239 60.9883C47.6239 61.1159 47.6558 61.1797 47.7196 61.2435C47.7834 61.3072 47.8791 61.3391 47.9747 61.3391C48.0704 61.3391 48.1661 61.3072 48.2298 61.2435C48.2936 61.1797 48.3255 61.084 48.3255 60.9883V60.1273H48.6125V60.9883C48.6125 61.1159 48.5806 61.2116 48.5487 61.3072C48.485 61.4029 48.4212 61.4667 48.3255 61.5305C48.2298 61.5942 48.1342 61.5942 48.0066 61.5942C47.8791 61.5942 47.7515 61.5623 47.6558 61.5305C47.5602 61.4667 47.4964 61.4029 47.4326 61.3072C47.3688 61.2116 47.3688 61.1159 47.3688 60.9883V60.1273H47.6558V60.9883H47.6239ZM49.9838 61.5623L49.8562 61.2435H49.1546L49.0271 61.5623H48.7401L49.3779 60.1273H49.6649L50.3027 61.5623H49.9838ZM49.2503 61.0202H49.7605L49.5054 60.4143L49.2503 61.0202ZM50.4621 60.1273H50.7491V61.3391H51.3869V61.5942H50.494V60.1273H50.4621ZM51.5782 60.1273H51.8653V61.5623H51.5782V60.1273ZM52.0566 60.1273H53.2365V60.3824H52.7901V61.5942H52.503V60.3824H52.0566V60.1273ZM54.5759 60.1273L54.0337 61.1159V61.5942H53.7467V61.1159L53.2046 60.1273H53.5235L53.9062 60.797L54.2889 60.1273H54.5759Z" fill="#66491C"/>
<path fill-rule="evenodd" clip-rule="evenodd" d="M49.9839 39.5585C50.2071 39.5585 50.3985 39.7499 50.3985 39.9731C50.3985 40.1963 50.2071 40.3877 49.9839 40.3877C49.7607 40.3877 49.5693 40.1963 49.5693 39.9731C49.5693 39.7499 49.7607 39.5585 49.9839 39.5585Z" fill="#66491C"/>
<path fill-rule="evenodd" clip-rule="evenodd" d="M52.2806 39.7818C52.5038 39.8137 52.6633 40.0369 52.5995 40.2601C52.5676 40.4833 52.3444 40.6428 52.1212 40.579C51.8979 40.5471 51.7385 40.3239 51.8023 40.1007C51.8341 39.8774 52.0574 39.718 52.2806 39.7818Z" fill="#66491C"/>
<path fill-rule="evenodd" clip-rule="evenodd" d="M54.4805 40.3558C54.7037 40.4196 54.7994 40.6747 54.7356 40.8979C54.6718 41.1211 54.4167 41.2168 54.1935 41.153C53.9702 41.0892 53.8746 40.8341 53.9383 40.6109C54.034 40.3877 54.2891 40.292 54.4805 40.3558Z" fill="#66491C"/>
<path fill-rule="evenodd" clip-rule="evenodd" d="M56.5857 41.3125C56.7771 41.44 56.8409 41.6633 56.7452 41.8865C56.6176 42.0778 56.3944 42.1416 56.1712 42.0459C55.9798 41.9184 55.9161 41.6952 56.0117 41.4719C56.1393 41.2806 56.3944 41.2168 56.5857 41.3125Z" fill="#66491C"/>
<path fill-rule="evenodd" clip-rule="evenodd" d="M58.4672 42.6518C58.6266 42.8113 58.6585 43.0664 58.531 43.2258C58.3715 43.3853 58.1164 43.4172 57.9569 43.2896C57.7975 43.1302 57.7656 42.8751 57.8932 42.7156C58.0207 42.5243 58.2758 42.4924 58.4672 42.6518Z" fill="#66491C"/>
<path fill-rule="evenodd" clip-rule="evenodd" d="M60.0934 44.2782C60.2528 44.4376 60.221 44.7246 60.0296 44.8522C59.8702 45.0117 59.5832 44.9798 59.4556 44.7884C59.2962 44.629 59.328 44.342 59.5194 44.2144C59.6788 44.055 59.934 44.0869 60.0934 44.2782Z" fill="#66491C"/>
<path fill-rule="evenodd" clip-rule="evenodd" d="M61.4009 46.1597C61.5285 46.351 61.4328 46.6061 61.2415 46.7337C61.0501 46.8613 60.795 46.7656 60.6675 46.5743C60.5399 46.3829 60.6356 46.1278 60.8269 46.0002C61.0501 45.8727 61.3052 45.9365 61.4009 46.1597Z" fill="#66491C"/>
<path fill-rule="evenodd" clip-rule="evenodd" d="M62.3899 48.2325C62.4537 48.4557 62.358 48.679 62.1348 48.7746C61.9115 48.8384 61.6883 48.7427 61.5926 48.5195C61.5289 48.2963 61.6245 48.073 61.8478 47.9774C62.071 47.9136 62.3261 48.0093 62.3899 48.2325Z" fill="#66491C"/>
<path fill-rule="evenodd" clip-rule="evenodd" d="M47.688 39.7818C47.9112 39.7499 48.1345 39.8774 48.1663 40.1007C48.1982 40.3239 48.0707 40.5471 47.8475 40.579C47.6242 40.6109 47.401 40.4833 47.3691 40.2601C47.3372 40.0369 47.4648 39.8137 47.688 39.7818Z" fill="#66491C"/>
<path fill-rule="evenodd" clip-rule="evenodd" d="M45.4884 40.3877C45.7116 40.3239 45.9348 40.4196 46.0305 40.6428C46.0943 40.866 45.9986 41.0892 45.7754 41.1849C45.5522 41.2168 45.297 41.1211 45.2333 40.8979C45.1695 40.6747 45.2652 40.4515 45.4884 40.3877Z" fill="#66491C"/>
<path fill-rule="evenodd" clip-rule="evenodd" d="M43.3831 41.3444C43.5744 41.2168 43.8295 41.3125 43.9571 41.5038C44.0847 41.6951 43.989 41.9503 43.7977 42.0778C43.6063 42.2054 43.3512 42.1097 43.2236 41.9184C43.128 41.727 43.1918 41.4719 43.3831 41.3444Z" fill="#66491C"/>
<path fill-rule="evenodd" clip-rule="evenodd" d="M41.5019 42.6837C41.6613 42.5243 41.9483 42.5562 42.0759 42.7475C42.2353 42.9069 42.2034 43.194 42.0121 43.3215C41.8526 43.481 41.5656 43.4491 41.4381 43.2577C41.3105 43.0664 41.3424 42.8113 41.5019 42.6837Z" fill="#66491C"/>
<path fill-rule="evenodd" clip-rule="evenodd" d="M39.9078 44.3101C40.0672 44.1506 40.3223 44.1188 40.4818 44.2463C40.6412 44.4058 40.6731 44.6609 40.5455 44.8203C40.3861 44.9798 40.131 45.0117 39.9715 44.8841C39.7802 44.7247 39.7483 44.4695 39.9078 44.3101Z" fill="#66491C"/>
<path fill-rule="evenodd" clip-rule="evenodd" d="M38.5674 46.1916C38.6949 46.0002 38.9182 45.9364 39.1414 46.0321C39.3327 46.1597 39.3965 46.3829 39.3009 46.6061C39.1733 46.7975 38.9501 46.8612 38.7268 46.7656C38.5355 46.638 38.4717 46.3829 38.5674 46.1916Z" fill="#66491C"/>
<path fill-rule="evenodd" clip-rule="evenodd" d="M37.6112 48.2644C37.675 48.0412 37.9301 47.9455 38.1533 48.0093C38.3765 48.0731 38.4722 48.3282 38.4084 48.5514C38.3447 48.7746 38.0895 48.8703 37.8663 48.8065C37.6431 48.7108 37.5474 48.4876 37.6112 48.2644Z" fill="#66491C"/>
<path fill-rule="evenodd" clip-rule="evenodd" d="M49.9839 66.4415C50.2071 66.4415 50.3985 66.2501 50.3985 66.0269C50.3985 65.8037 50.2071 65.6123 49.9839 65.6123C49.7607 65.6123 49.5693 65.8037 49.5693 66.0269C49.5693 66.2501 49.7607 66.4415 49.9839 66.4415Z" fill="#66491C"/>
<path fill-rule="evenodd" clip-rule="evenodd" d="M52.2806 66.2182C52.5038 66.1863 52.6633 65.9631 52.5995 65.7399C52.5676 65.5167 52.3444 65.3572 52.1212 65.421C51.8979 65.4529 51.7385 65.6761 51.8023 65.8993C51.8341 66.1226 52.0574 66.282 52.2806 66.2182Z" fill="#66491C"/>
<path fill-rule="evenodd" clip-rule="evenodd" d="M54.4805 65.6442C54.7037 65.5804 54.7994 65.3253 54.7356 65.1021C54.6718 64.8789 54.4167 64.7832 54.1935 64.847C53.9702 64.9108 53.8746 65.1659 53.9383 65.3891C54.034 65.6123 54.2891 65.708 54.4805 65.6442Z" fill="#66491C"/>
<path fill-rule="evenodd" clip-rule="evenodd" d="M56.5857 64.6556C56.7771 64.5281 56.8409 64.3048 56.7452 64.0816C56.6176 63.8903 56.3944 63.8265 56.1712 63.9222C55.9798 64.0497 55.9161 64.273 56.0117 64.4962C56.1393 64.7194 56.3944 64.7832 56.5857 64.6556Z" fill="#66491C"/>
<path fill-rule="evenodd" clip-rule="evenodd" d="M58.4672 63.3482C58.6266 63.1887 58.6585 62.9336 58.531 62.7742C58.3715 62.6147 58.1164 62.5828 57.9569 62.7104C57.7975 62.8698 57.7656 63.1249 57.8932 63.2844C58.0207 63.4757 58.2758 63.5076 58.4672 63.3482Z" fill="#66491C"/>
<path fill-rule="evenodd" clip-rule="evenodd" d="M60.0934 61.7218C60.2528 61.5623 60.221 61.2753 60.0296 61.1478C59.8702 60.9883 59.5832 61.0202 59.4556 61.2116C59.2962 61.371 59.328 61.658 59.5194 61.7856C59.6788 61.945 59.934 61.9131 60.0934 61.7218Z" fill="#66491C"/>
<path fill-rule="evenodd" clip-rule="evenodd" d="M61.4009 59.8403C61.5285 59.649 61.4328 59.3938 61.2415 59.2663C61.0501 59.1387 60.795 59.2344 60.6675 59.4257C60.5399 59.6171 60.6356 59.8722 60.8269 59.9997C61.0501 60.1273 61.3052 60.0635 61.4009 59.8403Z" fill="#66491C"/>
<path fill-rule="evenodd" clip-rule="evenodd" d="M62.3899 57.7675C62.4537 57.5443 62.358 57.321 62.1348 57.2254C61.9115 57.1616 61.6883 57.2572 61.5926 57.4805C61.5289 57.7037 61.6245 57.9269 61.8478 58.0226C62.071 58.0864 62.3261 57.9907 62.3899 57.7675Z" fill="#66491C"/>
<path fill-rule="evenodd" clip-rule="evenodd" d="M47.688 66.2182C47.9112 66.2501 48.1345 66.1226 48.1663 65.8993C48.1982 65.6761 48.0707 65.4529 47.8475 65.421C47.6242 65.3891 47.401 65.5167 47.3691 65.7399C47.3372 65.9631 47.4648 66.1863 47.688 66.2182Z" fill="#66491C"/>
<path fill-rule="evenodd" clip-rule="evenodd" d="M45.4884 65.6123C45.7116 65.6761 45.9348 65.5804 46.0305 65.3572C46.0943 65.134 45.9986 64.9108 45.7754 64.8151C45.5522 64.7513 45.3289 64.847 45.2333 65.0702C45.1695 65.3253 45.2652 65.5485 45.4884 65.6123Z" fill="#66491C"/>
<path fill-rule="evenodd" clip-rule="evenodd" d="M43.3831 64.6556C43.5744 64.7832 43.8295 64.6875 43.9571 64.4962C44.0847 64.3048 43.989 64.0497 43.7977 63.9222C43.6063 63.7946 43.3512 63.8903 43.2236 64.0816C43.128 64.2729 43.1918 64.5281 43.3831 64.6556Z" fill="#66491C"/>
<path fill-rule="evenodd" clip-rule="evenodd" d="M41.5019 63.3163C41.6613 63.4757 41.9483 63.4438 42.0759 63.2525C42.2353 63.093 42.2034 62.806 42.0121 62.6785C41.8526 62.519 41.5656 62.5509 41.4381 62.7422C41.3105 62.9336 41.3424 63.1887 41.5019 63.3163Z" fill="#66491C"/>
<path fill-rule="evenodd" clip-rule="evenodd" d="M39.9078 61.6899C40.0672 61.8494 40.3223 61.8812 40.4818 61.7537C40.6412 61.5942 40.6731 61.3391 40.5455 61.1797C40.3861 61.0202 40.131 60.9883 39.9715 61.1159C39.7802 61.2753 39.7483 61.5305 39.9078 61.6899Z" fill="#66491C"/>
<path fill-rule="evenodd" clip-rule="evenodd" d="M38.5674 59.8084C38.6949 59.9998 38.9182 60.0635 39.1414 59.9679C39.3327 59.8403 39.3965 59.6171 39.3009 59.3939C39.1733 59.2025 38.9501 59.1387 38.7268 59.2344C38.5355 59.362 38.4717 59.6171 38.5674 59.8084Z" fill="#66491C"/>
<path fill-rule="evenodd" clip-rule="evenodd" d="M37.6112 57.7356C37.675 57.9588 37.9301 58.0545 38.1533 57.9907C38.3765 57.9269 38.4722 57.6718 38.4084 57.4486C38.3447 57.2254 38.0895 57.1297 37.8663 57.1935C37.6431 57.2892 37.5474 57.5124 37.6112 57.7356Z" fill="#66491C"/>
<defs>
<filter id="filter0_di" x="0" y="0" width="106" height="106" filterUnits="userSpaceOnUse" color-interpolation-filters="sRGB">
<feFlood flood-opacity="0" result="BackgroundImageFix"/>
<feColorMatrix in="SourceAlpha" type="matrix" values="0 0 0 0 0 0 0 0 0 0 0 0 0 0 0 0 0 0 127 0" result="hardAlpha"/>
<feOffset dx="3"/>
<feGaussianBlur stdDeviation="12.5"/>
<feColorMatrix type="matrix" values="0 0 0 0 0.0460833 0 0 0 0 0.329167 0 0 0 0 0 0 0 0 0.1 0"/>
<feBlend mode="normal" in2="BackgroundImageFix" result="effect1_dropShadow"/>
<feBlend mode="normal" in="SourceGraphic" in2="effect1_dropShadow" result="shape"/>
<feColorMatrix in="SourceAlpha" type="matrix" values="0 0 0 0 0 0 0 0 0 0 0 0 0 0 0 0 0 0 127 0" result="hardAlpha"/>
<feOffset/>
<feGaussianBlur stdDeviation="2.5"/>
<feComposite in2="hardAlpha" operator="arithmetic" k2="-1" k3="1"/>
<feColorMatrix type="matrix" values="0 0 0 0 0 0 0 0 0 0 0 0 0 0 0 0 0 0 0.02 0"/>
<feBlend mode="normal" in2="shape" result="effect2_innerShadow"/>
</filter>
<filter id="filter1_b" x="-28" y="-25" width="156" height="156" filterUnits="userSpaceOnUse" color-interpolation-filters="sRGB">
<feFlood flood-opacity="0" result="BackgroundImageFix"/>
<feGaussianBlur in="BackgroundImage" stdDeviation="25"/>
<feComposite in2="SourceAlpha" operator="in" result="effect1_backgroundBlur"/>
<feBlend mode="normal" in="SourceGraphic" in2="effect1_backgroundBlur" result="shape"/>
</filter>
</defs>
</svg>
