<svg width="18" height="22" viewBox="0 0 18 22" fill="none" xmlns="http://www.w3.org/2000/svg">
<path d="M17.0171 21.9714C11.9029 21.9714 6.78857 21.9714 1.67429 21.9714C1.65714 21.96 1.64 21.9428 1.62286 21.9371C0.577143 21.6857 0 20.9657 0 19.8971C0 13.9657 0 8.02856 0 2.09713C0 1.97713 0 1.85141 0.0171429 1.73141C0.182857 0.691414 0.977143 0.0285568 2.05143 0.0285568C6.91429 0.0285568 11.7771 0.0285568 16.64 0.0285568C17.5314 0.0285568 18 0.502842 18 1.38856C18 7.79427 18 14.2 18 20.6057C18 20.6686 18 20.7371 18 20.8C17.9829 21.2971 17.68 21.7257 17.2114 21.8971C17.1486 21.92 17.08 21.9486 17.0171 21.9714ZM1.71429 18.0228C1.71429 17.9657 1.71429 17.88 1.71429 17.7943C1.71429 15.7143 1.71429 13.64 1.71429 11.56C1.71429 11.48 1.70857 11.4 1.72 11.3257C1.75429 11.12 1.93714 10.9657 2.13714 10.9657C2.33714 10.9657 2.52571 11.12 2.56 11.32C2.57143 11.3943 2.56571 11.4743 2.56571 11.5543C2.56571 13.6228 2.56571 15.6971 2.56571 17.7657C2.56571 17.8514 2.56571 17.9314 2.56571 18.0286C2.65714 18.0343 2.72571 18.04 2.79429 18.04C7.40571 18.04 12.0229 18.04 16.6343 18.04C17.0457 18.04 17.1371 17.9486 17.1371 17.5371C17.1371 12.1543 17.1371 6.7657 17.1371 1.38284C17.1371 0.971414 17.0457 0.879985 16.6343 0.879985C12.0286 0.879985 7.42286 0.879985 2.81714 0.879985C2.74286 0.879985 2.66286 0.879985 2.56571 0.879985C2.56571 0.982843 2.56571 1.06856 2.56571 1.15427C2.56571 3.22284 2.56571 5.29713 2.56571 7.3657C2.56571 7.43427 2.57143 7.50856 2.56 7.57713C2.53143 7.79999 2.35429 7.95427 2.13714 7.95427C1.92 7.95427 1.74286 7.79999 1.71429 7.57713C1.70286 7.50856 1.70857 7.43427 1.70857 7.3657C1.70857 5.30284 1.70857 3.23999 1.70857 1.17141C1.70857 1.09141 1.70857 1.0057 1.70857 0.919985C1.16 1.03999 0.851429 1.46856 0.851429 2.06856C0.851429 7.42284 0.851429 12.7828 0.851429 18.1371C0.851429 18.2057 0.851429 18.2743 0.851429 18.3314C1.14857 18.2343 1.41714 18.1371 1.71429 18.0228ZM15.4171 18.9028C15.3086 18.9028 15.2114 18.9028 15.1143 18.9028C10.7943 18.9028 6.47429 18.9028 2.16 18.9028C2.05143 18.9028 1.94286 18.9028 1.84 18.9143C1.49143 18.9486 1.21714 19.12 1.03429 19.4171C0.805714 19.7771 0.788571 20.16 0.994286 20.5371C1.21143 20.9314 1.56571 21.1143 2.01714 21.1143C6.42286 21.1143 10.8229 21.1143 15.2286 21.1143C15.2914 21.1143 15.3543 21.1086 15.4171 21.1028C15.4171 20.3657 15.4171 19.6457 15.4171 18.9028ZM16.2914 21.1143C16.48 21.1143 16.64 21.12 16.8057 21.1143C16.9943 21.1028 17.1314 20.9943 17.1314 20.8114C17.1429 20.1714 17.1371 19.5314 17.1371 18.9086C16.8457 18.9086 16.5714 18.9086 16.2914 18.9086C16.2914 19.6514 16.2914 20.3714 16.2914 21.1143Z" fill="#FB6152"/>
<path d="M7.75412 4.82285C8.07412 4.37714 8.47983 4.05714 8.99411 3.86856C9.99983 3.50285 11.1484 3.81142 11.8113 4.65142C11.9198 4.78856 12.0055 4.81142 12.177 4.75999C13.417 4.37714 14.7713 5.03999 15.2455 6.25142C15.7313 7.49714 15.1998 8.88571 13.9998 9.45714C13.8398 9.53142 13.7884 9.61714 13.7884 9.78856C13.7941 11.3314 13.7941 12.8743 13.7941 14.4171C13.7941 14.9657 13.5484 15.2171 12.9998 15.2171C10.9027 15.2171 8.79983 15.2171 6.70269 15.2171C6.17126 15.2171 5.91983 14.9657 5.91983 14.4286C5.91983 12.8743 5.91983 11.3143 5.91983 9.75999C5.91983 9.63999 5.91412 9.55999 5.77697 9.49714C4.52554 8.91999 3.97126 7.53714 4.46269 6.26856C4.94269 5.02856 6.31412 4.38285 7.60554 4.79428C7.64554 4.79428 7.69126 4.80571 7.75412 4.82285ZM12.937 12.6286C12.937 12.5257 12.937 12.4457 12.937 12.3714C12.937 11.3714 12.937 10.3714 12.937 9.37142C12.937 8.99428 13.0055 8.90285 13.3655 8.78856C14.0455 8.57142 14.4513 8.10856 14.5484 7.41142C14.6398 6.75428 14.4055 6.21142 13.8627 5.82856C13.3027 5.42856 12.697 5.40571 12.0855 5.71999C11.7313 5.90285 11.537 5.84571 11.3541 5.50285C11.0341 4.90285 10.5313 4.57714 9.85126 4.58285C9.17126 4.58285 8.67412 4.91428 8.35412 5.51999C8.18269 5.83999 7.97126 5.90856 7.65126 5.73714C7.03412 5.41142 6.42269 5.42285 5.85126 5.82856C5.30269 6.21714 5.06269 6.76571 5.15983 7.43428C5.26269 8.13142 5.67983 8.58856 6.35412 8.80571C6.69697 8.91428 6.77126 9.01142 6.77126 9.37714C6.77126 10.3829 6.77126 11.3886 6.77126 12.4C6.77126 12.4743 6.77126 12.5543 6.77126 12.6457C8.83412 12.6286 10.8741 12.6286 12.937 12.6286ZM12.9255 13.52C10.8684 13.52 8.8284 13.52 6.7884 13.52C6.7884 13.8057 6.7884 14.0743 6.7884 14.3429C8.83983 14.3429 10.8798 14.3429 12.9255 14.3429C12.9255 14.0629 12.9255 13.8057 12.9255 13.52Z" fill="#FB6152"/>
<path d="M2.14864 9.89143C1.90864 9.89143 1.71436 9.70286 1.71436 9.46286C1.72007 9.23428 1.90864 9.04 2.13721 9.04C2.37149 9.03428 2.57149 9.24 2.57149 9.47428C2.56578 9.70286 2.38292 9.88572 2.14864 9.89143Z" fill="#FB6152"/>
</svg>
