<svg width="19" height="18" viewBox="0 0 19 18" fill="none" xmlns="http://www.w3.org/2000/svg">
<path d="M11.7835 17.9972C11.4109 17.9305 11.0313 17.8848 10.6657 17.7899C8.21933 17.1573 6.40913 15.1224 6.05061 12.613C6.03304 12.497 5.98383 12.4583 5.87486 12.4443C3.22811 12.0928 1.0594 9.99467 0.59894 7.34472C0.0400652 4.11488 2.02249 1.03617 5.19648 0.19971C8.69033 -0.717579 12.2967 1.59497 12.9118 5.15167C12.975 5.5242 12.9786 5.51015 13.3406 5.58747C15.91 6.1287 17.555 7.67158 18.3002 10.1809C18.367 10.4059 18.2685 10.5921 18.0787 10.6484C17.8678 10.7116 17.6851 10.5992 17.6218 10.3567C17.2879 9.10198 16.6095 8.07574 15.5726 7.29552C14.859 6.7578 14.0541 6.42392 13.1754 6.26928C13.1297 6.26225 13.084 6.26225 13.0207 6.25522C12.9856 7.97382 12.3916 9.46398 11.1754 10.6765C9.96274 11.8855 8.48295 12.483 6.72548 12.5181C6.81687 12.866 6.88014 13.2034 6.9891 13.5268C7.82917 15.9799 10.2018 17.5087 12.7852 17.2662C15.0664 17.0518 16.9856 15.4457 17.5902 13.2386C17.6042 13.1823 17.6183 13.1261 17.6394 13.0699C17.7061 12.866 17.8889 12.7571 18.0717 12.8133C18.2615 12.8695 18.374 13.0523 18.3107 13.2561C18.2193 13.5689 18.1315 13.8888 17.9979 14.184C17.0137 16.3419 15.3476 17.6071 12.9926 17.9551C12.8942 17.9691 12.7958 17.9832 12.7009 17.9972C12.3916 17.9972 12.0893 17.9972 11.7835 17.9972ZM12.2404 5.48203C11.9487 3.01835 9.6956 0.582792 6.51458 0.71283C3.49173 0.835838 1.08049 3.38386 1.21054 6.48367C1.34059 9.59402 3.84674 11.52 5.98031 11.7344C6.01546 10.0263 6.60597 8.54318 7.81511 7.33067C9.02776 6.11464 10.5146 5.51718 12.2404 5.48203ZM12.2931 6.19899C8.94341 6.14627 6.54622 9.0809 6.71142 11.8011C9.87135 11.8609 12.388 9.16525 12.2931 6.19899Z" fill="#FB6152"/>
</svg>
