<svg width="1440" height="866" viewBox="0 0 1440 866" fill="none" xmlns="http://www.w3.org/2000/svg" xmlns:xlink="http://www.w3.org/1999/xlink">
<g clip-path="url(#clip0)">
  <defs>
        <filter id="blur">
            <feGaussianBlur stdDeviation="30" />
        </filter>
        <filter id="blur2">
            <feGaussianBlur stdDeviation="15" />
        </filter>
    </defs>
<circle opacity="0.6" cx="1290" cy="166" r="203" fill="#2BA1E3" filter="url(#blur)" fill-opacity="0.33"/>
<circle opacity="0.6" cx="913" cy="548" r="84" fill="#269FE3" filter="url(#blur2)"/>
<g filter="url(#filter0_b)">
<path d="M0 0H1440V572L0 752V0Z" fill="#FFE4E4" fill-opacity="0.07"/>
</g>
<path d="M1260 594.005L1680 541.488V605.488L1260 658.005V594.005Z" fill="#2BA1E3"/>
<path d="M828 584.808L1440 508V572L828 648.808V584.808Z" fill="#B1ECFF"/>
<path d="M988 500.517L1408 448V512L988 564.517V500.517Z" fill="#E4FFFF"/>
<path d="M0 688.016L420 635.499V699.499L0 752.016V688.016Z" fill="#2B96E3" fill-opacity="0.8"/>
<path d="M-152 771.005L268 718.488V782.488L-152 835.005V771.005Z" fill="#E4FAFF"/>
<path d="M829 136.4C829 132.865 831.865 130 835.4 130H1354.6C1358.13 130 1361 132.865 1361 136.4V800.6C1361 804.135 1358.13 807 1354.6 807H835.4C831.865 807 829 804.135 829 800.6V136.4Z" fill="url(#pattern0)"/>
</g>
<defs>
<filter id="filter0_b" x="-100" y="-100" width="1640" height="952" filterUnits="userSpaceOnUse" color-interpolation-filters="sRGB">
<feFlood flood-opacity="0" result="BackgroundImageFix"/>
<feGaussianBlur in="BackgroundImage" stdDeviation="50"/>
<feComposite in2="SourceAlpha" operator="in" result="effect1_backgroundBlur"/>
<feBlend mode="normal" in="SourceGraphic" in2="effect1_backgroundBlur" result="shape"/>
</filter>
<pattern id="pattern0" patternContentUnits="objectBoundingBox" width="1" height="1">
<use xlink:href="#image0" transform="translate(0.0119048 -0.15051) scale(0.000812139 0.000638109)"/>
</pattern>
<clipPath id="clip0">
<rect width="1440" height="866" fill="white"/>
</clipPath>

</defs>
</svg>
