<svg width="100" height="19" viewBox="0 0 100 19" fill="none" xmlns="http://www.w3.org/2000/svg">
<path d="M0.721591 18H3.88352V10.5852H11.1364V7.93466H3.88352V3.19602H11.9034V0.545454H0.721591V18ZM19.397 18.2557C23.2322 18.2557 25.6697 15.554 25.6697 11.5057C25.6697 7.44886 23.2322 4.73864 19.397 4.73864C15.5618 4.73864 13.1243 7.44886 13.1243 11.5057C13.1243 15.554 15.5618 18.2557 19.397 18.2557ZM19.4141 15.7841C17.2919 15.7841 16.2521 13.892 16.2521 11.4972C16.2521 9.10227 17.2919 7.18466 19.4141 7.18466C21.5021 7.18466 22.5419 9.10227 22.5419 11.4972C22.5419 13.892 21.5021 15.7841 19.4141 15.7841ZM33.9986 18.2557C37.8338 18.2557 40.2713 15.554 40.2713 11.5057C40.2713 7.44886 37.8338 4.73864 33.9986 4.73864C30.1634 4.73864 27.7259 7.44886 27.7259 11.5057C27.7259 15.554 30.1634 18.2557 33.9986 18.2557ZM34.0156 15.7841C31.8935 15.7841 30.8537 13.892 30.8537 11.4972C30.8537 9.10227 31.8935 7.18466 34.0156 7.18466C36.1037 7.18466 37.1435 9.10227 37.1435 11.4972C37.1435 13.892 36.1037 15.7841 34.0156 15.7841ZM47.7479 18.2301C49.9979 18.2301 51.0121 16.892 51.4979 15.9375H51.6854V18H54.7195V0.545454H51.6257V7.07386H51.4979C51.0291 6.12784 50.0661 4.73864 47.7564 4.73864C44.7308 4.73864 42.353 7.10795 42.353 11.4716C42.353 15.7841 44.6626 18.2301 47.7479 18.2301ZM48.6087 15.6989C46.5717 15.6989 45.4979 13.9091 45.4979 11.4545C45.4979 9.01705 46.5547 7.26989 48.6087 7.26989C50.5945 7.26989 51.6854 8.91477 51.6854 11.4545C51.6854 13.9943 50.5774 15.6989 48.6087 15.6989ZM57.8196 18H70.7401V15.3494H61.7486L70.6889 2.5142V0.545454H57.7685V3.19602H66.7685L57.8196 16.0312V18ZM79.4588 18.2557C82.5099 18.2557 84.6065 16.7642 85.152 14.4886L82.2713 14.1648C81.8537 15.2727 80.831 15.8523 79.5014 15.8523C77.5071 15.8523 76.1861 14.5398 76.1605 12.2983H85.2798V11.3523C85.2798 6.75852 82.5185 4.73864 79.2969 4.73864C75.5469 4.73864 73.1009 7.49148 73.1009 11.5312C73.1009 15.6392 75.5128 18.2557 79.4588 18.2557ZM76.169 10.2188C76.2628 8.5483 77.4986 7.14205 79.3395 7.14205C81.1122 7.14205 82.3054 8.4375 82.3224 10.2188H76.169ZM90.9751 10.3295C90.9751 8.4375 92.1172 7.34659 93.745 7.34659C95.3388 7.34659 96.2933 8.39489 96.2933 10.142V18H99.3786V9.66477C99.3871 6.52841 97.5973 4.73864 94.8956 4.73864C92.9354 4.73864 91.5888 5.67614 90.9922 7.13352H90.8388V4.90909H87.8899V18H90.9751V10.3295Z" fill="url(#paint0_angular)"/>
<defs>
<radialGradient id="paint0_angular" cx="0" cy="0" r="1" gradientUnits="userSpaceOnUse" gradientTransform="translate(59 10.5) rotate(28.9565) scale(4.13092 329.365)">
<stop offset="0.333333" stop-color="#2499EE" stop-opacity="0.65"/>
<stop offset="1" stop-color="#010202" stop-opacity="0.66"/>
</radialGradient>
</defs>
</svg>
